<svg width="856" height="82" viewBox="0 0 856 82" fill="none" xmlns="http://www.w3.org/2000/svg">
<g clip-path="url(#clip0_442_4641)">
<path opacity="0.337255" d="M181 1H182V2H181V1Z" fill="white" stroke="white"/>
<path opacity="0.337255" d="M178 2H179V2.25V79.75V80H178V79.75V2.25V2Z" fill="white" stroke="white"/>
<path opacity="0.337255" d="M219 9H220V10H219V9Z" fill="white" stroke="white"/>
<path opacity="0.337255" d="M234 9H235V10H234V9Z" fill="white" stroke="white"/>
<g opacity="0.337255">
<path d="M251 9H252V10H251V11H250V10H251V9Z" fill="white"/>
<path d="M251 10H252V9H251V10ZM251 10V11H250V10H251Z" stroke="white"/>
</g>
<g opacity="0.337255">
<path d="M265 9H266V10H267V11H266V10H265V9Z" fill="white"/>
<path d="M266 10V9H265V10H266ZM266 10H267V11H266V10Z" stroke="white"/>
</g>
<path opacity="0.337255" d="M489 9H489.25H506.75H507V10H506.75H489.25H489V9Z" fill="white" stroke="white"/>
<g opacity="0.337255">
<path d="M487 10H488V11H487V12H486V13H485V14H484V15H483V14H484V13H485V12H486V11H487V10Z" fill="white"/>
<path d="M487 11H488V10H487V11ZM487 11V12H486M487 11H486V12M486 12V13H485M486 12H485V13M485 13V14H484M485 13H484V14M484 14V15H483V14H484Z" stroke="white"/>
</g>
<path opacity="0.337255" d="M508 10H509V11H508V10Z" fill="white" stroke="white"/>
<g opacity="0.337255">
<path d="M718 10H719V11H718V11.25V61.75V62H717V61.75V11.25V11H718V10Z" fill="white"/>
<path d="M718 11H719V10H718V11ZM718 11V11.25V61.75V62H717V61.75V11.25V11H718Z" stroke="white"/>
</g>
<path opacity="0.337255" d="M727 10H728V11H727V10Z" fill="white" stroke="white"/>
<g opacity="0.337255">
<path d="M739 10H740V11H739V12H738V11H739V10Z" fill="white"/>
<path d="M739 11H740V10H739V11ZM739 11V12H738V11H739Z" stroke="white"/>
</g>
<g opacity="0.337255">
<path d="M746 10H748V11H749V11.25V15.75V16H748V15.75V11.25V11H746V10Z" fill="white"/>
<path d="M748 11V10H746V11H748ZM748 11H749V11.25V15.75V16H748V15.75V11.25V11Z" stroke="white"/>
</g>
<path opacity="0.337255" d="M218 11H219V11.25V16.75V17H218V16.75V11.25V11Z" fill="white" stroke="white"/>
<path opacity="0.337255" d="M235 11H236V12H235V11Z" fill="white" stroke="white"/>
<path opacity="0.337255" d="M249 13H250V14H249V13Z" fill="white" stroke="white"/>
<path opacity="0.337255" d="M728 13H729V13.25V19.75V20H728V19.75V13.25V13Z" fill="white" stroke="white"/>
<path opacity="0.337255" d="M236 14H237V14.25V16.75V17H236V16.75V14.25V14Z" fill="white" stroke="white"/>
<path opacity="0.337255" d="M513 15H514V16H513V15Z" fill="white" stroke="white"/>
<path opacity="0.337255" d="M482 16H483V17H482V16Z" fill="white" stroke="white"/>
<path opacity="0.337255" d="M248 17H249V19H248V17Z" fill="white" stroke="white"/>
<path opacity="0.337255" d="M237 19H238V21H237V19Z" fill="white" stroke="white"/>
<path opacity="0.337255" d="M497 20H499V21H497V20Z" fill="white" stroke="white"/>
<path opacity="0.337255" d="M495 21H496V22H495V21Z" fill="white" stroke="white"/>
<path opacity="0.337255" d="M500 21H501V22H500V21Z" fill="white" stroke="white"/>
<path opacity="0.337255" d="M247 22H248V24H247V22Z" fill="white" stroke="white"/>
<path opacity="0.337255" d="M748 22H749V22.25V39.75V40H748V39.75V22.25V22Z" fill="white" stroke="white"/>
<path opacity="0.337255" d="M238 23H239V25H238V23Z" fill="white" stroke="white"/>
<g opacity="0.337255">
<path d="M513 23H514V24H513V25H511V24H513V23Z" fill="white"/>
<path d="M513 24H514V23H513V24ZM513 24V25H511V24H513Z" stroke="white"/>
</g>
<g opacity="0.337255">
<path d="M501 24H502V26H503V27H502V26H501V24Z" fill="white"/>
<path d="M502 26V24H501V26H502ZM502 26H503V27H502V26Z" stroke="white"/>
</g>
<path opacity="0.337255" d="M605 24H605.25H621.75H622V25H621.75H605.25H605V24Z" fill="white" stroke="white"/>
<path opacity="0.337255" d="M786 24H788V25H786V24Z" fill="white" stroke="white"/>
<path opacity="0.337255" d="M800 24H800.25H802.75H803V25H802.75H800.25H800V24Z" fill="white" stroke="white"/>
<g opacity="0.337255">
<path d="M273 25H273.25H279.75H280V26H279.75H273.25H273V26.25V28.75V29H272V28.75V26.25V26H273V25Z" fill="white"/>
<path d="M273 26H273.25H279.75H280V25H279.75H273.25H273V26ZM273 26V26.25V28.75V29H272V28.75V26.25V26H273Z" stroke="white"/>
</g>
<g opacity="0.337255">
<path d="M289 25H289.25H295.75H296V26H297V26.25V28.75V29H296V28.75V26.25V26H295.75H289.25H289V25Z" fill="white"/>
<path d="M296 26V25H295.75H289.25H289V26H289.25H295.75H296ZM296 26H297V26.25V28.75V29H296V28.75V26.25V26Z" stroke="white"/>
</g>
<path opacity="0.337255" d="M311 25H312V26H311V25Z" fill="white" stroke="white"/>
<g opacity="0.337255">
<path d="M320 25H321V26H322V27H321V26H320V25Z" fill="white"/>
<path d="M321 26V25H320V26H321ZM321 26H322V27H321V26Z" stroke="white"/>
</g>
<g opacity="0.337255">
<path d="M367 25H367.25H375.75H376V26H377V27H376V26H375.75H367.25H367V25Z" fill="white"/>
<path d="M376 26V25H375.75H367.25H367V26H367.25H375.75H376ZM376 26H377V27H376V26Z" stroke="white"/>
</g>
<path opacity="0.337255" d="M389 25H389.25H392.75H393V26H392.75H389.25H389V25Z" fill="white" stroke="white"/>
<path opacity="0.337255" d="M396 25H398V26H396V25Z" fill="white" stroke="white"/>
<path opacity="0.337255" d="M412 25H413V26H412V25Z" fill="white" stroke="white"/>
<path opacity="0.337255" d="M444 25H444.25H450.75H451V26H450.75H444.25H444V25Z" fill="white" stroke="white"/>
<g opacity="0.337255">
<path d="M495 25H496V26H497V27H496V26H495V25Z" fill="white"/>
<path d="M496 26V25H495V26H496ZM496 26H497V27H496V26Z" stroke="white"/>
</g>
<path opacity="0.337255" d="M506 25H508V26H506V25Z" fill="white" stroke="white"/>
<path opacity="0.337255" d="M551 25H551.25H564.75H565V26H564.75H551.25H551V25Z" fill="white" stroke="white"/>
<path opacity="0.337255" d="M576 25H578V26H576V25Z" fill="white" stroke="white"/>
<path opacity="0.337255" d="M592 25H593V26H592V25Z" fill="white" stroke="white"/>
<path opacity="0.337255" d="M623 25H624V27H623V25Z" fill="white" stroke="white"/>
<path opacity="0.337255" d="M631 25H633V26H631V25Z" fill="white" stroke="white"/>
<path opacity="0.337255" d="M642 25H642.25H648.75H649V26H648.75H642.25H642V25Z" fill="white" stroke="white"/>
<path opacity="0.337255" d="M660 25H660.25H664.75H665V26H664.75H660.25H660V25Z" fill="white" stroke="white"/>
<g opacity="0.337255">
<path d="M675 25H677V26H675V27H674V28H673V29H672V28H673V27H674V26H675V25Z" fill="white"/>
<path d="M675 26H677V25H675V26ZM675 26V27H674M675 26H674V27M674 27V28H673M674 27H673V28M673 28V29H672V28H673Z" stroke="white"/>
</g>
<g opacity="0.337255">
<path d="M689 25H690V26H691V27H692V28H693V29H692V28H691V27H690V26H689V25Z" fill="white"/>
<path d="M690 26V25H689V26H690ZM690 26H691V27M690 26V27H691M691 27H692V28M691 27V28H692M692 28H693V29H692V28Z" stroke="white"/>
</g>
<path opacity="0.337255" d="M758 25H760V26H758V25Z" fill="white" stroke="white"/>
<g opacity="0.337255">
<path d="M771 25H773V26H774V27H775V28H776V29H775V28H774V27H773V26H771V25Z" fill="white"/>
<path d="M773 26V25H771V26H773ZM773 26H774V27M773 26V27H774M774 27H775V28M774 27V28H775M775 28H776V29H775V28Z" stroke="white"/>
</g>
<path opacity="0.337255" d="M782 25H783V26H782V25Z" fill="white" stroke="white"/>
<path opacity="0.337255" d="M796 25H797V26H796V25Z" fill="white" stroke="white"/>
<path opacity="0.337255" d="M815 25H815.25H817.75H818V26H817.75H815.25H815V25Z" fill="white" stroke="white"/>
<g opacity="0.337255">
<path d="M837 25H839V26H837V27H836V26H837V25Z" fill="white"/>
<path d="M837 26H839V25H837V26ZM837 26V27H836V26H837Z" stroke="white"/>
</g>
<g opacity="0.337255">
<path d="M851 25H851.25H853.75H854V26H855V27H854V26H853.75H851.25H851V25Z" fill="white"/>
<path d="M854 26V25H853.75H851.25H851V26H851.25H853.75H854ZM854 26H855V27H854V26Z" stroke="white"/>
</g>
<g opacity="0.337255">
<path d="M128 26H128.25H131.75H132V27H130V28H128V29H126V30H124V31H123V30H124V29H126V28H124V27C124.25 27 124.833 27 125.75 27H126V28H128V26Z" fill="white"/>
<path d="M128 28H130V27H132V26H131.75H128.25H128V28ZM128 28V29H126M128 28H126M126 29V30H124M126 29H124V30M126 29V28M124 30V31H123V30H124ZM126 28H124V27C124.25 27 124.833 27 125.75 27H126V28Z" stroke="white"/>
</g>
<path opacity="0.337255" d="M246 26H247V26.25V28.75V29H246V28.75V26.25V26Z" fill="white" stroke="white"/>
<path opacity="0.337255" d="M281 26H282V27H281V26Z" fill="white" stroke="white"/>
<g opacity="0.337255">
<path d="M335 26H336V27H335V29H334V27H335V26Z" fill="white"/>
<path d="M335 27H336V26H335V27ZM335 27V29H334V27H335Z" stroke="white"/>
</g>
<g opacity="0.337255">
<path d="M343 26H344V27H345V28H344V27H343V26Z" fill="white"/>
<path d="M344 27V26H343V27H344ZM344 27H345V28H344V27Z" stroke="white"/>
</g>
<g opacity="0.337255">
<path d="M353 26H354V27H353V27.25V35.75V36H352V35.75V27.25V27H353V26Z" fill="white"/>
<path d="M353 27H354V26H353V27ZM353 27V27.25V35.75V36H352V35.75V27.25V27H353Z" stroke="white"/>
</g>
<path opacity="0.337255" d="M423 26H424V27H423V26Z" fill="white" stroke="white"/>
<path opacity="0.337255" d="M435 26H436V27H435V26Z" fill="white" stroke="white"/>
<g opacity="0.337255">
<path d="M453 26H454V27H455V28H456V29H457V30H456V29H455V28H454V27H453V26Z" fill="white"/>
<path d="M454 27V26H453V27H454ZM454 27H455V28M454 27V28H455M455 28H456V29M455 28V29H456M456 29H457V30H456V29Z" stroke="white"/>
</g>
<g opacity="0.337255">
<path d="M519 26H521V27H519V27.25V30.75V31H518V30.75V27.25V27H519V26Z" fill="white"/>
<path d="M519 27H521V26H519V27ZM519 27V27.25V30.75V31H518V30.75V27.25V27H519Z" stroke="white"/>
</g>
<g opacity="0.337255">
<path d="M536 26H538V27H539V28H540V29H541V30H540V29H539V28H538V27H536V26Z" fill="white"/>
<path d="M538 27V26H536V27H538ZM538 27H539V28M538 27V28H539M539 28H540V29M539 28V29H540M540 29H541V30H540V29Z" stroke="white"/>
</g>
<g opacity="0.337255">
<path d="M549 26H550V27H549V28H548V29H547V28H548V27H549V26Z" fill="white"/>
<path d="M549 27H550V26H549V27ZM549 27V28H548M549 27H548V28M548 28V29H547V28H548Z" stroke="white"/>
</g>
<path opacity="0.337255" d="M602 26H603V26.25V28.75V29H602V28.75V26.25V26Z" fill="white" stroke="white"/>
<path opacity="0.337255" d="M629 26H630V27H629V26Z" fill="white" stroke="white"/>
<path opacity="0.337255" d="M650 26H651V27H650V26Z" fill="white" stroke="white"/>
<g opacity="0.337255">
<path d="M756 26H757V27H756V28H755V29H754V28H755V27H756V26Z" fill="white"/>
<path d="M756 27H757V26H756V27ZM756 27V28H755M756 27H755V28M755 28V29H754V28H755Z" stroke="white"/>
</g>
<path opacity="0.337255" d="M790 26H791V26.25V28.75V29H790V28.75V26.25V26Z" fill="white" stroke="white"/>
<path opacity="0.337255" d="M812 26H813V27H812V26Z" fill="white" stroke="white"/>
<path opacity="0.337255" d="M826 26H827V27H826V26Z" fill="white" stroke="white"/>
<path opacity="0.337255" d="M287 27H288V28H287V27Z" fill="white" stroke="white"/>
<path opacity="0.337255" d="M359 27H360V28H359V27Z" fill="white" stroke="white"/>
<path opacity="0.337255" d="M365 27H366V29H365V27Z" fill="white" stroke="white"/>
<path opacity="0.337255" d="M387 27H388V29H387V27Z" fill="white" stroke="white"/>
<path opacity="0.337255" d="M399 27H400V27.25V43.75V44H399V43.75V27.25V27Z" fill="white" stroke="white"/>
<path opacity="0.337255" d="M498 27H499V28H498V27Z" fill="white" stroke="white"/>
<path opacity="0.337255" d="M574 27H575V29H574V27Z" fill="white" stroke="white"/>
<path opacity="0.337255" d="M635 27H636V28H635V27Z" fill="white" stroke="white"/>
<path opacity="0.337255" d="M640 27H641V28H640V27Z" fill="white" stroke="white"/>
<path opacity="0.337255" d="M658 27H659V27.25V35.75V36H658V35.75V27.25V27Z" fill="white" stroke="white"/>
<path opacity="0.337255" d="M804 27H805V27.25V57.75V58H804V57.75V27.25V27Z" fill="white" stroke="white"/>
<g opacity="0.337255">
<path d="M15 28H17V29H15V30H14V31H13V32H12V31H13V30H14V29H15V28Z" fill="white"/>
<path d="M15 29H17V28H15V29ZM15 29V30H14M15 29H14V30M14 30V31H13M14 30H13V31M13 31V32H12V31H13Z" stroke="white"/>
</g>
<path opacity="0.337255" d="M120 28H122V29H120V28Z" fill="white" stroke="white"/>
<path opacity="0.337255" d="M218 28H219V28.25V60.75V61H218V60.75V28.25V28Z" fill="white" stroke="white"/>
<path opacity="0.337255" d="M239 28H240V30H239V28Z" fill="white" stroke="white"/>
<path opacity="0.337255" d="M309 28H310V29H309V28Z" fill="white" stroke="white"/>
<path opacity="0.337255" d="M377 28H378V30H377V28Z" fill="white" stroke="white"/>
<path opacity="0.337255" d="M411 28H412V29H411V28Z" fill="white" stroke="white"/>
<path opacity="0.337255" d="M434 28H435V28.25V31.75V32H434V31.75V28.25V28Z" fill="white" stroke="white"/>
<g opacity="0.337255">
<path d="M500 28H501V29H502V30H501V29H500V28Z" fill="white"/>
<path d="M501 29V28H500V29H501ZM501 29H502V30H501V29Z" stroke="white"/>
</g>
<path opacity="0.337255" d="M628 28H629V28.25V61.75V62H628V61.75V28.25V28Z" fill="white" stroke="white"/>
<path opacity="0.337255" d="M651 28H652V29H651V28Z" fill="white" stroke="white"/>
<path opacity="0.337255" d="M666 28H667V28.25V61.75V62H666V61.75V28.25V28Z" fill="white" stroke="white"/>
<g opacity="0.337255">
<path d="M728 28H729V29H730V30H729V29H728V28Z" fill="white"/>
<path d="M729 29V28H728V29H729ZM729 29H730V30H729V29Z" stroke="white"/>
</g>
<g opacity="0.337255">
<path d="M737 28H738V29H737V30H736V29H737V28Z" fill="white"/>
<path d="M737 29H738V28H737V29ZM737 29V30H736V29H737Z" stroke="white"/>
</g>
<path opacity="0.337255" d="M116 29H118V30H116V29Z" fill="white" stroke="white"/>
<path opacity="0.337255" d="M282 29H283V30H282V29Z" fill="white" stroke="white"/>
<path opacity="0.337255" d="M322 29H323V31H322V29Z" fill="white" stroke="white"/>
<path opacity="0.337255" d="M345 29H346V30H345V29Z" fill="white" stroke="white"/>
<path opacity="0.337255" d="M424 29H425V31H424V29Z" fill="white" stroke="white"/>
<path opacity="0.337255" d="M568 29H569V30H568V29Z" fill="white" stroke="white"/>
<path opacity="0.337255" d="M596 29H597V30H596V29Z" fill="white" stroke="white"/>
<path opacity="0.337255" d="M781 29H782V29.25V56.75V57H781V56.75V29.25V29Z" fill="white" stroke="white"/>
<path opacity="0.337255" d="M112 30H114V31H112V30Z" fill="white" stroke="white"/>
<path opacity="0.337255" d="M273 30H274V31H273V30Z" fill="white" stroke="white"/>
<path opacity="0.337255" d="M286 30H287V31H286V30Z" fill="white" stroke="white"/>
<path opacity="0.337255" d="M546 30H547V31H546V30Z" fill="white" stroke="white"/>
<path opacity="0.337255" d="M671 30H672V30.25V33.75V34H671V33.75V30.25V30Z" fill="white" stroke="white"/>
<path opacity="0.337255" d="M693 30H694V30.25V32.75V33H693V32.75V30.25V30Z" fill="white" stroke="white"/>
<path opacity="0.337255" d="M753 30H754V30.25V46.75V47H753V46.75V30.25V30Z" fill="white" stroke="white"/>
<path opacity="0.337255" d="M808 30H809V31H808V30Z" fill="white" stroke="white"/>
<path opacity="0.337255" d="M830 30H831V32H830V30Z" fill="white" stroke="white"/>
<path opacity="0.337255" d="M854 30H855V31H854V30Z" fill="white" stroke="white"/>
<path opacity="0.337255" d="M109 31H110V32H109V31Z" fill="white" stroke="white"/>
<path opacity="0.337255" d="M120 31H121V32H120V31Z" fill="white" stroke="white"/>
<g opacity="0.337255">
<path d="M229 31H230V32H231V33H230V32H229V32.25V35.75V36H228V35.75V32.25V32H229V31Z" fill="white"/>
<path d="M230 32V31H229V32M230 32H231V33H230V32ZM230 32H229M229 32V32.25V35.75V36H228V35.75V32.25V32H229Z" stroke="white"/>
</g>
<g opacity="0.337255">
<path d="M283 31H284V32H286V33H284V32H283V31Z" fill="white"/>
<path d="M284 32V31H283V32H284ZM284 32H286V33H284V32Z" stroke="white"/>
</g>
<path opacity="0.337255" d="M295 31H296V32H295V31Z" fill="white" stroke="white"/>
<path opacity="0.337255" d="M386 31H387V33H386V31Z" fill="white" stroke="white"/>
<path opacity="0.337255" d="M504 31H505V32H504V31Z" fill="white" stroke="white"/>
<g opacity="0.337255">
<path d="M602 31H603V32H604V33H603V32H602V31Z" fill="white"/>
<path d="M603 32V31H602V32H603ZM603 32H604V33H603V32Z" stroke="white"/>
</g>
<g opacity="0.337255">
<path d="M623 31H624V32H623V33H622V32H623V31Z" fill="white"/>
<path d="M623 32H624V31H623V32ZM623 32V33H622V32H623Z" stroke="white"/>
</g>
<path opacity="0.337255" d="M652 31H653V32H652V31Z" fill="white" stroke="white"/>
<g opacity="0.337255">
<path d="M679 31H681V32H679V33H678V32H679V31Z" fill="white"/>
<path d="M679 32H681V31H679V32ZM679 32V33H678V32H679Z" stroke="white"/>
</g>
<g opacity="0.337255">
<path d="M684 31H686V32H687V33H686V32H684V31Z" fill="white"/>
<path d="M686 32V31H684V32H686ZM686 32H687V33H686V32Z" stroke="white"/>
</g>
<g opacity="0.337255">
<path d="M776 31H777V31.25V58.75V59H776V60H775V59H776V58.75V31.25V31Z" fill="white"/>
<path d="M776 59H777V58.75V31.25V31H776V31.25V58.75V59ZM776 59V60H775V59H776Z" stroke="white"/>
</g>
<path opacity="0.337255" d="M105 32H106V33H105V32Z" fill="white" stroke="white"/>
<path opacity="0.337255" d="M118 32H119V33H118V32Z" fill="white" stroke="white"/>
<path opacity="0.337255" d="M245 32H246V34H245V32Z" fill="white" stroke="white"/>
<path opacity="0.337255" d="M308 32H309V34H308V32Z" fill="white" stroke="white"/>
<path opacity="0.337255" d="M346 32H347V33H346V32Z" fill="white" stroke="white"/>
<path opacity="0.337255" d="M410 32H411V34H410V32Z" fill="white" stroke="white"/>
<g opacity="0.337255">
<path d="M482 32H483V33H484V34H483V33H482V32Z" fill="white"/>
<path d="M483 33V32H482V33H483ZM483 33H484V34H483V33Z" stroke="white"/>
</g>
<g opacity="0.337255">
<path d="M506 32H507V33H508V34H507V33H506V32Z" fill="white"/>
<path d="M507 33V32H506V33H507ZM507 33H508V34H507V33Z" stroke="white"/>
</g>
<path opacity="0.337255" d="M845 32H847V33H845V32Z" fill="white" stroke="white"/>
<path opacity="0.337255" d="M15 33H16V33.25V38.75V39H15V38.75V33.25V33Z" fill="white" stroke="white"/>
<path opacity="0.337255" d="M101 33H102V34H101V33Z" fill="white" stroke="white"/>
<path opacity="0.337255" d="M115 33H116V34H115V33Z" fill="white" stroke="white"/>
<path opacity="0.337255" d="M274 33H275V34H274V33Z" fill="white" stroke="white"/>
<g opacity="0.337255">
<path d="M584 33H585V34H584V34.25V37.75V38H583V37.75V34.25V34H584V33Z" fill="white"/>
<path d="M584 34H585V33H584V34ZM584 34V34.25V37.75V38H583V37.75V34.25V34H584Z" stroke="white"/>
</g>
<path opacity="0.337255" d="M587 33H588V34H587V33Z" fill="white" stroke="white"/>
<path opacity="0.337255" d="M606 33H607V34H606V33Z" fill="white" stroke="white"/>
<path opacity="0.337255" d="M653 33H654V35H653V33Z" fill="white" stroke="white"/>
<g opacity="0.337255">
<path d="M764 33H766V34H764V35H763V34H764V33Z" fill="white"/>
<path d="M764 34H766V33H764V34ZM764 34V35H763V34H764Z" stroke="white"/>
</g>
<path opacity="0.337255" d="M97 34H99V35H97V34Z" fill="white" stroke="white"/>
<path opacity="0.337255" d="M113 34H114V35H113V34Z" fill="white" stroke="white"/>
<path opacity="0.337255" d="M231 34H232V34.25V36.75V37H231V36.75V34.25V34Z" fill="white" stroke="white"/>
<path opacity="0.337255" d="M240 34H241V35H240V34Z" fill="white" stroke="white"/>
<g opacity="0.337255">
<path d="M255 34H257V36H256V35H255V36H254V35H255V34Z" fill="white"/>
<path d="M255 35H256V36H257V34H255V35ZM255 35V36H254V35H255Z" stroke="white"/>
</g>
<path opacity="0.337255" d="M294 34H295V35H294V34Z" fill="white" stroke="white"/>
<path opacity="0.337255" d="M323 34H324V36H323V34Z" fill="white" stroke="white"/>
<path opacity="0.337255" d="M378 34H379V35H378V34Z" fill="white" stroke="white"/>
<path opacity="0.337255" d="M425 34H426V36H425V34Z" fill="white" stroke="white"/>
<path opacity="0.337255" d="M444 34H445V35H444V34Z" fill="white" stroke="white"/>
<path opacity="0.337255" d="M447 34H448V35H447V34Z" fill="white" stroke="white"/>
<path opacity="0.337255" d="M509 34H510V35H509V34Z" fill="white" stroke="white"/>
<g opacity="0.337255">
<path d="M529 34H531V35H532V36H531V35H529V34Z" fill="white"/>
<path d="M531 35V34H529V35H531ZM531 35H532V36H531V35Z" stroke="white"/>
</g>
<g opacity="0.337255">
<path d="M556 34H557V35H556V35.25V40.75V41H555V40.75V35.25V35H556V34Z" fill="white"/>
<path d="M556 35H557V34H556V35ZM556 35V35.25V40.75V41H555V40.75V35.25V35H556Z" stroke="white"/>
</g>
<path opacity="0.337255" d="M559 34H560V35H559V34Z" fill="white" stroke="white"/>
<path opacity="0.337255" d="M687 34H688V35H687V34Z" fill="white" stroke="white"/>
<path opacity="0.337255" d="M691 34H692V35H691V34Z" fill="white" stroke="white"/>
<path opacity="0.337255" d="M807 34H808V36H807V34Z" fill="white" stroke="white"/>
<path opacity="0.337255" d="M818 34H819V35H818V34Z" fill="white" stroke="white"/>
<g opacity="0.337255">
<path d="M820 34H821V35H822V36H823V37H824V38H823V37H822V36H821V35H820V34Z" fill="white"/>
<path d="M821 35V34H820V35H821ZM821 35H822V36M821 35V36H822M822 36H823V37M822 36V37H823M823 37H824V38H823V37Z" stroke="white"/>
</g>
<path opacity="0.337255" d="M830 34H831V35H830V34Z" fill="white" stroke="white"/>
<path opacity="0.337255" d="M843 34H844V34.25V37.75V38H843V37.75V34.25V34Z" fill="white" stroke="white"/>
<path opacity="0.337255" d="M9 35H10V36H9V35Z" fill="white" stroke="white"/>
<path opacity="0.337255" d="M94 35H95V36H94V35Z" fill="white" stroke="white"/>
<path opacity="0.337255" d="M111 35H112V36H111V35Z" fill="white" stroke="white"/>
<path opacity="0.337255" d="M347 35H348V36H347V35Z" fill="white" stroke="white"/>
<path opacity="0.337255" d="M385 35H386V37H385V35Z" fill="white" stroke="white"/>
<path opacity="0.337255" d="M486 35H487V36H486V35Z" fill="white" stroke="white"/>
<path opacity="0.337255" d="M511 35H512V36H511V35Z" fill="white" stroke="white"/>
<path opacity="0.337255" d="M608 35H609V37H608V35Z" fill="white" stroke="white"/>
<g opacity="0.337255">
<path d="M617 35H618V35.25V61.75V62H617V63H616V62H617V61.75V35.25V35Z" fill="white"/>
<path d="M617 62H618V61.75V35.25V35H617V35.25V61.75V62ZM617 62V63H616V62H617Z" stroke="white"/>
</g>
<path opacity="0.337255" d="M767 35H768V35.25V37.75V38H767V37.75V35.25V35Z" fill="white" stroke="white"/>
<path opacity="0.337255" d="M90 36H92V37H90V36Z" fill="white" stroke="white"/>
<path opacity="0.337255" d="M108 36H109V37H108V36Z" fill="white" stroke="white"/>
<path opacity="0.337255" d="M275 36H276V37H275V36Z" fill="white" stroke="white"/>
<path opacity="0.337255" d="M293 36H294V38H293V36Z" fill="white" stroke="white"/>
<g opacity="0.337255">
<path d="M315 36H317V37H315V39H314V37H315V36Z" fill="white"/>
<path d="M315 37H317V36H315V37ZM315 37V39H314V37H315Z" stroke="white"/>
</g>
<g opacity="0.337255">
<path d="M417 36H419V37H417V39H416V37H417V36Z" fill="white"/>
<path d="M417 37H419V36H417V37ZM417 37V39H416V37H417Z" stroke="white"/>
</g>
<path opacity="0.337255" d="M443 36H444V38H443V36Z" fill="white" stroke="white"/>
<path opacity="0.337255" d="M488 36H489V37H488V36Z" fill="white" stroke="white"/>
<g opacity="0.337255">
<path d="M527 36H528V36.25V41.75V42H529V43H528V42H527V41.75V36.25V36Z" fill="white"/>
<path d="M528 42V41.75V36.25V36H527V36.25V41.75V42H528ZM528 42H529V43H528V42Z" stroke="white"/>
</g>
<path opacity="0.337255" d="M654 36H655V37H654V36Z" fill="white" stroke="white"/>
<path opacity="0.337255" d="M828 36H829V37H828V36Z" fill="white" stroke="white"/>
<path opacity="0.337255" d="M86 37H88V38H86V37Z" fill="white" stroke="white"/>
<path opacity="0.337255" d="M106 37H107V38H106V37Z" fill="white" stroke="white"/>
<path opacity="0.337255" d="M241 37H242V38H241V37Z" fill="white" stroke="white"/>
<path opacity="0.337255" d="M244 37H245V38H244V37Z" fill="white" stroke="white"/>
<path opacity="0.337255" d="M253 37H254V38H253V37Z" fill="white" stroke="white"/>
<path opacity="0.337255" d="M257 37H258V37.25V44.75V45H257V44.75V37.25V37Z" fill="white" stroke="white"/>
<path opacity="0.337255" d="M307 37H308V39H307V37Z" fill="white" stroke="white"/>
<g opacity="0.337255">
<path d="M348 37H349V38H349.25H351.75H352V39H351.75H349.25H349V38H348V37Z" fill="white"/>
<path d="M349 38V37H348V38H349ZM349 38H349.25H351.75H352V39H351.75H349.25H349V38Z" stroke="white"/>
</g>
<path opacity="0.337255" d="M379 37H380V39H379V37Z" fill="white" stroke="white"/>
<path opacity="0.337255" d="M409 37H410V37.25V39.75V40H409V39.75V37.25V37Z" fill="white" stroke="white"/>
<g opacity="0.337255">
<path d="M434 37H435V37.25V62.75V63H436V64H435V63H434V62.75V37.25V37Z" fill="white"/>
<path d="M435 63V62.75V37.25V37H434V37.25V62.75V63H435ZM435 63H436V64H435V63Z" stroke="white"/>
</g>
<path opacity="0.337255" d="M513 37H514V38H513V37Z" fill="white" stroke="white"/>
<path opacity="0.337255" d="M518 37H519V37.25V61.75V62H518V61.75V37.25V37Z" fill="white" stroke="white"/>
<path opacity="0.337255" d="M560 37H561V37.25V50.75V51H560V50.75V37.25V37Z" fill="white" stroke="white"/>
<path opacity="0.337255" d="M657 37H658V39H656V38H657V37Z" fill="white" stroke="white"/>
<path opacity="0.337255" d="M790 37H791V37.25V51.75V52H790V51.75V37.25V37Z" fill="white" stroke="white"/>
<g opacity="0.337255">
<path d="M818 37H819V38H821V39H822V40H823V41H824V42H823V41H822V40H821V39H819V38H818V37Z" fill="white"/>
<path d="M819 38V37H818V38H819ZM819 38H821V39M819 38V39H821M821 39H822V40M821 39V40H822M822 40H823V41M822 40V41H823M823 41H824V42H823V41Z" stroke="white"/>
</g>
<path opacity="0.337255" d="M7 38H8V39H7V38Z" fill="white" stroke="white"/>
<path opacity="0.337255" d="M82 38H84V39H82V38Z" fill="white" stroke="white"/>
<path opacity="0.337255" d="M104 38H105V39H104V38Z" fill="white" stroke="white"/>
<path opacity="0.337255" d="M232 38H233V40H232V38Z" fill="white" stroke="white"/>
<path opacity="0.337255" d="M317 38H318V38.25V40.75V41H317V40.75V38.25V38Z" fill="white" stroke="white"/>
<path opacity="0.337255" d="M419 38H420V40H419V38Z" fill="white" stroke="white"/>
<path opacity="0.337255" d="M491 38H492V39H491V38Z" fill="white" stroke="white"/>
<path opacity="0.337255" d="M532 38H533V40H532V38Z" fill="white" stroke="white"/>
<g opacity="0.337255">
<path d="M587 38H588V39H587V40H585V39H587V38Z" fill="white"/>
<path d="M587 39H588V38H587V39ZM587 39V40H585V39H587Z" stroke="white"/>
</g>
<path opacity="0.337255" d="M671 38H672V38.25V57.75V58H671V57.75V38.25V38Z" fill="white" stroke="white"/>
<path opacity="0.337255" d="M79 39H80V40H79V39Z" fill="white" stroke="white"/>
<path opacity="0.337255" d="M102 39H103V40H102V39Z" fill="white" stroke="white"/>
<path opacity="0.337255" d="M242 39H244V40H242V39Z" fill="white" stroke="white"/>
<path opacity="0.337255" d="M276 39H277V40H276V39Z" fill="white" stroke="white"/>
<path opacity="0.337255" d="M292 39H293V41H292V39Z" fill="white" stroke="white"/>
<path opacity="0.337255" d="M324 39H325V39.25V41.75V42H324V41.75V39.25V39Z" fill="white" stroke="white"/>
<path opacity="0.337255" d="M426 39H427V41H426V39Z" fill="white" stroke="white"/>
<path opacity="0.337255" d="M444 39H445V40H444V39Z" fill="white" stroke="white"/>
<path opacity="0.337255" d="M447 39H448V40H447V39Z" fill="white" stroke="white"/>
<g opacity="0.337255">
<path d="M493 39H494V40H495V41H496V42H495V41H494V40H493V39Z" fill="white"/>
<path d="M494 40V39H493V40H494ZM494 40H495V41M494 40V41H495M495 41H496V42H495V41Z" stroke="white"/>
</g>
<path opacity="0.337255" d="M596 39H597V40H596V39Z" fill="white" stroke="white"/>
<g opacity="0.337255">
<path d="M844 39H845V40H847V41H845V40H844V39Z" fill="white"/>
<path d="M845 40V39H844V40H845ZM845 40H847V41H845V40Z" stroke="white"/>
</g>
<path opacity="0.337255" d="M6 40H7V41H6V40Z" fill="white" stroke="white"/>
<path opacity="0.337255" d="M75 40H77V41H75V40Z" fill="white" stroke="white"/>
<path opacity="0.337255" d="M99 40H100V41H99V40Z" fill="white" stroke="white"/>
<path opacity="0.337255" d="M384 40H385V42H384V40Z" fill="white" stroke="white"/>
<path opacity="0.337255" d="M541 40H542V40.25V45.75V46H541V45.75V40.25V40Z" fill="white" stroke="white"/>
<g opacity="0.337255">
<path d="M685 40H685.25H690.75H691V41H690.75H685.25H685V42H684V41H685V40Z" fill="white"/>
<path d="M685 41H685.25H690.75H691V40H690.75H685.25H685V41ZM685 41V42H684V41H685Z" stroke="white"/>
</g>
<path opacity="0.337255" d="M16 41H17V42H16V41Z" fill="white" stroke="white"/>
<path opacity="0.337255" d="M71 41H73V42H71V41Z" fill="white" stroke="white"/>
<path opacity="0.337255" d="M97 41H98V42H97V41Z" fill="white" stroke="white"/>
<path opacity="0.337255" d="M228 41H229V41.25V59.75V60H228V59.75V41.25V41Z" fill="white" stroke="white"/>
<path opacity="0.337255" d="M252 41H253V43H252V41Z" fill="white" stroke="white"/>
<g opacity="0.337255">
<path d="M456 41H457V42H456V44H455V42H456V41Z" fill="white"/>
<path d="M456 42H457V41H456V42ZM456 42V44H455V42H456Z" stroke="white"/>
</g>
<path opacity="0.337255" d="M595 41H596V42H595V41Z" fill="white" stroke="white"/>
<path opacity="0.337255" d="M692 41H693V42H692V41Z" fill="white" stroke="white"/>
<g opacity="0.337255">
<path d="M729 41H730V42H729V43H728V42H729V41Z" fill="white"/>
<path d="M729 42H730V41H729V42ZM729 42V43H728V42H729Z" stroke="white"/>
</g>
<g opacity="0.337255">
<path d="M736 41H737V42H738V43H737V42H736V41Z" fill="white"/>
<path d="M737 42V41H736V42H737ZM737 42H738V43H737V42Z" stroke="white"/>
</g>
<path opacity="0.337255" d="M762 41H763V41.25V51.75V52H762V51.75V41.25V41Z" fill="white" stroke="white"/>
<path opacity="0.337255" d="M853 41H854V43H853V41Z" fill="white" stroke="white"/>
<path opacity="0.337255" d="M5 42H6V43H5V42Z" fill="white" stroke="white"/>
<path opacity="0.337255" d="M67 42H69V43H67V42Z" fill="white" stroke="white"/>
<path opacity="0.337255" d="M94 42H95V43H94V42Z" fill="white" stroke="white"/>
<path opacity="0.337255" d="M277 42H278V43H277V42Z" fill="white" stroke="white"/>
<path opacity="0.337255" d="M291 42H292V44H291V42Z" fill="white" stroke="white"/>
<path opacity="0.337255" d="M306 42H307V44H306V42Z" fill="white" stroke="white"/>
<path opacity="0.337255" d="M313 42H314V44H313V42Z" fill="white" stroke="white"/>
<g opacity="0.337255">
<path d="M380 42H381V44H382V45H383V43H384V45H383V46H382V45H381V44H380V42Z" fill="white"/>
<path d="M381 44V42H380V44H381ZM381 44H382V45M381 44V45H382M382 45H383M382 45V46H383V45M383 45V43H384V45H383Z" stroke="white"/>
</g>
<g opacity="0.337255">
<path d="M390 42H392V43H393V44H392V43H390V42Z" fill="white"/>
<path d="M392 43V42H390V43H392ZM392 43H393V44H392V43Z" stroke="white"/>
</g>
<path opacity="0.337255" d="M415 42H416V44H415V42Z" fill="white" stroke="white"/>
<path opacity="0.337255" d="M497 42H498V43H497V42Z" fill="white" stroke="white"/>
<path opacity="0.337255" d="M825 42H826V43H825V42Z" fill="white" stroke="white"/>
<path opacity="0.337255" d="M64 43H65V44H64V43Z" fill="white" stroke="white"/>
<path opacity="0.337255" d="M92 43H93V44H92V43Z" fill="white" stroke="white"/>
<path opacity="0.337255" d="M233 43H234V45H233V43Z" fill="white" stroke="white"/>
<path opacity="0.337255" d="M318 43H319V43.25V46.75V47H318V46.75V43.25V43Z" fill="white" stroke="white"/>
<g opacity="0.337255">
<path d="M373 43H374V44H375V45H374V44H373V45H372V44H373V43Z" fill="white"/>
<path d="M374 44V43H373V44M374 44H375V45H374V44ZM374 44H373M373 44V45H372V44H373Z" stroke="white"/>
</g>
<path opacity="0.337255" d="M408 43H409V45H408V43Z" fill="white" stroke="white"/>
<path opacity="0.337255" d="M420 43H421V45H420V43Z" fill="white" stroke="white"/>
<path opacity="0.337255" d="M499 43H500V44H499V43Z" fill="white" stroke="white"/>
<path opacity="0.337255" d="M635 43H636V45H635V43Z" fill="white" stroke="white"/>
<path opacity="0.337255" d="M693 43H694V43.25V57.75V58H693V57.75V43.25V43Z" fill="white" stroke="white"/>
<path opacity="0.337255" d="M4 44H5V45H4V44Z" fill="white" stroke="white"/>
<path opacity="0.337255" d="M60 44H62V45H60V44Z" fill="white" stroke="white"/>
<path opacity="0.337255" d="M90 44H91V45H90V44Z" fill="white" stroke="white"/>
<path opacity="0.337255" d="M427 44H428V46H427V44Z" fill="white" stroke="white"/>
<path opacity="0.337255" d="M489 44H489.25H491.75H492V45H491.75H489.25H489V44Z" fill="white" stroke="white"/>
<path opacity="0.337255" d="M494 44H495V45H494V44Z" fill="white" stroke="white"/>
<path opacity="0.337255" d="M595 44H596V45H595V44Z" fill="white" stroke="white"/>
<path opacity="0.337255" d="M811 44H812V45H811V44Z" fill="white" stroke="white"/>
<path opacity="0.337255" d="M828 44H829V45H828V44Z" fill="white" stroke="white"/>
<g opacity="0.337255">
<path d="M18 45H19V46H20V47H21V48H20V47H19V46H18V45Z" fill="white"/>
<path d="M19 46V45H18V46H19ZM19 46H20V47M19 46V47H20M20 47H21V48H20V47Z" stroke="white"/>
</g>
<path opacity="0.337255" d="M56 45H58V46H56V45Z" fill="white" stroke="white"/>
<path opacity="0.337255" d="M87 45H88V46H87V45Z" fill="white" stroke="white"/>
<path opacity="0.337255" d="M278 45H279V46H278V45Z" fill="white" stroke="white"/>
<path opacity="0.337255" d="M290 45H291V46H290V45Z" fill="white" stroke="white"/>
<path opacity="0.337255" d="M325 45H326V47H325V45Z" fill="white" stroke="white"/>
<path opacity="0.337255" d="M389 45H390V45.25V47.75V48H389V47.75V45.25V45Z" fill="white" stroke="white"/>
<path opacity="0.337255" d="M455 45H456V46H455V45Z" fill="white" stroke="white"/>
<g opacity="0.337255">
<path d="M483 45H485V46H483V48H482V46H483V45Z" fill="white"/>
<path d="M483 46H485V45H483V46ZM483 46V48H482V46H483Z" stroke="white"/>
</g>
<path opacity="0.337255" d="M684 45H685V46H684V45Z" fill="white" stroke="white"/>
<path opacity="0.337255" d="M813 45H814V46H813V45Z" fill="white" stroke="white"/>
<path opacity="0.337255" d="M853 45H854V46H853V45Z" fill="white" stroke="white"/>
<path opacity="0.337255" d="M3 46H4V47H3V46Z" fill="white" stroke="white"/>
<path opacity="0.337255" d="M52 46H54V47H52V46Z" fill="white" stroke="white"/>
<path opacity="0.337255" d="M85 46H86V47H85V46Z" fill="white" stroke="white"/>
<path opacity="0.337255" d="M251 46H252V48H251V46Z" fill="white" stroke="white"/>
<path opacity="0.337255" d="M546 46H547V46.25V58.75V59H546V58.75V46.25V46Z" fill="white" stroke="white"/>
<path opacity="0.337255" d="M596 46H597V47H596V46Z" fill="white" stroke="white"/>
<path opacity="0.337255" d="M748 46H749V46.25V48.75V49H748V48.75V46.25V46Z" fill="white" stroke="white"/>
<path opacity="0.337255" d="M830 46H831V46.25V58.75V59H830V58.75V46.25V46Z" fill="white" stroke="white"/>
<path opacity="0.337255" d="M49 47H50V48H49V47Z" fill="white" stroke="white"/>
<path opacity="0.337255" d="M83 47H84V48H83V47Z" fill="white" stroke="white"/>
<path opacity="0.337255" d="M279 47H280V49H279V47Z" fill="white" stroke="white"/>
<g opacity="0.337255">
<path d="M313 47H314V48H315V49H314V48H313V47Z" fill="white"/>
<path d="M314 48V47H313V48H314ZM314 48H315V49H314V48Z" stroke="white"/>
</g>
<g opacity="0.337255">
<path d="M415 47H416V48H417V49H416V48H415V47Z" fill="white"/>
<path d="M416 48V47H415V48H416ZM416 48H417V49H416V48Z" stroke="white"/>
</g>
<g opacity="0.337255">
<path d="M420 47H421V48H420V49H418V48H420V47Z" fill="white"/>
<path d="M420 48H421V47H420V48ZM420 48V49H418V48H420Z" stroke="white"/>
</g>
<path opacity="0.337255" d="M540 47H541V48H540V47Z" fill="white" stroke="white"/>
<path opacity="0.337255" d="M585 47H586V48H585V47Z" fill="white" stroke="white"/>
<g opacity="0.337255">
<path d="M816 47H817V48H818V49H820V50H821V51H822V51.25V54.75V55H821V56H820V55H821V54.75V51.25V51H820V50H818V49H817V48H816V47Z" fill="white"/>
<path d="M817 48V47H816V48H817ZM817 48H818V49M817 48V49H818M818 49H820V50M818 49V50H820M820 50H821V51M820 50V51H821M821 51H822V51.25V54.75V55H821M821 51V51.25V54.75V55M821 55V56H820V55H821Z" stroke="white"/>
</g>
<path opacity="0.337255" d="M845 47H845.25H847.75H848V48H847.75H845.25H845V47Z" fill="white" stroke="white"/>
<path opacity="0.337255" d="M45 48H47V49H45V48Z" fill="white" stroke="white"/>
<path opacity="0.337255" d="M80 48H81V49H80V48Z" fill="white" stroke="white"/>
<path opacity="0.337255" d="M234 48H235V49H234V48Z" fill="white" stroke="white"/>
<path opacity="0.337255" d="M266 48H267V48.25V61.75V62H266V61.75V48.25V48Z" fill="white" stroke="white"/>
<path opacity="0.337255" d="M289 48H290V50H289V48Z" fill="white" stroke="white"/>
<path opacity="0.337255" d="M305 48H306V50H305V48Z" fill="white" stroke="white"/>
<path opacity="0.337255" d="M317 48H318V49H317V48Z" fill="white" stroke="white"/>
<path opacity="0.337255" d="M365 48H366V48.25V50.75V51H365V50.75V48.25V48Z" fill="white" stroke="white"/>
<path opacity="0.337255" d="M371 48H372V50H371V48Z" fill="white" stroke="white"/>
<path opacity="0.337255" d="M375 48H376V50H375V48Z" fill="white" stroke="white"/>
<path opacity="0.337255" d="M445 48H446V49H445V48Z" fill="white" stroke="white"/>
<path opacity="0.337255" d="M574 48H575V48.25V51.75V52H574V51.75V48.25V48Z" fill="white" stroke="white"/>
<path opacity="0.337255" d="M587 48H588V49H587V48Z" fill="white" stroke="white"/>
<path opacity="0.337255" d="M640 48H641V48.25V61.75V62H640V61.75V48.25V48Z" fill="white" stroke="white"/>
<path opacity="0.337255" d="M2 49H3V50H2V49Z" fill="white" stroke="white"/>
<path opacity="0.337255" d="M23 49H24V50H23V49Z" fill="white" stroke="white"/>
<path opacity="0.337255" d="M41 49H43V50H41V49Z" fill="white" stroke="white"/>
<path opacity="0.337255" d="M78 49H79V50H78V49Z" fill="white" stroke="white"/>
<path opacity="0.337255" d="M399 49H400V49.25V61.75V62H399V61.75V49.25V49Z" fill="white" stroke="white"/>
<path opacity="0.337255" d="M407 49H408V51H407V49Z" fill="white" stroke="white"/>
<path opacity="0.337255" d="M447 49H448V50H447V49Z" fill="white" stroke="white"/>
<g opacity="0.337255">
<path d="M495 49H496V51H497V52H496V51H495V49Z" fill="white"/>
<path d="M496 51V49H495V51H496ZM496 51H497V52H496V51Z" stroke="white"/>
</g>
<path opacity="0.337255" d="M583 49H584V51H583V49Z" fill="white" stroke="white"/>
<path opacity="0.337255" d="M843 49H844V51H843V49Z" fill="white" stroke="white"/>
<path opacity="0.337255" d="M26 50H26.25H29.75H30V51H29.75H26.25H26V50Z" fill="white" stroke="white"/>
<path opacity="0.337255" d="M34 50H34.25H37.75H38V51H37.75H34.25H34V50Z" fill="white" stroke="white"/>
<path opacity="0.337255" d="M75 50H76V51H75V50Z" fill="white" stroke="white"/>
<path opacity="0.337255" d="M250 50H251V52H250V50Z" fill="white" stroke="white"/>
<g opacity="0.337255">
<path d="M343 50H344V51H343V53H342V51H343V50Z" fill="white"/>
<path d="M343 51H344V50H343V51ZM343 51V53H342V51H343Z" stroke="white"/>
</g>
<path opacity="0.337255" d="M388 50H389V52H388V50Z" fill="white" stroke="white"/>
<path opacity="0.337255" d="M428 50H429V52H428V50Z" fill="white" stroke="white"/>
<path opacity="0.337255" d="M443 50H444V52H443V50Z" fill="white" stroke="white"/>
<path opacity="0.337255" d="M500 50H501V51H500V50Z" fill="white" stroke="white"/>
<path opacity="0.337255" d="M537 50H538V51H537V50Z" fill="white" stroke="white"/>
<g opacity="0.337255">
<path d="M649 50H651V51H652V52H651V51H649V50Z" fill="white"/>
<path d="M651 51V50H649V51H651ZM651 51H652V52H651V51Z" stroke="white"/>
</g>
<path opacity="0.337255" d="M753 50H754V50.25V56.75V57H753V56.75V50.25V50Z" fill="white" stroke="white"/>
<g opacity="0.337255">
<path d="M814 50H816V51H817V52H816V51H814V50Z" fill="white"/>
<path d="M816 51V50H814V51H816ZM816 51H817V52H816V51Z" stroke="white"/>
</g>
<path opacity="0.337255" d="M73 51H74V52H73V51Z" fill="white" stroke="white"/>
<path opacity="0.337255" d="M326 51H327V52H326V51Z" fill="white" stroke="white"/>
<path opacity="0.337255" d="M530 51H530.25H534.75H535V52H534.75H530.25H530V51Z" fill="white" stroke="white"/>
<path opacity="0.337255" d="M767 51H768V53H767V51Z" fill="white" stroke="white"/>
<path opacity="0.337255" d="M810 51H811V52H810V51Z" fill="white" stroke="white"/>
<path opacity="0.337255" d="M71 52H72V53H71V52Z" fill="white" stroke="white"/>
<path opacity="0.337255" d="M235 52H236V53H235V52Z" fill="white" stroke="white"/>
<path opacity="0.337255" d="M345 52H346V53H345V52Z" fill="white" stroke="white"/>
<path opacity="0.337255" d="M376 52H377V54H376V52Z" fill="white" stroke="white"/>
<g opacity="0.337255">
<path d="M528 52H529V53H528V53.25V59.75V60H527V59.75V53.25V53H528V52Z" fill="white"/>
<path d="M528 53H529V52H528V53ZM528 53V53.25V59.75V60H527V59.75V53.25V53H528Z" stroke="white"/>
</g>
<path opacity="0.337255" d="M555 52H556V54H555V52Z" fill="white" stroke="white"/>
<path opacity="0.337255" d="M648 52H649V52.25V59.75V60H648V59.75V52.25V52Z" fill="white" stroke="white"/>
<path opacity="0.337255" d="M808 52H809V53H808V52Z" fill="white" stroke="white"/>
<path opacity="0.337255" d="M1 53H2V55H1V53Z" fill="white" stroke="white"/>
<path opacity="0.337255" d="M68 53H69V54H68V53Z" fill="white" stroke="white"/>
<path opacity="0.337255" d="M304 53H305V53.25V55.75V56H304V55.75V53.25V53Z" fill="white" stroke="white"/>
<path opacity="0.337255" d="M406 53H407V53.25V55.75V56H406V55.75V53.25V53Z" fill="white" stroke="white"/>
<path opacity="0.337255" d="M652 53H653V54H652V53Z" fill="white" stroke="white"/>
<g opacity="0.337255">
<path d="M791 53H792V54H793V55H792V54H791V53Z" fill="white"/>
<path d="M792 54V53H791V54H792ZM792 54H793V55H792V54Z" stroke="white"/>
</g>
<g opacity="0.337255">
<path d="M795 53H796V54H795V55H794V54H795V53Z" fill="white"/>
<path d="M795 54H796V53H795V54ZM795 54V55H794V54H795Z" stroke="white"/>
</g>
<path opacity="0.337255" d="M66 54H67V55H66V54Z" fill="white" stroke="white"/>
<g opacity="0.337255">
<path d="M257 54H258V54.25V61.75V62H259V63H258V62H257V61.75V54.25V54Z" fill="white"/>
<path d="M258 62V61.75V54.25V54H257V54.25V61.75V62H258ZM258 62H259V63H258V62Z" stroke="white"/>
</g>
<path opacity="0.337255" d="M346 54H347V55H346V54Z" fill="white" stroke="white"/>
<g opacity="0.337255">
<path d="M559 54H560V55H559V56H558.75H556.25H556V55H556.25H558.75H559V54Z" fill="white"/>
<path d="M559 55H560V54H559V55ZM559 55V56H558.75H556.25H556V55H556.25H558.75H559Z" stroke="white"/>
</g>
<path opacity="0.337255" d="M569 54H570V54.25V57.75V58H569V57.75V54.25V54Z" fill="white" stroke="white"/>
<g opacity="0.337255">
<path d="M686 54H687V56H686V57H685V56H686V54Z" fill="white"/>
<path d="M686 56H687V54H686V56ZM686 56V57H685V56H686Z" stroke="white"/>
</g>
<g opacity="0.337255">
<path d="M763 54H764V55H766V54H767V55H766V56H764V55H763V54Z" fill="white"/>
<path d="M764 55V54H763V55H764ZM764 55H766M764 55V56H766V55M766 55V54H767V55H766Z" stroke="white"/>
</g>
<g opacity="0.337255">
<path d="M817 54H818V55H819V56H818V55H817V54Z" fill="white"/>
<path d="M818 55V54H817V55H818ZM818 55H819V56H818V55Z" stroke="white"/>
</g>
<path opacity="0.337255" d="M843 54H844V55H843V54Z" fill="white" stroke="white"/>
<path opacity="0.337255" d="M64 55H65V56H64V55Z" fill="white" stroke="white"/>
<path opacity="0.337255" d="M249 55H250V57H249V55Z" fill="white" stroke="white"/>
<path opacity="0.337255" d="M280 55H281V55.25V57.75V58H280V57.75V55.25V55Z" fill="white" stroke="white"/>
<path opacity="0.337255" d="M314 55H315V56H314V55Z" fill="white" stroke="white"/>
<path opacity="0.337255" d="M316 55H318V56H316V55Z" fill="white" stroke="white"/>
<path opacity="0.337255" d="M387 55H388V56H387V55Z" fill="white" stroke="white"/>
<g opacity="0.337255">
<path d="M415 55H416V56H415V57H414V56H415V55Z" fill="white"/>
<path d="M415 56H416V55H415V56ZM415 56V57H414V56H415Z" stroke="white"/>
</g>
<g opacity="0.337255">
<path d="M420 55H421V56H422V57H421V56H420V55Z" fill="white"/>
<path d="M421 56V55H420V56H421ZM421 56H422V57H421V56Z" stroke="white"/>
</g>
<path opacity="0.337255" d="M429 55H430V55.25V57.75V58H429V57.75V55.25V55Z" fill="white" stroke="white"/>
<path opacity="0.337255" d="M678 55H679V56H678V55Z" fill="white" stroke="white"/>
<path opacity="0.337255" d="M61 56H62V57H61V56Z" fill="white" stroke="white"/>
<path opacity="0.337255" d="M236 56H237V57H236V56Z" fill="white" stroke="white"/>
<path opacity="0.337255" d="M312 56H313V57H312V56Z" fill="white" stroke="white"/>
<path opacity="0.337255" d="M327 56H328V58H327V56Z" fill="white" stroke="white"/>
<path opacity="0.337255" d="M482 56H483V57H482V56Z" fill="white" stroke="white"/>
<path opacity="0.337255" d="M653 56H654V57H653V56Z" fill="white" stroke="white"/>
<path opacity="0.337255" d="M845 56H845.25H851.75H852V57H851.75H845.25H845V56Z" fill="white" stroke="white"/>
<path opacity="0.337255" d="M1 57H2V57.25V59.75V60H1V59.75V57.25V57Z" fill="white" stroke="white"/>
<path opacity="0.337255" d="M59 57H60V58H59V57Z" fill="white" stroke="white"/>
<path opacity="0.337255" d="M319 57H320V58H319V57Z" fill="white" stroke="white"/>
<path opacity="0.337255" d="M347 57H348V58H347V57Z" fill="white" stroke="white"/>
<path opacity="0.337255" d="M377 57H378V58H377V57Z" fill="white" stroke="white"/>
<g opacity="0.337255">
<path d="M513 57H514V58H513V59H512V60H511V61H510V62H509V63H508V62H509V61H510V60H511V59H512V58H513V57Z" fill="white"/>
<path d="M513 58H514V57H513V58ZM513 58V59H512M513 58H512V59M512 59V60H511M512 59H511V60M511 60V61H510M511 60H510V61M510 61V62H509M510 61H509V62M509 62V63H508V62H509Z" stroke="white"/>
</g>
<path opacity="0.337255" d="M680 57H680.25H683.75H684V58H683.75H680.25H680V57Z" fill="white" stroke="white"/>
<path opacity="0.337255" d="M854 57H855V57.25V61.75V62H854V61.75V57.25V57Z" fill="white" stroke="white"/>
<path opacity="0.337255" d="M56 58H57V59H56V58Z" fill="white" stroke="white"/>
<path opacity="0.337255" d="M311 58H312V59H311V58Z" fill="white" stroke="white"/>
<path opacity="0.337255" d="M360 58H361V58.25V61.75V62H360V61.75V58.25V58Z" fill="white" stroke="white"/>
<path opacity="0.337255" d="M413 58H414V60H413V58Z" fill="white" stroke="white"/>
<path opacity="0.337255" d="M448 58H449V58.25V62.75V63H448V62.75V58.25V58Z" fill="white" stroke="white"/>
<path opacity="0.337255" d="M654 58H655V59H654V58Z" fill="white" stroke="white"/>
<path opacity="0.337255" d="M54 59H55V60H54V59Z" fill="white" stroke="white"/>
<path opacity="0.337255" d="M248 59H249V61H248V59Z" fill="white" stroke="white"/>
<path opacity="0.337255" d="M303 59H304V59.25V62.75V63H303V62.75V59.25V59Z" fill="white" stroke="white"/>
<path opacity="0.337255" d="M348 59H349V60H348V59Z" fill="white" stroke="white"/>
<path opacity="0.337255" d="M386 59H387V61H386V59Z" fill="white" stroke="white"/>
<path opacity="0.337255" d="M405 59H406V59.25V61.75V62H405V61.75V59.25V59Z" fill="white" stroke="white"/>
<g opacity="0.337255">
<path d="M484 59H485V60H486V61H485V60H484V59Z" fill="white"/>
<path d="M485 60V59H484V60H485ZM485 60H486V61H485V60Z" stroke="white"/>
</g>
<path opacity="0.337255" d="M568 59H569V60H568V59Z" fill="white" stroke="white"/>
<path opacity="0.337255" d="M574 59H575V59.25V61.75V62H574V61.75V59.25V59Z" fill="white" stroke="white"/>
<path opacity="0.337255" d="M692 59H693V60H692V59Z" fill="white" stroke="white"/>
<g opacity="0.337255">
<path d="M754 59H755V60H756V61H757V62H758V63H757V62H756V61H755V60H754V59Z" fill="white"/>
<path d="M755 60V59H754V60H755ZM755 60H756V61M755 60V61H756M756 61H757V62M756 61V62H757M757 62H758V63H757V62Z" stroke="white"/>
</g>
<g opacity="0.337255">
<path d="M803 59H804V60H803V61H802V62H801V61H802V60H803V59Z" fill="white"/>
<path d="M803 60H804V59H803V60ZM803 60V61H802M803 60H802V61M802 61V62H801V61H802Z" stroke="white"/>
</g>
<g opacity="0.337255">
<path d="M808 59H809V60H810V61H809V60H808V59Z" fill="white"/>
<path d="M809 60V59H808V60H809ZM809 60H810V61H809V60Z" stroke="white"/>
</g>
<path opacity="0.337255" d="M52 60H53V61H52V60Z" fill="white" stroke="white"/>
<g opacity="0.337255">
<path d="M237 60H238V62H239V63H238V62H237V60Z" fill="white"/>
<path d="M238 62V60H237V62H238ZM238 62H239V63H238V62Z" stroke="white"/>
</g>
<g opacity="0.337255">
<path d="M320 60H321V62H322V63H321V62H320V60Z" fill="white"/>
<path d="M321 62V60H320V62H321ZM321 62H322V63H321V62Z" stroke="white"/>
</g>
<path opacity="0.337255" d="M422 60H423V61H422V60Z" fill="white" stroke="white"/>
<g opacity="0.337255">
<path d="M547 60H548V61H549V62H550V63H549V62H548V61H547V60Z" fill="white"/>
<path d="M548 61V60H547V61H548ZM548 61H549V62M548 61V62H549M549 62H550V63H549V62Z" stroke="white"/>
</g>
<path opacity="0.337255" d="M655 60H656V61H655V60Z" fill="white" stroke="white"/>
<g opacity="0.337255">
<path d="M783 60H784V61H785V62H784V61H783V60Z" fill="white"/>
<path d="M784 61V60H783V61H784ZM784 61H785V62H784V61Z" stroke="white"/>
</g>
<path opacity="0.337255" d="M829 60H830V61H829V60Z" fill="white" stroke="white"/>
<path opacity="0.337255" d="M2 61H3V63H2V61Z" fill="white" stroke="white"/>
<path opacity="0.337255" d="M50 61H51V62H50V61Z" fill="white" stroke="white"/>
<path opacity="0.337255" d="M378 61H379V62H378V61Z" fill="white" stroke="white"/>
<path opacity="0.337255" d="M588 61H589V62H588V61Z" fill="white" stroke="white"/>
<g opacity="0.337255">
<path d="M609 61H610V62H611V63H610V62H609V61Z" fill="white"/>
<path d="M610 62V61H609V62H610ZM610 62H611V63H610V62Z" stroke="white"/>
</g>
<path opacity="0.337255" d="M673 61H674V62H673V61Z" fill="white" stroke="white"/>
<path opacity="0.337255" d="M47 62H48V63H47V62Z" fill="white" stroke="white"/>
<path opacity="0.337255" d="M219 62H220V63H219V62Z" fill="white" stroke="white"/>
<path opacity="0.337255" d="M227 62H228V63H227V62Z" fill="white" stroke="white"/>
<path opacity="0.337255" d="M246 62H247V63H246V62Z" fill="white" stroke="white"/>
<g opacity="0.337255">
<path d="M280 62H281V63H283V64H281V63H280V62Z" fill="white"/>
<path d="M281 63V62H280V63H281ZM281 63H283V64H281V63Z" stroke="white"/>
</g>
<g opacity="0.337255">
<path d="M288 62H289V63H288V64H287V63H288V62Z" fill="white"/>
<path d="M288 63H289V62H288V63ZM288 63V64H287V63H288Z" stroke="white"/>
</g>
<g opacity="0.337255">
<path d="M349 62H350V63H351V64H350V63H349V62Z" fill="white"/>
<path d="M350 63V62H349V63H350ZM350 63H351V64H350V63Z" stroke="white"/>
</g>
<path opacity="0.337255" d="M365 62H366V63H365V62Z" fill="white" stroke="white"/>
<path opacity="0.337255" d="M371 62H372V63H371V62Z" fill="white" stroke="white"/>
<g opacity="0.337255">
<path d="M385 62H386V63H385V64H383V63H385V62Z" fill="white"/>
<path d="M385 63H386V62H385V63ZM385 63V64H383V63H385Z" stroke="white"/>
</g>
<g opacity="0.337255">
<path d="M393 62H394V63H394.25H397.75H398V64H397.75H394.25H394V63H393V62Z" fill="white"/>
<path d="M394 63V62H393V63H394ZM394 63H394.25H397.75H398V64H397.75H394.25H394V63Z" stroke="white"/>
</g>
<path opacity="0.337255" d="M423 62H424V63H423V62Z" fill="white" stroke="white"/>
<path opacity="0.337255" d="M429 62H430V63H429V62Z" fill="white" stroke="white"/>
<path opacity="0.337255" d="M442 62H443V63H442V62Z" fill="white" stroke="white"/>
<path opacity="0.337255" d="M488 62H489V63H488V62Z" fill="white" stroke="white"/>
<g opacity="0.337255">
<path d="M565 62H566V63H565V64H563V63H565V62Z" fill="white"/>
<path d="M565 63H566V62H565V63ZM565 63V64H563V63H565Z" stroke="white"/>
</g>
<path opacity="0.337255" d="M582 62H583V63H582V62Z" fill="white" stroke="white"/>
<path opacity="0.337255" d="M596 62H597V63H596V62Z" fill="white" stroke="white"/>
<g opacity="0.337255">
<path d="M635 62H636V63H635V64H634.75H629.25H629V63H629.25H634.75H635V62Z" fill="white"/>
<path d="M635 63H636V62H635V63ZM635 63V64H634.75H629.25H629V63H629.25H634.75H635Z" stroke="white"/>
</g>
<path opacity="0.337255" d="M647 62H648V63H647V62Z" fill="white" stroke="white"/>
<g opacity="0.337255">
<path d="M656 62H657V63H658V64H657V63H656V62Z" fill="white"/>
<path d="M657 63V62H656V63H657ZM657 63H658V64H657V63Z" stroke="white"/>
</g>
<g opacity="0.337255">
<path d="M748 62H749V63H748V64H747V63H748V62Z" fill="white"/>
<path d="M748 63H749V62H748V63ZM748 63V64H747V63H748Z" stroke="white"/>
</g>
<path opacity="0.337255" d="M772 62H773V63H772V62Z" fill="white" stroke="white"/>
<path opacity="0.337255" d="M786 62H787V63H786V62Z" fill="white" stroke="white"/>
<g opacity="0.337255">
<path d="M827 62H828V63H827V64H826V63H827V62Z" fill="white"/>
<path d="M827 63H828V62H827V63ZM827 63V64H826V63H827Z" stroke="white"/>
</g>
<path opacity="0.337255" d="M836 62H837V63H836V62Z" fill="white" stroke="white"/>
<path opacity="0.337255" d="M45 63H46V64H45V63Z" fill="white" stroke="white"/>
<path opacity="0.337255" d="M324 63H325V64H324V63Z" fill="white" stroke="white"/>
<path opacity="0.337255" d="M334 63H335V64H334V63Z" fill="white" stroke="white"/>
<path opacity="0.337255" d="M341 63H342V64H341V63Z" fill="white" stroke="white"/>
<path opacity="0.337255" d="M359 63H360V64H359V63Z" fill="white" stroke="white"/>
<path opacity="0.337255" d="M367 63H367.25H369.75H370V64H369.75H367.25H367V63Z" fill="white" stroke="white"/>
<path opacity="0.337255" d="M380 63H381V64H380V63Z" fill="white" stroke="white"/>
<path opacity="0.337255" d="M456 63H457V64H456V63Z" fill="white" stroke="white"/>
<path opacity="0.337255" d="M492 63H492.25H505.75H506V64H505.75H492.25H492V63Z" fill="white" stroke="white"/>
<path opacity="0.337255" d="M519 63H520V64H519V63Z" fill="white" stroke="white"/>
<path opacity="0.337255" d="M526 63H527V64H526V63Z" fill="white" stroke="white"/>
<path opacity="0.337255" d="M551 63H551.25H556.75H557V64H556.75H551.25H551V63Z" fill="white" stroke="white"/>
<path opacity="0.337255" d="M590 63H590.25H594.75H595V64H594.75H590.25H590V63Z" fill="white" stroke="white"/>
<path opacity="0.337255" d="M642 63H642.25H645.75H646V64H645.75H642.25H642V63Z" fill="white" stroke="white"/>
<path opacity="0.337255" d="M664 63H665V64H664V63Z" fill="white" stroke="white"/>
<path opacity="0.337255" d="M682 63H682.25H687.75H688V64H687.75H682.25H682V63Z" fill="white" stroke="white"/>
<path opacity="0.337255" d="M718 63H719V64H718V63Z" fill="white" stroke="white"/>
<path opacity="0.337255" d="M726 63H727V64H726V63Z" fill="white" stroke="white"/>
<path opacity="0.337255" d="M738 63H739V64H738V63Z" fill="white" stroke="white"/>
<path opacity="0.337255" d="M762 63H762.25H770.75H771V64H770.75H762.25H762V63Z" fill="white" stroke="white"/>
<path opacity="0.337255" d="M812 63H814V64H812V63Z" fill="white" stroke="white"/>
<path opacity="0.337255" d="M838 63H838.25H853.75H854V64H853.75H838.25H838V63Z" fill="white" stroke="white"/>
<path opacity="0.337255" d="M42 64H43V65H42V64Z" fill="white" stroke="white"/>
<path opacity="0.337255" d="M336 64H336.25H338.75H339V65H338.75H336.25H336V64Z" fill="white" stroke="white"/>
<path opacity="0.337255" d="M352 64H352.25H357.75H358V65H357.75H352.25H352V64Z" fill="white" stroke="white"/>
<path opacity="0.337255" d="M451 64H451.25H453.75H454V65H453.75H451.25H451V64Z" fill="white" stroke="white"/>
<path opacity="0.337255" d="M522 64H523V65H522V64Z" fill="white" stroke="white"/>
<g opacity="0.337255">
<path d="M4 65H5V66H6V67H7V68H6V67H5V66H4V65Z" fill="white"/>
<path d="M5 66V65H4V66H5ZM5 66H6V67M5 66V67H6M6 67H7V68H6V67Z" stroke="white"/>
</g>
<path opacity="0.337255" d="M40 65H41V66H40V65Z" fill="white" stroke="white"/>
<path opacity="0.337255" d="M38 66H39V67H38V66Z" fill="white" stroke="white"/>
<path opacity="0.337255" d="M35 67H36V68H35V67Z" fill="white" stroke="white"/>
<path opacity="0.337255" d="M32 68H33V69H32V68Z" fill="white" stroke="white"/>
<path opacity="0.337255" d="M9 69H10V70H9V69Z" fill="white" stroke="white"/>
<path opacity="0.337255" d="M28 69H30V70H28V69Z" fill="white" stroke="white"/>
<path opacity="0.337255" d="M12 70H14V71H12V70Z" fill="white" stroke="white"/>
<path opacity="0.337255" d="M23 70H23.25H25.75H26V71H25.75H23.25H23V70Z" fill="white" stroke="white"/>
<path opacity="0.337255" d="M181 80H182V81H181V80Z" fill="white" stroke="white"/>
<path opacity="0.996078" d="M179 1H181V2H182V2.25V79.75V80H181V81H179V80.75V1.25V1Z" fill="white" stroke="white"/>
<path opacity="0.996078" d="M220 9H220.25H233.75H234V10H235V12H236V12.25V16.75V17H237V17.25V20.75V21H238V21.25V24.75V25H239V25.25V29.75V30H240V30.25V34.75V35H241V35.25V37.75V38H242V40H244V38H245V37.75V34.25V34H246V33.75V29.25V29H247V28.75V24.25V24H248V23.75V19.25V19H249V18.75V14.25V14H250V13.75V11.25V11H251V10H252V9H252.25H264.75H265V10H266V11H267V11.25V47.75V48H266V48.25V62.75V63H265.75H259.25H259V62H258V61.75V54.25V54H257V53.75V45.25V45H258V44.75V37.25V37H257V36.75V34.25V34H255V35H254V37H253V37.25V40.75V41H252V41.25V45.75V46H251V46.25V49.75V50H250V50.25V54.75V55H249V55.25V58.75V59H248V59.25V61.75V62H246V63H245.75H239.25H239V62H238V60H237V59.75V56.25V56H236V55.75V52.25V52H235V51.75V48.25V48H234V47.75V43.25V43H233V42.75V38.25V38H232V37.75V34.25V34H231V32H230V31H229V32H228V32.25V61.75V62H227V63H226.75H220.25H220V62H219V61.75V10.25V10H220V9Z" fill="white" stroke="white"/>
<path opacity="0.996078" d="M488 10H488.25H507.75H508V11H510V12H511V13H512V14H513V16H514V16.25V22.75V23H513V24H511V25H510.75H506.25H506V26H505.75H502.25H502V24H501V23.75V21.25V21C500.75 21 500.167 21 499.25 21H499V20H497V21H495V21.25V25.75V26H496V27H498V28H500V29H501V30H503V31H504V32H506V33H507V34H509V35C509.25 35 509.833 35 510.75 35H511V36H513V38H514V38.25V56.75V57H513V58H512V59H511V60H510V61H509V62H508V63H507.75H489.25H489V62H487V61H486V60H485V59H484V58H483V56H482V55.75V48.25V48H483V46H485V45H485.25H491.75H492V44H494V45H495V45.25V50.75V51H496V52H496.25H499.75H500V51H501V50.75V45.25V45H500V43C499.75 43 499.167 43 498.25 43H498V42H496V41H495V40H494V39C493.75 39 493.167 39 492.25 39H492V38H490V37H489V36C488.75 36 488.167 36 487.25 36H487V35H485V34H484V33H483V32H482V31.75V17.25V17H483V15H484V14H485V13H486V12H487V11H488V10Z" fill="white" stroke="white"/>
<path opacity="0.996078" d="M719 10H719.25H726.75H727V11H728V11.25V28.75V29H729V30H729.25H736.75H737V29H738V28.75V12.25V12H739V11H740V10H740.25H745.75H746V11C746.25 11 746.833 11 747.75 11C748 10.9167 748.083 11 748 11.25V15.75V16H749V16.25V21.75V22H748V22.25V39.75V40H749V40.25V45.75V46H748V46.25V48.75V49H749V49.25V61.75V62H748V63H747V64H746.75H739.25H739V63H738V62.75V42.25V42H737V41H736.75H729.25H729V42H728V42.25V62.75V63H726V64H725.75H719.25H719V63H718V62.75V11.25V11H719V10Z" fill="white" stroke="white"/>
<path opacity="0.996078" d="M312 25H312.25H319.75H320V26H321V27H322V27.25V30.75V31H323V31.25V35.75V36H324V36.25V41.75V42H325V42.25V46.75V47H326V47.25V51.75V52H327V52.25V57.75V58H328V58.25V62.75V63H327.75H322.25H322V62H321V60H320V59.75V57.25V57H319V56H318V55H317.75H314.25H314V56H312V58H311V58.25V61.75V62H310V63H309.75H304.25H304V62.75V56.25V56H305V55.75V50.25V50H306V49.75V44.25V44H307V43.75V39.25V39H308V38.75V34.25V34H309V33.75V29.25V29H310V28.75V26.25V26H312V25ZM315 36V37H314V37.5V42H313V42.5V48H314V49H314.5H318V47H319V43.5V43H318V38.5V38H317V36H315Z" fill="white" stroke="white"/>
<path opacity="0.996078" d="M393 25H393.25H395.75H396V26H396.25H398.75C399 25.9167 399.083 26 399 26.25V62.75V63H398.75H394.25H394V62H393V61.75V43.25V43H392V42H390V42.25V44.75V45H389V45.25V49.75V50H388V50.25V54.75V55H387V55.25V58.75V59H386V59.25V61.75V62H385V63H383V64H381V63H379V61H378V60.75V57.25V57H377V56.75V52.25V52H376V51.75V48.25V48H375V47.75V44.25V44H374V43H373V44H372V44.25V47.75V48H371V50H372V50.25V61.75V62H371V63H370.75H366.25H366V62H365V61.75V51.25V51H366V50.75V48.25V48H365V47.75V29.25V29H366V28.75V26.25C365.917 26 366 25.9167 366.25 26H375.75H376V27H377V27.25V29.75V30H378V30.25V34.75V35H379V35.25V38.75V39H380V39.25V43.75V44H381V45H382V46H383V45H384V44.75V42.25V42H385V41.75V37.25V37H386V36.75V33.25V33H387V32.75V29.25V29H388V28.75V26.25V26H388.25H392.75H393V25Z" fill="white" stroke="white"/>
<path opacity="0.996078" d="M413 25H413.25H422.75C423 24.9167 423.083 25 423 25.25C423 26.1667 423 26.75 423 27H424V27.25V30.75V31H425V31.25V35.75V36H426V36.25V40.75V41H427V41.25V45.75V46H428V46.25V51.75V52H429V52.25V57.75V58H430V58.25V61.75V62H429V63H428.75H424.25H424V62H423V60H422V59.75V56.25V56H421V55H420.75H415.25H415V56H414V58H413V58.25V61.75V62H412V63H411.75H406.25H406V62.75V56.25V56H407V55.75V51.25V51H408V50.75V45.25V45H409V44.75V40.25V40H410V39.75V34.25V34H411V33.75V29.25V29H412V28.75V26.25V26H413V25ZM417 36V37H416V37.5V42H415V42.5V48H416V49H416.5H420V48H421V43.5V43H420V38.5V38H419V36H417Z" fill="white" stroke="white"/>
<path opacity="0.996078" d="M578 25H578.25H591.75H592V26H594V27H595V28H596V30H597V30.25V38.75V39H596V41H595V41.25V44.75V45H596V47H597V47.25V61.75V62H596V63H595.75H589.25H589V61H588V60.75V48.25C588.083 48 588 47.9167 587.75 48C586.833 48 586.25 48 586 48V47H585V48H584V49H583V49.25V61.75V62H582V63H581.75H575.25H575V62.75V59.25V59H574V58.75V52.25V52H575V51.75V48.25V48H574V47.75V29.25V29H575V28.75V26.25V26H575.25H577.75H578V25ZM584 33V34H583V34.5V38H584V39H585V40H587V39H588V33.5V33H584.5H584Z" fill="white" stroke="white"/>
<path opacity="0.996078" d="M603 25H603.25H622.75C623 24.9167 623.083 25 623 25.25C623 26.1667 623 26.75 623 27H624V27.25V30.75V31H623V32H622V33H621.75H619.25H619V34H618V35H617V35.25V61.75V62H616V63H615.75H611.25H611V62H610V61H609V60.75V35.25V35H608V34H607V33H606.75H604.25H604V32H603V31H602V29H603V28.75V25.25V25Z" fill="white" stroke="white"/>
<path opacity="0.996078" d="M677 25H677.25H688.75H689V26H690V27H691V28H692V29H693V29.25V33.75V34H691V35H690.75H688.25H688V34H687V32H686V31H685.75H679.25H679V32H678V32.25V55.75V56H679V57H680V58H680.25H683.75H684V57H686V56H687V55.75V48.25V48H686V47H685V45H684V44.75V42.25V42H685V41H685.25H691.75H692V42H693V42.25V58.75V59H692V61H691V62H690V63H689.75H675.25H675V62H674V61H673V60H672V59.75V38.25V38H671V37.75V34.25V34H672V33.75V29.25V29H673V28H674V27H675V26H677V25Z" fill="white" stroke="white"/>
<path opacity="0.996078" d="M760 25H760.25H770.75H771V26H773V27H774V28H775V29H776V29.25V58.75V59H775V61H774V62H772V63H771.75H758.25H758V62H757V61H756V60H755V59H754V58.75V29.25V29H755V28H756V27H757V26H757.25H759.75H760V25ZM764 33V34H763V34.5V41H762V41.5V52H763V52.5V55H764V56H766V55H767V53H768V35.5V35H767V34H766V33H764Z" fill="white" stroke="white"/>
<path opacity="0.996078" d="M783 25H783.25H789.75H790V25.25V28.75V29H791V29.25V36.75V37H790V37.25V51.75V52H791V54H792V55H792.25H794.75H795V54H796V53.75V26.25V26H797V25H797.25H803.75H804V25.25V58.75V59H803V60H802V61H801V62H800V63H799.75H787.25H787V62H785V61H784V60H783V59H782V58.75V26.25V26H783V25Z" fill="white" stroke="white"/>
<path opacity="0.996078" d="M839 25H839.25H850.75H851V26H851.25H853.75H854V27H855V27.25V29.75V30H854C854 30.25 854 30.8333 854 31.75C854.083 32 854 32.0833 853.75 32H845.25H845V33H844V34H843V34.25V37.75V38H844V40H845V41H845.25H852.75H853C853 41.25 853 41.8333 853 42.75V43H854V45H853C853 45.25 853 45.8333 853 46.75C853.083 47 853 47.0833 852.75 47H845.25H845V48H844V49H843V49.25V54.75V55H844V56H845V57H845.25H853.75H854V57.25V62.75V63H853.75H837.25H837V62H836V61.75V27.25V27H837V26H839V25Z" fill="white" stroke="white"/>
<path opacity="0.996078" d="M273 26H273.25H280.75H281V27H282V27.25V29.75V30H283V32H284V33H286V31H287V30.75V28.25V28H288V26H288.25H295.75H296V26.25V30.75V31H295V31.25V33.75V34H294V36H293V36.25V38.75V39H292V39.25V41.75V42H291V42.25V44.75V45H290V45.25V47.75V48H289V48.25V61.75V62H288V63H287V64H286.75H283.25H283V63H281V62H280V61.75V58.25V58H281V57.75V55.25V55H280V54.75V47.25V47H279V45H278V44.75V42.25V42H277V41.75V39.25V39H276V38.75V36.25V36H275V35.75V33.25V33H274V32.75V30.25V30H273V29.75V26.25V26Z" fill="white" stroke="white"/>
<path opacity="0.996078" d="M336 26H336.25H342.75H343V27H344V28H345V30H346V30.25V32.75V33H347V33.25V35.75V36H348V38H349V39H349.25H351.75H352V38.75V36.25V36H353V35.75V27.25V27H354V26H354.25H358.75H359V28H360V28.25V62.75V63H359V64H358.75H351.25H351V63H350V62H349V61.75V59.25V59H348V57H347V56.75V54.25V54H346V52H345V51H344V50H343V51H342V51.25V62.75V63H341V64H340.75H335.25H335V63H334V62.75V29.25V29H335V27H336V26Z" fill="white" stroke="white"/>
<path opacity="0.996078" d="M436 26H436.25H452.75H453V27H454V28H455V29H456V30H457V30.25V40.75V41H456V42H455V42.25V45.75V46H456V47H457V47.25V62.75V63H456V64H455.75H449.25H449V63.75V58.25V58H448V57.75V49.25C448.083 49 448 48.9167 447.75 49C446.833 49 446.25 49 446 49V48H445V49H444V50H443V50.25V61.75V62H442V64H441.75H436.25H436V63H435V62.75V37.25V37H434V36.75V32.25V32H435V31.75V27.25V27H436V26ZM444 34V36H443V38H444V38.5C444 39.1667 444 39.6667 444 40H444.5H448V34.5V34H444.5H444Z" fill="white" stroke="white"/>
<path opacity="0.996078" d="M521 26H521.25H535.75H536V27H538V28H539V29H540V30H541V30.25V46.75V47H540V49H539V50H537V51H536.75H530.25H530V52H528V53H527V53.25V62.75V63H526V64H525.75H520.25H520V63H519V62.75V37.25V37H518V36.75V31.25V31H519V30.75V27.25V27H521V26ZM529 34V35H528V36H527V36.5V42H528V43H528.5H531V42H532V40H533V38H532V35.5V35H531V34H529Z" fill="white" stroke="white"/>
<path opacity="0.996078" d="M550 26H550.25H565.75H566V27H567V28H568V30H569V30.25V58.75V59H568V61H567V62H565V63H563V64H562.75H557.25H557V63H556.75H550.25H550V62H549V61H548V60H547V59.75V46.25V46H546V45.75V31.25V31H547V29H548V28H549V27H550V26ZM556 34V35H555V35.5V54H556V56H556.5H559V55H560V51.5V51H561V37.5V37H560V34.5V34H556.5H556Z" fill="white" stroke="white"/>
<path opacity="0.996078" d="M630 26H630.25H634.75H635V28H636V28.25V42.75V43H635V45H636V45.25V61.75V62H635V63H634.75H629.25H629V62.75V27.25V27H630V26Z" fill="white" stroke="white"/>
<path opacity="0.996078" d="M641 26H641.25H649.75H650V27H651V29H652V29.25V31.75V32H653V32.25V34.75V35H654V37H655V38H656V39H658V38.75V36.25V36H659V35.75V26.25V26H659.25H665.75H666V26.25V62.75C666.083 63 666 63.0833 665.75 63C664.833 63 664.25 63 664 63V64H663.75H658.25H658V63H657V62H656V60H655C655 59.75 655 59.1667 655 58.25V58H654V56H653V55.75V53.25V53H652V51H651V50H649V52H648V52.25V61.75V62H647V63H646.75H641.25H641V62.75V48.25V48H640V47.75V28.25V28H641V26Z" fill="white" stroke="white"/>
<path opacity="0.996078" d="M813 26H813.25H825.75H826V27H828V28H829V29H830V29.25V31.75V32H831V34H830V36H828V37H827.75H823.25H823V36H822V35H821V34H820.75H818.25H818V34.25V37.75V38H819V39H821V40H822V41H823V42H825V43H827V44H828V45H830V45.25V59.75V60H829V62H827V63H826V64H825.75H814.25H814V63H813.75H811.25H811V62H810V60H809V59H808V58.75V53.25V53H809V52H811V51H811.25H815.75H816V52H817V52.25V54.75V55H818V56H818.25H820.75H821V55H822V54.75V51.25V51H821V50H820V49H818V48H817V47H815V46H814V45C813.75 45 813.167 45 812.25 45H812V44H810V43H809V42H808V41.75V31.25V31H809V29H810V28H811V27H813V26Z" fill="white" stroke="white"/>
<g opacity="0.996078">
<path d="M126 27H128V28H126V29H124V30H123V31H122.75H120.25H120V32H118V33H117.75H115.25H115V34H113V35H111V36H110.75H108.25H108V37H106V38H104V39H102V40H101.75H99.25H99V41H97V42H96.75H94.25H94V43H92V44H90V45H89.75H87.25H87V46H85V47H83V48H82.75H80.25H80V49H78V50H77.75H75.25H75V51H73V52H71V53H70.75H68.25H68V54H66V55H64V56H63.75H61.25H61V57H59V58H58.75H56.25H56V59H54V60C53.75 60 53.1667 60 52.25 60H52V61H50V62H49.75H47.25H47V63H45V64H44.75H42.25H42V65C41.75 65 41.1667 65 40.25 65H40V66H38V67H37.75H35.25H35V68H34.75H32.25H32V69H31.75H28.25H28V70H27.75H23.25H23V71H22.75H14.25H14V70H13.75H10.25H10V69H8V68H7V67H6V66H5V65H4V64H3V63.75V61.25V61H2V60.75V57.25V57H1V55H2V54.75V50.25V50H3V49.75V47.25V47H4V45H5V43H6V41H7C7 40.75 7 40.1667 7 39.25V39H8V37H9V36H10V34H11V33H12V32H13V31H14V30H15V29H16V29.25V32.75V33H15V33.25V38.75V39H16V39.25V41.75V42H17C17 42.25 17 42.8333 17 43.75V44H18V46H19V47H20V48H22V49H23V50H23.25H25.75H26V51H26.25H37.75H38V50H38.25H42.75H43V49H43.25H46.75H47V48H47.25H49.75H50V47H50.25H53.75H54V46H54.25H57.75H58V45H58.25H61.75H62V44H62.25H64.75H65V43H65.25H68.75H69V42H69.25H72.75H73V41H73.25H76.75H77V40H77.25H79.75H80V39H80.25H83.75H84V38H84.25H87.75H88V37H88.25H91.75H92V36H92.25H94.75H95V35H95.25H98.75H99V34H99.25H101.75H102V33H102.25H105.75H106V32H106.25H109.75H110V31H110.25H113.75H114V30H114.25H117.75H118V29H118.25H121.75H122V28H122.25H125.75H126V27Z" fill="white"/>
<path d="M126 28H128V27H126V28ZM126 28V29H124V30H123V31H122.75H120.25H120V32H118V33H117.75H115.25H115V34H113V35H111V36H110.75H108.25H108V37H106V38H104V39H102V40H101.75H99.25H99V41H97V42H96.75H94.25H94V43H92V44H90V45H89.75H87.25H87V46H85V47H83V48H82.75H80.25H80V49H78V50H77.75H75.25H75V51H73V52H71V53H70.75H68.25H68V54H66V55H64V56H63.75H61.25H61V57H59V58H58.75H56.25H56V59H54V60C53.75 60 53.1667 60 52.25 60H52V61H50V62H49.75H47.25H47V63H45V64H44.75H42.25H42V65C41.75 65 41.1667 65 40.25 65H40V66H38V67H37.75H35.25H35V68H34.75H32.25H32V69H31.75H28.25H28V70H27.75H23.25H23V71H22.75H14.25H14V70H13.75H10.25H10V69H8V68H7V67H6V66H5V65H4V64H3V63.75V61.25V61H2V60.75V57.25V57H1V55H2V54.75V50.25V50H3V49.75V47.25V47H4V45H5V43H6V41H7C7 40.75 7 40.1667 7 39.25V39H8V37H9V36H10V34H11V33H12V32H13V31H14V30H15V29H16V29.25V32.75V33H15V33.25V38.75V39H16V39.25V41.75V42H17C17 42.25 17 42.8333 17 43.75V44H18V46H19V47H20V48H22V49H23V50H23.25H25.75H26V51H26.25H37.75H38V50H38.25H42.75H43V49H43.25H46.75H47V48H47.25H49.75H50V47H50.25H53.75H54V46H54.25H57.75H58V45H58.25H61.75H62V44H62.25H64.75H65V43H65.25H68.75H69V42H69.25H72.75H73V41H73.25H76.75H77V40H77.25H79.75H80V39H80.25H83.75H84V38H84.25H87.75H88V37H88.25H91.75H92V36H92.25H94.75H95V35H95.25H98.75H99V34H99.25H101.75H102V33H102.25H105.75H106V32H106.25H109.75H110V31H110.25H113.75H114V30H114.25H117.75H118V29H118.25H121.75H122V28H122.25H125.75H126Z" stroke="white"/>
</g>
</g>
<defs>
<clipPath id="clip0_442_4641">
<rect width="856" height="82" fill="white"/>
</clipPath>
</defs>
</svg>
