<svg width="3840" height="640" viewBox="0 0 3840 640" fill="none" xmlns="http://www.w3.org/2000/svg">
<g clip-path="url(#clip0_442_5740)">
<path opacity="0.988235" d="M2225 148H2225.25H2233.75H2234V149H2234.25H2239.75H2240V150H2240.25H2242.75H2243V151H2243.25H2245.75H2246V152H2248V153H2249V154H2251V155H2252V156H2253V157H2254V158H2255V159H2256V161H2257V162H2258V164H2259V165H2260V165.25V167.75V168H2261V168.25V170.75V171H2262V171.25V184.75V185H2261V185.25V188.75V189H2260V191H2259C2259 191.25 2259 191.833 2259 192.75V193H2258V195H2257V196H2256V198H2255V199H2254V200H2253V201H2252V202H2250V203H2249V204H2247V205H2245V206H2243V207H2242.75H2239.25H2239V208H2238.75H2230.25H2230V209H2229V208H2228.75H2220.25H2220V207H2219.75H2217.25H2217V206H2216.75H2214.25H2214V205C2213.75 205 2213.17 205 2212.25 205H2212V204H2210V203H2209V202H2208V201H2207V200H2206V199H2205V198H2204V197H2203V196H2202V194H2201V193H2200V191H2199V190.75V188.25V188H2198V187.75V184.25V184H2197V183.75V173.25V173H2198V172.75V169.25V169H2199V168.75V166.25V166H2200C2200 165.75 2200 165.167 2200 164.25V164H2201V162H2202V161H2203V160H2204V158H2205V157H2206V156H2207V155H2209V154H2210V153H2212V152H2214V151H2216V150H2216.25H2218.75H2219V149H2219.25H2224.75H2225V148Z" fill="#FDFDFD" stroke="#FDFDFD"/>
<path opacity="0.988235" d="M292 155H292.25H519.75H520V155.25V232.75V233H519.75H366.25C366 232.917 365.917 233 366 233.25V237.75V238H365V238.25V242.75V243H364V243.25V248.75V249H363V249.25V254.75V255H362V255.25V259.75V260H361V260.25V265.75V266H360V266.25V270.75V271H359V271.25V276.75V277H358V277.25V282.75V283H357V283.25V286.75V287H357.25H428.75H429V288H430V290H431V291H432V293H433V294H434V296H435V297H436V299H437V300H438V302H439V303H440V305H441V306H442V308H443V309H444C444 309.25 444 309.833 444 310.75V311H445V313H446V314H447V316H448V317H449V319H450V320H451V322H452V323H453V325H454V326H455V328H456V329H457C457 329.25 457 329.833 457 330.75V331H458V333H459V334H460V336H461V337H462V339H463V340H464V342H465V343H466V345H467V346H468V348H469V349H470C470 349.25 470 349.833 470 350.75V351H471V353H472V354H473V355H472.75H345.25H345V355.25V357.75V358H344V358.25V362.75V363H343V363.25V368.75V369H342V369.25V373.75V374H341V374.25V379.75V380H340V380.25V385.75V386H339V386.25V390.75V391H338V391.25V396.75V397H337V397.25V402.75V403H336V403.25V406.75V407H336.25H506.75H507V408H508V409H509C509 409.25 509 409.833 509 410.75V411H510V413H511V414H512V416H513V417H514V419H515V420H516V422H517V423H518V425H519V426H520V428H521V429H522C522 429.25 522 429.833 522 430.75V431H523V433H524V434H525V436H526V437H527V439H528V440H529V442H530V443H531V445H532V446H533V448H534V449H535V451H536V452H537C537 452.25 537 452.833 537 453.75V454H538V456H539V457H540V459H541V460H542V462H543V463H544V465H545V466H546V468H547V469H548V471H549V472H550C550 472.25 550 472.833 550 473.75V474H551V476H552V477H553V479H554V480H555V482H556V483H557V485H556.75H234.25C234 485.083 233.917 485 234 484.75V479.25V479H235V478.75V474.25V474H236V473.75V468.25V468H237V467.75V462.25V462H238V461.75V457.25V457H239V456.75V451.25V451H240V450.75V445.25V445H241V444.75V440.25V440H242V439.75V434.25V434H243V433.75V428.25V428H244V427.75V423.25V423H245V422.75V417.25V417H246V416.75V411.25V411H247V410.75V406.25V406H248V405.75V400.25V400H249V399.75V394.25V394H250V393.75V389.25V389H251V388.75V383.25V383H252V382.75V377.25V377H253V376.75V372.25V372H254V371.75V366.25V366H255V365.75V360.25V360H256V359.75V355.25V355H257V354.75V349.25V349H258V348.75V343.25V343H259V342.75V338.25V338H260V337.75V332.25V332H261V331.75V326.25V326H262V325.75V321.25V321H263V320.75V315.25V315H264V314.75V309.25V309H265V308.75V304.25V304H266V303.75V298.25V298H267V297.75V292.25V292H268V291.75V287.25V287H269V286.75V281.25V281H270V280.75V275.25V275H271V274.75V270.25V270H272V269.75V264.25V264H273V263.75V258.25V258H274V257.75V253.25V253H275V252.75V247.25V247H276V246.75V241.25V241H277V240.75V236.25V236H278V235.75V230.25V230H279V229.75V224.25V224H280V223.75V219.25V219H281V218.75V213.25V213H282V212.75V207.25V207H283V206.75V202.25V202H284V201.75V196.25V196H285V195.75V190.25V190H286V189.75V185.25V185H287V184.75V179.25V179H288V178.75V173.25V173H289V172.75V168.25V168H290V167.75V162.25V162H291V161.75V156.25V156H292V155Z" fill="#FDFDFD" stroke="#FDFDFD"/>
<path opacity="0.988235" d="M571 155H573V156H574V158H575V159H576V161H577V162H578C578 162.25 578 162.833 578 163.75V164H579V166H580V167H581V169H582V170H583V172H584V173H585V175H586V176H587V178H588V179H589V181H590V182H591V184H592V185H593C593 185.25 593 185.833 593 186.75V187H594V189H595V190H596V192H597V193H598V195H599V196H600V198H601V199H602V201H603V202H604V204H605V205H606V207H607V208H608C608 208.25 608 208.833 608 209.75V210H609V212H610V213H611V215H612V216H613V218H614V219H615V221H616V222H617V224H618V225H619V227H620V228H621V230H622V231H623C623 231.25 623 231.833 623 232.75V233H624V235H625V236H626V238H627V239H628V241H629V242H630V244H631V245H632V247H633V248H634V250H635V251H636V253H637V254H638C638 254.25 638 254.833 638 255.75V256H639V258H640V259H641V261H642V262H643V264H644V265H645V267H646V268H647V270H648V271H649V273H650V274H651V276H652V277H653C653 277.25 653 277.833 653 278.75V279H654V281H655V282H656V284H657V285H658V287H659V288H660V290H661V291H662V293H663V294H664V296H665V297H666V299H667V300H668C668 300.25 668 300.833 668 301.75V302H669V304H670V305H671V307H672V308H673V310H674V311H675V313H676V314H677V316H678V317H679V319H680V320H681V322H682V323H683V325H684V326H685C685 326.25 685 326.833 685 327.75V328H686V330H687V331H688V333H689V334H690V336H691V337H692V339H693V340H694V342H695V343H696V345H697V346H698V348H699V349H700V351H701V352H700.75H609.25H609V352.25V484.75V485H608V483H607V482H606V480H605V479H604C604 478.75 604 478.167 604 477.25V477H603V475H602V474H601V472H600V471H599V469H598V468H597V466H596V465H595V463H594V462H593V460H592V459H591C591 458.75 591 458.167 591 457.25V457H590V455H589V454H588V452H587V451H586V449H585V448H584V446H583V445H582V443H581V442H580V440H579V439H578C578 438.75 578 438.167 578 437.25V437H577V435H576V434H575V432H574V431H573V429H572V428H571V426H570V425H569V423H568V422H567V420H566V419H565C565 418.75 565 418.167 565 417.25V417H564V415H563V414H562V412H561V411H560V409H559V408H558V406H557V405H556V403H555V402H554V400H553V399H552C552 398.75 552 398.167 552 397.25V397H551V395H550V394H549V392H548V391H547V389H546V388H545V386H544V385H543V383H542V382H541V380H540V379H539V377H538V376H537C537 375.75 537 375.167 537 374.25V374H536V372H535V371H534V369H533V368H532V366H531V365H530V363H529V362H528V360H527V359H526V357H525V356H524C524 355.75 524 355.167 524 354.25V354H523V352H522V351H521V349H520V348H519V346H518V345H517V343H516V342H515V340H514V339H513V337H512V336H511C511 335.75 511 335.167 511 334.25V334H510V332H509V331H508V329H507V328H506V326H505V325H504V323H503V322H502V320H501V319H500V317H499V316H498C498 315.75 498 315.167 498 314.25V314H497V312H496V311H495V309H494V308H493V306H492V305H491V303H490V302H489V300H488V299H487V297H486V296H485C485 295.75 485 295.167 485 294.25V294H484V292H483V291H482V289H481V288H480V287H480.25H570.75H571V286.75V155.25V155Z" fill="#FDFDFD" stroke="#FDFDFD"/>
<path opacity="0.988235" d="M624 155H624.25H866.75H867V156H867.25H877.75H878V157H878.25H883.75H884V158H884.25H889.75H890V159H890.25H893.75H894V160H894.25H897.75H898V161H898.25H900.75H901V162H901.25H903.75H904V163H904.25H906.75H907V164H909V165H911V166H911.25H913.75H914V167H916V168H917V169C917.25 169 917.833 169 918.75 169H919V170H921V171H922V172H924V173H925V174H926V175H928V176H929V177H930V178H931V179H932V180H933V181H934V182H935V183H936V184H937V186H938V187H939V188H940V190H941V191H942V193H943V195H944V196H945V198H946V198.25V200.75V201H947V203H948V203.25V205.75V206H949V206.25V208.75V209H950V209.25V211.75V212H951V212.25V216.75V217H952V217.25V222.75V223H953V223.25V248.75V249H952V249.25V254.75V255H951V255.25V259.75V260H950V260.25V263.75V264H949V264.25V266.75V267H948V267.25V269.75V270H947V272H946V274H945V274.25V276.75V277H944V279H943V280H942C942 280.25 942 280.833 942 281.75V282H941V284H940V285H939V287H938V288H937V289H936V291H935V292H934V293H933V294H932V295H931V296H930V297H929V298H928V299H927V300H926V301H925V302H924V303H923V304H921V305H920V306H918V307H917V308H916V309C915.75 309 915.167 309 914.25 309H914V310H912V311H911V312H909V313H907V314H905V315H903V316H901V317H899V318H898.75H896.25H896V319H894V320H893V321H895V322H897V323H899V324C899.25 324 899.833 324 900.75 324H901V325H903V326H904V327H906V328H907V329H908V330H910V331H911V332H912V333H913V334H914V335H915V336H916V337H917V338H918V339H919V340H920V342H921V343H922V344H923C923 344.25 923 344.833 923 345.75V346H924V348H925V349H926V351H927V353H928V353.25V355.75V356H929V358H930V358.25V360.75V361H931V361.25V363.75V364H932V364.25V367.75V368H933V368.25V373.75V374H934V374.25V402.75V403H933V403.25V408.75V409H932V409.25V412.75V413H931V413.25V416.75V417H930V417.25V419.75V420H929V420.25V422.75V423H928V425H927V425.25V427.75V428H926V430H925C925 430.25 925 430.833 925 431.75V432H924V434H923V435H922V437H921V439H920V440H919V442H918V443H917V444H916V445H915V447H914V448H913V449H912V450H911V451H910V452H909V453H908V454H907V455H905V456H904V457H903V458H902V459H900V460H899V461H898V462C897.75 462 897.167 462 896.25 462H896V463H894V464H893V465C892.75 465 892.167 465 891.25 465H891V466H889V467H888V468H886V469H884V470H882V471H881.75H879.25H879V472H877V473H875V474H874.75H872.25H872V475H871.75H869.25H869V476H868.75H866.25H866V477H865.75H863.25H863V478H862.75H859.25H859V479H858.75H856.25H856V480H855.75H851.25H851V481H850.75H846.25H846V482H845.75H840.25H840V483H839.75H833.25H833V484H832.75H821.25H821V485H820.75H661.25H661V484.75V409.25V409H661.25H813.75H814V408H814.25H818.75H819V407H819.25H822.75H823V406H823.25H825.75H826V405H826.25H828.75H829V404C829.25 404 829.833 404 830.75 404H831V403H833V402H834V401H836V400H837V399H838V398H840V397H841V396H842V394H843V393H844V392H845V390H846V388H847V386H848V385.75V383.25V383H849V382.75V377.25V377H850V376.75V370.25V370H849V369.75V365.25V365H848V363H847V361H846V360H845V359H844V358H843V357H842V356H840V355H838V354H837.75H835.25H835V353H834.75H831.25H831V352H830.75H821.25H821V351H820.75H808.25H808V352H807.75H752.25H752V351H751V349H750V348H749V346H748V345H747V343H746V342H745V340H744V339H743V337H742V336H741V334H740V333H739C739 332.75 739 332.167 739 331.25V331H738V329H737V328H736V326H735V325H734V323H733V322H732V320H731V319H730V317H729V316H728V314H727V313H726V311H725V310H724C724 309.75 724 309.167 724 308.25V308H723V306H722V305H721V303H720V302H719V300H718V299H717V297H716V296H715V294H714V293H713V291H712V290H711V288H710V287H709V285H708V284H708.25H830.75H831V283H831.25H836.75H837V282H837.25H840.75H841V281H843V280H843.25H845.75H846V279H848V278H849V277H851V276H852V275H853V274H854V273H855V272H856V271H857V270H858V268H859V267H860V265H861V264.75V262.25V262H862V261.75V258.25V258H863V257.75V246.25V246H862V245.75V243.25V243H861C861 242.75 861 242.167 861 241.25V241H860V239H859V238H858V237H857V236H856V235H854V234H852V233H850V232H849.75H846.25H846V231H845.75H673.25H673V230H672V228H671V227H670V225H669V224H668V222H667V221H666V219H665V218H664C664 217.75 664 217.167 664 216.25V216H663V214H662V213H661V211H660V210H659V208H658V207H657V205H656V204H655V202H654V201H653V199H652V198H651V196H650V195H649V193H648V192H647C647 191.75 647 191.167 647 190.25V190H646V188H645V187H644V185H643V184H642V182H641V181H640V179H639V178H638V176H637V175H636V173H635V172H634V170H633V169H632C632 168.75 632 168.167 632 167.25V167H631V165H630V164H629V162H628V161H627V159H626V158H625V156H624V155Z" fill="#FDFDFD" stroke="#FDFDFD"/>
<path opacity="0.988235" d="M2310 165H2310.25H2369.75C2370 164.917 2370.08 165 2370 165.25V169.75V170H2369V170.25V174.75V175H2368V175.25V180.75V181H2367V181.25V186.75V187H2366V187.25V191.75V192H2365V192.25V197.75V198H2364V198.25V203.75V204H2363V204.25V208.75V209H2362V209.25V214.75V215H2361V215.25V220.75V221H2360V221.25V225.75V226H2359V226.25V231.75V232H2358V232.25V237.75V238H2357V238.25V242.75V243H2356V243.25V248.75V249H2355V249.25V254.75V255H2354V255.25V259.75V260H2353V260.25V265.75V266H2352V266.25V271.75V272H2351V272.25V277.75V278H2350V278.25V282.75V283H2349V283.25V288.75V289H2348V289.25V294.75V295H2347V295.25V299.75V300H2346V300.25V305.75V306H2345V306.25V311.75V312H2344V312.25V316.75V317H2343V317.25V322.75V323H2342V323.25V328.75V329H2341V329.25V333.75V334H2340V334.25V339.75V340H2339V340.25V345.75V346H2338V346.25V350.75V351H2337V351.25V356.75V357H2336V357.25V362.75V363H2335V363.25V367.75V368H2334V368.25V373.75V374H2333V374.25V379.75V380H2332V380.25V384.75V385H2331V385.25V390.75V391H2330V391.25V396.75V397H2329V397.25V401.75V402H2328V402.25V407.75V408H2327V408.25V413.75V414H2326V414.25V419.75V420H2325V420.25V424.75V425H2324V425.25V430.75V431H2323V431.25V436.75V437H2322V437.25V441.75V442H2321V442.25V447.75V448H2320V448.25V453.75V454H2319V454.25V457.75V458H2318.75H2259.25H2259V457.75V452.25V452H2260V451.75V446.25V446H2261V445.75V441.25V441H2262V440.75V435.25V435H2263V434.75V429.25V429H2264V428.75V424.25V424H2265V423.75V418.25V418H2266V417.75V412.25V412H2267V411.75V407.25V407H2268V406.75V401.25V401H2269V400.75V395.25V395H2270V394.75V390.25V390H2271V389.75V384.25V384H2272V383.75V378.25V378H2273V377.75V373.25V373H2274V372.75V367.25V367H2275V366.75V361.25V361H2276V360.75V356.25V356H2277V355.75V350.25V350H2278V349.75V344.25V344H2279V343.75V339.25V339H2280V338.75V333.25V333H2281V332.75V327.25V327H2282V326.75V321.25V321H2283V320.75V316.25V316H2284V315.75V310.25V310H2285V309.75V304.25V304H2286V303.75V299.25V299H2287V298.75V293.25V293H2288V292.75V287.25V287H2289V286.75V282.25V282H2290V281.75V276.25V276H2291V275.75V270.25V270H2292V269.75V265.25V265H2293V264.75V259.25V259H2294V258.75V253.25V253H2295V252.75V248.25V248H2296V247.75V242.25V242H2297V241.75V236.25V236H2298V235.75V231.25V231H2299V230.75V225.25V225H2300V224.75V219.25V219H2301V218.75V214.25V214H2302V213.75V208.25V208H2303V207.75V202.25V202H2304V201.75V197.25V197H2305V196.75V191.25V191H2306V190.75V185.25V185H2307V184.75V179.25V179H2308V178.75V174.25V174H2309V173.75V168.25V168H2310V167.75V165.25V165Z" fill="#FDFDFD" stroke="#FDFDFD"/>
<path opacity="0.988235" d="M1209 169H1209.25H1454.75C1455 168.917 1455.08 169 1455 169.25C1455 170.167 1455 170.75 1455 171H1454V171.25V175.75V176H1453V176.25V181.75V182H1452V182.25V186.75V187H1451V187.25V191.75V192H1450V192.25V197.75V198H1449V198.25V202.75V203H1448V203.25V208.75V209H1447V209.25V213.75V214H1446V214.25V219.75V220H1445V220.25V223.75C1445.08 224 1445 224.083 1444.75 224H1261.25H1261V224.25V229.75V230H1260V230.25V235.75V236H1259V236.25V240.75V241H1258V241.25V246.75V247H1257V247.25V252.75V253H1256V253.25V257.75V258H1255V258.25V263.75V264H1254V264.25V269.75V270H1253V270.25V274.75V275H1252V275.25V280.75V281H1251V281.25V285.75V286H1250V286.25V290.75V291H1250.25H1425.75C1426 290.917 1426.08 291 1426 291.25V293.75V294H1425V294.25V298.75V299H1424V299.25V304.75V305H1423V305.25V309.75V310H1422V310.25V315.75V316H1421V316.25V321.75V322H1420V322.25V326.75V327H1419V327.25V332.75V333H1418V333.25V337.75V338H1417V339H1416.75H1241.25H1241V339.25V341.75V342H1240V342.25V347.75V348H1239V348.25V352.75V353H1238V353.25V358.75V359H1237V359.25V364.75V365H1236V365.25V370.75V371H1235V371.25V375.75V376H1234V376.25V381.75V382H1233V382.25V387.75V388H1232V388.25V392.75V393H1231V393.25V398.75V399H1230V399.25V402.75V403H1230.25H1412.75C1413 402.917 1413.08 403 1413 403.25V408.75V409H1412V409.25V413.75V414H1411V414.25V419.75V420H1410V420.25V424.75V425H1409V425.25V430.75V431H1408V431.25V435.75V436H1407V436.25V441.75V442H1406V442.25V447.75V448H1405V448.25V452.75V453H1404V453.25V457.75C1404.08 458 1404 458.083 1403.75 458H1158.25H1158V456H1159V455.75V451.25V451H1160V450.75V445.25V445H1161V444.75V439.25V439H1162V438.75V434.25V434H1163V433.75V428.25V428H1164V427.75V422.25V422H1165V421.75V417.25V417H1166V416.75V411.25V411H1167V410.75V406.25V406H1168V405.75V400.25V400H1169V399.75V394.25V394H1170V393.75V389.25V389H1171V388.75V383.25V383H1172V382.75V377.25V377H1173V376.75V372.25V372H1174V371.75V366.25V366H1175V365.75V360.25V360H1176V359.75V355.25V355H1177V354.75V349.25V349H1178V348.75V343.25V343H1179V342.75V338.25V338H1180V337.75V332.25V332H1181V331.75V326.25V326H1182V325.75V321.25V321H1183V320.75V315.25V315H1184V314.75V310.25V310H1185V309.75V304.25V304H1186V303.75V298.25V298H1187V297.75V293.25V293H1188V292.75V287.25V287H1189V286.75V281.25V281H1190V280.75V276.25V276H1191V275.75V270.25V270H1192V269.75V264.25V264H1193V263.75V259.25V259H1194V258.75V253.25V253H1195V252.75V247.25V247H1196V246.75V242.25V242H1197V241.75V236.25V236H1198V235.75V231.25V231H1199V230.75V225.25V225H1200V224.75V219.25V219H1201V218.75V214.25V214H1202V213.75V208.25V208H1203V207.75V202.25V202H1204V201.75V197.25V197H1205V196.75V191.25V191H1206V190.75V185.25V185H1207V184.75V180.25V180H1208V179.75V174.25V174H1209V173.75V169.25V169Z" fill="#FDFDFD" stroke="#FDFDFD"/>
<path opacity="0.988235" d="M2423 169H2423.25H2584.75H2585V170H2585.25H2595.75H2596V171H2596.25H2602.75H2603V172H2603.25H2606.75H2607V173H2607.25H2611.75H2612V174H2612.25H2614.75H2615V175H2615.25H2617.75H2618V176H2618.25H2620.75H2621V177H2623V178H2625V179H2627V180H2629V181C2629.25 181 2629.83 181 2630.75 181H2631V182H2633V183H2634V184H2636V185H2637V186H2638V187H2639V188H2641V189H2642V190H2643V191H2644V192H2645V194H2646V195H2647V196H2648V197H2649C2649 197.25 2649 197.833 2649 198.75V199H2650V201H2651V202H2652V204H2653V206H2654V206.25V208.75V209H2655V209.25V211.75V212H2656V212.25V214.75V215H2657V215.25V218.75V219H2658V219.25V224.75V225H2659V225.25V248.75V249H2658V249.25V254.75V255H2657V255.25V259.75V260H2656V260.25V262.75V263H2655V263.25V265.75V266H2654V268H2653V268.25V270.75V271H2652V273H2651C2651 273.25 2651 273.833 2651 274.75V275H2650V277H2649V278H2648V280H2647V281H2646V283H2645V284H2644V285H2643V286H2642V288H2641V289H2640V290H2639V291H2638V292H2637V293H2635V294H2634V295H2633V296H2632V297H2631V298H2629V299H2628V300H2626V301H2625V302C2624.75 302 2624.17 302 2623.25 302H2623V303H2621V304H2620V305H2618V306H2616V307H2614V308H2613.75H2611.25H2611V309H2609V310H2607V311H2606.75H2604.25H2604V312H2602V313H2602.25H2604.75H2605V314H2607V315H2607.25H2609.75H2610V316C2610.25 316 2610.83 316 2611.75 316H2612V317H2614V318H2615V319H2617V320H2618V321H2620V322H2621V323H2622V324H2624V325H2625V326H2626V327H2627V328H2628V329H2629V330H2630V332H2631V333H2632V334H2633C2633 334.25 2633 334.833 2633 335.75V336H2634V338H2635V339H2636V341H2637V341.25V343.75V344H2638V346H2639V346.25V348.75V349H2640V349.25V352.75V353H2641V353.25V356.75V357H2642V357.25V364.75V365H2643V365.25V379.75V380H2642V380.25V388.75V389H2641V389.25V393.75V394H2640V394.25V396.75V397H2639V397.25V400.75V401H2638V403H2637V403.25V405.75V406H2636V408H2635V410H2634C2634 410.25 2634 410.833 2634 411.75V412H2633V414H2632V415H2631V417H2630V418H2629V420H2628V421H2627V422H2626V423H2625V425H2624V426H2623V427H2622V428H2621V429H2620V430H2619V431H2617V432H2616V433H2615V434H2614V435H2612V436H2611V437H2610V438H2608V439H2607V440C2606.75 440 2606.17 440 2605.25 440H2605V441H2603V442H2602V443H2600V444H2598V445H2596V446H2594V447H2593.75H2591.25H2591V448H2589V449H2588.75H2586.25H2586V450H2585.75H2583.25H2583V451H2582.75H2580.25H2580V452H2579.75H2577.25H2577V453H2576.75H2573.25H2573V454H2572.75H2568.25H2568V455H2567.75H2563.25H2563V456H2562.75H2556.25H2556V457H2555.75H2545.25H2545V458H2544.75H2372.25H2372V457.75V453.25V453H2373V452.75V447.25V447H2374V446.75V442.25V442H2375V441.75V436.25V436H2376V435.75V430.25V430H2377V429.75V425.25V425H2378V424.75V419.25V419H2379V418.75V413.25V413H2380V412.75V408.25V408H2381V407.75V402.25V402H2382V401.75V396.25V396H2383V395.75V391.25V391H2384V390.75V385.25V385H2385V384.75V379.25V379H2386V378.75V374.25V374H2387V373.75V368.25V368H2388V367.75V363.25V363H2389V362.75V357.25V357H2390V356.75V351.25V351H2391V350.75V346.25V346H2392V345.75V340.25V340H2393V339.75V334.25V334H2394V333.75V329.25V329H2395V328.75V323.25V323H2396V322.75V317.25V317H2397V316.75V312.25V312H2398V311.75V306.25V306H2399V305.75V300.25V300H2400V299.75V295.25V295H2401V294.75V289.25V289H2402V288.75V284.25V284H2403V283.75V278.25V278H2404V277.75V272.25V272H2405V271.75V267.25V267H2406V266.75V261.25V261H2407V260.75V255.25V255H2408V254.75V250.25V250H2409V249.75V244.25V244H2410V243.75V238.25V238H2411V237.75V233.25V233H2412V232.75V227.25V227H2413V226.75V221.25V221H2414V220.75V216.25V216H2415V215.75V210.25V210H2416V209.75V204.25V204H2417V203.75V199.25V199H2418V198.75V193.25V193H2419V192.75V188.25V188H2420V187.75V182.25V182H2421V181.75V176.25V176H2422V175.75V171.25V171H2423V169ZM2455 202V203H2454V203.5V208H2453V208.5V214H2452V214.5V220H2451V220.5V225H2450V225.5V231H2449V231.5V236H2448V236.5V242H2447V242.5V248H2446V248.5V253H2445V253.5V259H2444V259.5V265H2443V265.5V270H2442V270.5V276H2441V276.5V282H2440V282.5V287H2439V287.5V293H2438V293.5V297H2438.5H2551V296H2551.5H2565V295H2565.5H2571V294H2571.5H2576V293H2576.5H2580V292H2580.5H2583V291H2583.5H2586V290H2586.5H2589V289H2591V288H2593V287H2595V286H2597V285H2598V284H2600V283H2601V282H2603V281H2604V280H2605V279H2606V278H2607V277H2608V276H2609V275H2610V274H2611V273H2612V271H2613V270H2614V268H2615C2615 267 2615 266.333 2615 266H2616V264H2617V262H2618V259.5V259H2619V256.5V256H2620V250.5V250H2621V234.5V234H2620V229.5V229H2619V226.5V226H2618V223.5V223H2617V221H2616V220H2615V218H2614V217H2613V216H2612V215H2611V214H2610V213H2609V212H2608V211H2606V210H2605V209H2603V208H2600.5H2600V207H2598V206H2595.5H2595V205H2591.5H2591V204H2585.5H2585V203H2575.5H2575V202H2455.5H2455ZM2433 327V328H2432V328.5V333H2431V333.5V339H2430V339.5V345H2429V345.5V350H2428V350.5V356H2427V356.5V362H2426V362.5V367H2425V367.5V373H2424V373.5V378H2423V378.5V384H2422V384.5V390H2421V390.5V395H2420V395.5V401H2419V401.5V406H2418V406.5V412H2417V412.5V418H2416V418.5V423H2415V425H2415.5H2539V424H2539.5H2549V423H2549.5H2555V422H2555.5H2559V421H2559.5H2563V420H2563.5H2566V419H2566.5H2569V418H2569.5H2572V417H2574V416H2576V415H2578V414H2580V413H2582V412H2583V411H2585V410H2586V409H2587V408H2589V407H2590V406H2591V405H2592V404H2593V403H2594V402H2595V401H2596V400H2597V398H2598V397H2599V395H2600V394H2601V392H2602C2602 391 2602 390.333 2602 390H2603V387.5V387H2604V384.5V384H2605V380.5V380H2606V374.5V374H2607V361.5V361H2606V355.5V355H2605V352.5V352H2604V349.5V349H2603V347H2602V345H2601V344H2600V342H2599V341H2598V340H2597V339H2596V338H2595V337H2593V336H2592V335H2590V334C2589 334 2588.33 334 2588 334V333H2586V332H2583.5H2583V331H2580.5H2580V330H2577.5H2577V329H2572.5H2572V328H2564.5H2564V327H2433.5H2433Z" fill="#FDFDFD" stroke="#FDFDFD"/>
<path opacity="0.988235" d="M3524 169H3524.25H3560.75C3561 168.917 3561.08 169 3561 169.25V171.75V172H3560V172.25V177.75V178H3559V178.25V182.75V183H3558V183.25V188.75V189H3557V189.25V194.75V195H3556V195.25V199.75V200H3555V200.25V205.75V206H3554V206.25V211.75V212H3553V212.25V216.75V217H3552V217.25V222.75V223H3551V223.25V228.75V229H3550V229.25V233.75V234H3549V234.25V239.75V240H3548V240.25V242.75V243H3548.25H3605.75C3606 242.917 3606.08 243 3606 243.25V248.75V249H3605V249.25V254.75V255H3604V255.25V259.75V260H3603V260.25V265.75V266H3602V266.25V270.75V271H3601V271.25V275.75V276H3600.75H3542.25H3542V276.25V279.75V280H3541V280.25V285.75V286H3540V286.25V291.75V292H3539V292.25V296.75V297H3538V297.25V302.75V303H3537V303.25V307.75V308H3536V308.25V313.75V314H3535V314.25V319.75V320H3534V320.25V324.75V325H3533V325.25V330.75V331H3532V331.25V335.75V336H3531V336.25V341.75V342H3530V342.25V347.75V348H3529V348.25V352.75V353H3528V353.25V358.75V359H3527V359.25V363.75V364H3526V364.25V369.75V370H3525V370.25V375.75V376H3524V376.25V380.75V381H3523V381.25V386.75V387H3522V387.25V392.75V393H3521V393.25V407.75V408H3522V408.25V411.75V412H3523V414H3524C3524 414.25 3524 414.833 3524 415.75V416H3525V418H3526V419H3527V420H3528V421H3530V422H3532V423H3534V424H3534.25H3536.75H3537V425H3537.25H3540.75H3541V426H3541.25H3573.75C3574 425.917 3574.08 426 3574 426.25V431.75V432H3573V432.25V437.75V438H3572V438.25V442.75V443H3571V443.25V447.75V448H3570V448.25V452.75V453H3569V453.25V457.75V458H3568V460H3567.75H3532.25H3532V459H3531.75H3523.25H3523V458H3522.75H3518.25H3518V457H3517.75H3515.25H3515V456H3514.75H3512.25H3512V455H3511.75H3509.25H3509V454H3507V453H3505V452C3504.75 452 3504.17 452 3503.25 452H3503V451H3501V450H3500V449H3499V448H3497V447H3496V446H3495V445H3494V444H3493V442H3492V441H3491V440H3490V438H3489V436H3488V434H3487V432H3486V431.75V429.25V429H3485V428.75V425.25V425H3484V424.75V419.25V419H3483V418.75V400.25V400H3484V399.75V393.25V393H3485V392.75V387.25V387H3486V386.75V382.25V382H3487V381.75V376.25V376H3488V375.75V370.25V370H3489V369.75V365.25V365H3490V364.75V359.25V359H3491V358.75V353.25V353H3492V352.75V347.25V347H3493V346.75V342.25V342H3494V341.75V336.25V336H3495V335.75V330.25V330H3496V329.75V325.25V325H3497V324.75V319.25V319H3498V318.75V313.25V313H3499V312.75V308.25V308H3500V307.75V302.25V302H3501V301.75V296.25V296H3502V295.75V291.25V291H3503V290.75V285.25V285H3504V284.75V279.25V279H3505V278.75V276.25V276H3504.75H3459.25C3459 276.083 3458.92 276 3459 275.75V271.25V271H3460V270.75V265.25V265H3461V264.75V260.25V260H3462V259.75V255.25V255H3463V254.75V249.25V249H3464V248.75V244.25V244H3465V243H3465.25H3510.75H3511V242.75V238.25V238H3512V237.75V232.25V232H3513V231.75V227.25V227H3514V226.75V221.25V221H3515V220.75V216.25V216H3516V215.75V210.25V210H3517V209.75V204.25V204H3518V203.75V199.25V199H3519V198.75V193.25V193H3520V192.75V188.25V188H3521V187.75V182.25V182H3522V181.75V176.25V176H3523V175.75V171.25V171H3524V169Z" fill="#FDFDFD" stroke="#FDFDFD"/>
<path opacity="0.988235" d="M3383 210H3383.25H3386.75H3387V211H3387.25H3389.75H3390V212H3390.25H3392.75H3393V213H3393.25H3395.75H3396V214H3396.25H3398.75H3399V215H3399.25H3401.75H3402V216H3402.25H3404.75H3405V217H3405.25H3407.75H3408V218H3408.25H3410.75H3411V219H3413V221H3412V223H3411V225H3410V227H3409V229H3408V231H3407V233H3406V235H3405V237H3404V239H3403V241H3402V243H3401V245H3400V247H3399V248H3401V249H3403V250H3405V251C3405.25 251 3405.83 251 3406.75 251H3407V252H3409V253H3410V254H3412V255H3413V256H3415V257H3416V258H3417V259H3418V260H3419V261H3420V262H3421V263H3422V264H3423V265H3424V266H3425V268H3426V269H3427V271H3428V273H3429V275H3430V275.25V277.75V278H3431V278.25V281.75V282H3432V282.25V287.75V288H3433V288.25V299.75V300H3432V300.25V306.75V307H3431.75H3421.25H3421V306H3420.75H3401.25H3401V305H3400V304.75V295.25V295H3399V294.75V291.25V291H3398V289H3397V287H3396V285H3395V283H3394V282H3393V281H3392V280H3391V279H3390V278H3389V277H3387V276H3386V275H3384V274H3383.75H3381.25H3381V273H3379V272H3378.75H3376.25H3376V271H3375.75H3372.25H3372V270H3371.75H3368.25H3368V269H3367.75H3362.25H3362V268H3361.75H3353.25H3353V267H3352.75H3321.25H3321V268H3320.75H3314.25H3314V269H3313.75H3309.25H3309V270H3308.75H3305.25H3305V271H3304.75H3302.25H3302V272H3301.75H3299.25H3299V273H3297V274C3296.75 274 3296.17 274 3295.25 274H3295V275H3293V276H3292V277H3290V278H3289V279H3288V280H3286V281H3285V283H3284V284H3283V285H3282V287H3281V289H3280V291H3279V293H3278V293.25V296.75V297H3277V297.25V311.75V312H3278V312.25V314.75V315H3279C3279 315.25 3279 315.833 3279 316.75V317H3280V319H3281V320H3282V321H3283V322H3284V323H3285V324H3286V325H3288V326H3289V327H3291V328H3291.25H3293.75H3294V329H3296V330H3296.25H3299.75H3300V331H3300.25H3303.75H3304V332H3304.25H3309.75H3310V333H3310.25H3316.75H3317V334H3317.25H3323.75H3324V335H3324.25H3330.75H3331V336H3331.25H3338.75H3339V337H3339.25H3345.75H3346V338H3346.25H3353.75H3354V339H3354.25H3360.75H3361V340H3361.25H3366.75H3367V341H3367.25H3372.75H3373V342H3373.25H3376.75H3377V343H3377.25H3380.75H3381V344H3381.25H3383.75H3384V345H3384.25H3386.75H3387V346H3389V347H3389.25H3391.75H3392V348H3394V349C3394.25 349 3394.83 349 3395.75 349H3396V350H3398V351H3399V352H3401V353H3402V354H3403V355H3405V356H3406V357H3407V358H3408V360H3409V361H3410V362H3411V364H3412V366H3413V368H3414V370H3415V370.25V372.75V373H3416V373.25V375.75V376H3417V376.25V381.75V382H3418V382.25V398.75V399H3417V399.25V405.75V406H3416V406.25V410.75V411H3415V411.25V413.75V414H3414V414.25V416.75V417H3413V417.25V419.75V420H3412V422H3411C3411 422.25 3411 422.833 3411 423.75V424H3410V426H3409V427H3408V429H3407V430H3406V432H3405V433H3404V434H3403V435H3402V436H3401V437H3400V438H3399V439H3398V440H3397V441H3396V442H3395V443H3393V444H3392V445H3391V446H3389V447C3388.75 447 3388.17 447 3387.25 447H3387V448H3385V449H3384V450H3383.75H3381.25H3381V451H3379V452H3377V453H3375V454H3374.75H3372.25H3372V455H3371.75H3369.25H3369V456H3368.75H3366.25H3366V457H3365.75H3362.25H3362V458H3361.75H3358.25H3358V459H3357.75H3354.25H3354V460H3353.75H3348.25H3348V461H3347.75H3341.25H3341V462H3340.75H3330.25H3330V463H3329.75H3298.25H3298V462H3297.75H3287.25H3287V463H3286V465H3285V466H3284V468H3283V470H3282V472H3281V474H3280C3280 474.25 3280 474.833 3280 475.75V476H3279V478H3278V479H3277V481H3276V483H3275V485H3274V487H3273C3273 487.25 3273 487.833 3273 488.75V489H3272V491H3271V492H3270V491H3269.75H3267.25H3267V490H3266.75H3264.25H3264V489H3263.75H3261.25H3261V488H3260.75H3258.25H3258V487H3257.75H3255.25H3255V486H3254.75H3252.25H3252V485H3251.75H3249.25H3249V484H3248.75H3246.25H3246V483H3245.75H3243.25H3243V482H3242V480H3243V478H3244V476H3245V474H3246V472H3247C3247 471.75 3247 471.167 3247 470.25V470H3248V468H3249V467H3250V465H3251V463H3252V461H3253V459H3254C3254 458.75 3254 458.167 3254 457.25V457H3255V455H3254V454H3253.75H3251.25H3251V453H3249V452H3247V451H3245V450H3243V449H3241V448H3240V447H3238V446H3237V445H3236V444H3234V443H3233V442H3232V441H3231V440H3230V439H3229V437H3228V436H3227V435H3226V433H3225V432H3224V430H3223V428H3222V427.75V425.25V425H3221V424.75V422.25V422H3220V421.75V418.25V418H3219V417.75V396.25V396H3220V395H3220.25H3233.75H3234V396H3234.25H3250.75H3251V396.25V405.75V406H3252V406.25V409.75V410H3253V412H3254C3254 412.25 3254 412.833 3254 413.75V414H3255V416H3256V417H3257V419H3258V420H3259V421H3261V422H3262V423H3263V424H3265V425H3267V426H3269V427H3271V428H3271.25H3273.75H3274V429H3274.25H3276.75H3277V430H3277.25H3279.75H3280V431H3280.25H3284.75H3285V432H3285.25H3290.75H3291V433H3291.25H3298.75H3299V434H3299.25H3335.75H3336V433H3336.25H3342.75H3343V432H3343.25H3347.75H3348V431H3348.25H3351.75H3352V430H3352.25H3354.75H3355V429H3357V428H3357.25H3359.75H3360V427H3362V426C3362.25 426 3362.83 426 3363.75 426H3364V425H3366V424H3367V423H3368V422H3370V421H3371V420H3372V419H3373V418H3374V417H3375V415H3376V414H3377V412H3378V410H3379V409.75V407.25V407H3380V406.75V404.25V404H3381V403.75V396.25V396H3382V395.75V393.25V393H3381V392.75V386.25V386H3380V385.75V383.25V383H3379V381H3378V380H3377V379H3376V378H3375V377H3374V376H3373V375H3371V374H3369V373H3367V372H3365V371H3364.75H3361.25H3361V370H3360.75H3357.25H3357V369H3356.75H3352.25H3352V368H3351.75H3346.25H3346V367H3345.75H3338.25H3338V366H3337.75H3331.25H3331V365H3330.75H3323.25H3323V364H3322.75H3315.25H3315V363H3314.75H3308.25H3308V362H3307.75H3300.25H3300V361H3299.75H3294.25H3294V360H3293.75H3289.25H3289V359H3288.75H3285.25H3285V358H3284.75H3281.25H3281V357H3280.75H3278.25H3278V356H3277.75H3275.25H3275V355H3273V354H3272.75H3270.25H3270V353H3268V352C3267.75 352 3267.17 352 3266.25 352H3266V351H3264V350H3263V349H3261V348H3260V347H3258V346H3257V345H3256V344H3255V343H3254V342H3253V341H3252V340H3251V339H3250V338H3249V336H3248V335H3247V333H3246V331H3245V329H3244V328.75V326.25V326H3243V325.75V323.25V323H3242V322.75V318.25V318H3241V317.75V298.25V298H3242V297.75V292.25V292H3243V291.75V288.25V288H3244V287.75V285.25V285H3245V284.75V282.25V282H3246V280H3247V278H3248V276H3249C3249 275.75 3249 275.167 3249 274.25V274H3250V272H3251V271H3252V269H3253V268H3254V267H3255V266H3256V265H3257V264H3258V263H3259V262H3260V261H3261V260H3262V259H3263V258H3264V257H3266V256H3267V255C3267.25 255 3267.83 255 3268.75 255H3269V254H3271V253H3272V252H3274V251H3276V250H3278V249H3280V248H3280.25H3282.75H3283V247H3285V246H3285.25H3287.75H3288V245H3288.25H3290.75H3291V244H3291.25H3293.75H3294V243H3294.25H3297.75H3298V242H3298.25H3301.75H3302V241H3302.25H3307.75H3308V240H3308.25H3313.75H3314V239H3314.25H3324.75H3325V238H3325.25H3351.75H3352V239H3352.25H3363.75H3364V240H3364.25H3367.75H3368V239H3369V237H3370V235H3371V233H3372V231H3373V229H3374V227H3375V225H3376V223H3377V221H3378V219H3379V217H3380V215H3381V213H3382V211H3383V210Z" fill="#FDFDFD" stroke="#FDFDFD"/>
<g opacity="0.988235">
<path d="M1611 237H1611.25H1621.75H1622V238H1622.25H1632.75H1633V239H1633.25H1638.75H1639V240H1639.25H1642.75H1643V241H1643.25H1646.75H1647V242H1649V243H1649.25H1651.75H1652V244H1654V245H1656V246H1658V247C1658.25 247 1658.83 247 1659.75 247H1660V248H1662V249H1663V250H1665V251H1666V252H1667V253H1668V254H1670V255H1671V256H1672V257H1673V258H1674V260H1675V261H1676V262H1677V264H1678V265H1679V267H1680V268H1681V270H1682V272H1683V274H1684V274.25V276.75V277H1685V279H1686V279.25V281.75V282H1687V282.25V284.75V285H1688V283H1689V282H1690V280H1691V279H1692V277H1693V276H1694V275H1695V273H1696V272H1697V271H1698V270H1699V269H1700V268H1701V267H1702V266H1703V265H1704V264H1705V263H1706V262H1707V261H1708V260H1709V259H1710V258H1712V257H1713V256H1714V255H1716V254H1717V253H1719V252H1720V251H1722V250H1724V249H1726V248H1728V247H1730V246H1732V245H1734V244H1734.25H1736.75H1737V243H1737.25H1739.75H1740V242H1740.25H1742.75H1743V241H1743.25H1746.75H1747V240H1747.25H1751.75H1752V239H1752.25H1757.75H1758V238H1758.25H1769.75H1770V237H1770.25H1780.75H1781V238H1781.25H1792.75H1793V239H1793.25H1798.75H1799V240H1799.25H1802.75H1803V241H1803.25H1806.75H1807V242H1807.25H1809.75H1810V243H1810.25H1812.75H1813V244H1815V245H1817V246H1819V247C1819.25 247 1819.83 247 1820.75 247H1821V248H1823V249H1824V250H1826V251H1827V252H1828V253H1830V254H1831V255H1832V256H1833V257H1834V258H1835V259H1836V261H1837V262H1838V263H1839V265H1840V266H1841V268H1842V270H1843V272H1844V274H1845V276H1846V276.25V278.75V279H1847V279.25V281.75V282H1848V282.25V284.75V285H1849V285.25V289.75V290H1850V290.25V294.75V295H1851V295.25V306.75V307H1852V307.25V314.75V315H1851V315.25V328.75V329H1850V329.25V335.75V336H1849V336.25V341.75V342H1848V342.25V346.75V347H1847V347.25V352.75V353H1846V353.25V358.75V359H1845V359.25V363.75V364H1844V364.25V369.75V370H1843V370.25V375.75V376H1842V376.25V380.75V381H1841V381.25V386.75V387H1840V387.25V391.75V392H1839V392.25V397.75V398H1838V398.25V403.75V404H1837V404.25V408.75V409H1836V409.25V414.75V415H1835V415.25V420.75V421H1834V421.25V425.75V426H1833V426.25V431.75V432H1832V432.25V437.75V438H1831V438.25V442.75V443H1830V443.25V448.75V449H1829V449.25V453.75V454H1828V454.25V457.75V458H1827.75H1768.25H1768V457.75V453.25V453H1769V452.75V447.25V447H1770V446.75V442.25V442H1771V441.75V436.25V436H1772V435.75V431.25V431H1773V430.75V425.25V425H1774V424.75V420.25V420H1775V419.75V414.25V414H1776V413.75V409.25V409H1777V408.75V403.25V403H1778V402.75V397.25V397H1779V396.75V392.25V392H1780V391.75V386.25V386H1781V385.75V381.25V381H1782V380.75V375.25V375H1783V374.75V370.25V370H1784V369.75V364.25V364H1785V363.75V359.25V359H1786V358.75V353.25V353H1787V352.75V347.25V347H1788V346.75V342.25V342H1789V341.75V330.25V330H1790V328H1789V327.75V319.25V319H1788V318.75V315.25V315H1787V314.75V312.25V312H1786V310H1785C1785 309.75 1785 309.167 1785 308.25V308H1784V306H1783V305H1782V304H1781V302H1780V301H1778V300H1777V299H1776V298H1774V297H1772V296H1770V295H1769.75H1767.25H1767V294H1766.75H1763.25H1763V293H1762.75H1758.25H1758V292H1757.75H1739.25H1739V293H1738.75H1733.25H1733V294H1732.75H1729.25H1729V295H1728.75H1726.25H1726V296H1725.75H1723.25H1723V297H1721V298H1719V299H1717V300C1716.75 300 1716.17 300 1715.25 300H1715V301H1713V302H1712V303H1711V304H1709V305H1708V306H1707V307H1706V308H1705V309H1704V310H1703V311H1702V312H1701V314H1700V315H1699V317H1698V318H1697V320H1696V322H1695V323H1694V325H1693V325.25V327.75V328H1692V330H1691V332H1690V332.25V334.75V335H1689V335.25V337.75V338H1688V338.25V341.75V342H1687V342.25V345.75V346H1686V346.25V351.75V352H1685V352.25V357.75V358H1684V358.25V362.75V363H1683V363.25V368.75V369H1682V369.25V374.75V375H1681V375.25V379.75V380H1680V380.25V385.75V386H1679V386.25V391.75V392H1678V392.25V396.75V397H1677V397.25V402.75V403H1676V403.25V408.75V409H1675V409.25V413.75V414H1674V414.25V419.75V420H1673V420.25V425.75V426H1672V426.25V430.75V431H1671V431.25V436.75V437H1670V437.25V442.75V443H1669V443.25V447.75V448H1668V448.25V453.75V454H1667V454.25V457.75V458H1666.75H1607.25H1607V457.75V453.25V453H1608V452.75V447.25V447H1609V446.75V441.25V441H1610V440.75V436.25V436H1611V435.75V430.25V430H1612V429.75V425.25V425H1613V424.75V419.25V419H1614V418.75V414.25V414H1615V413.75V408.25V408H1616V407.75V403.25V403H1617V402.75V397.25V397H1618V396.75V391.25V391H1619V390.75V386.25V386H1620V385.75V380.25V380H1621V379.75V375.25V375H1622V374.75V369.25V369H1623V368.75V364.25V364H1624V363.75V358.25V358H1625V357.75V353.25V353H1626V352.75V347.25V347H1627V346.75V341.25V341H1628V340.75V320.25V320H1627V319.75V316.25V316H1626V315.75V313.25V313H1625V311H1624C1624 310.75 1624 310.167 1624 309.25V309H1623V307H1622V306H1621V304H1620V303H1619V302H1618V301H1616V300H1615V299H1614V298H1612V297H1610V296H1608V295H1607.75H1605.25H1605V294H1604.75H1601.25H1601V293H1600.75H1596.25H1596V292H1595.75H1577.25H1577V293H1576.75H1571.25H1571V294H1570.75H1567.25H1567V295H1566.75H1564.25H1564V296H1562V297H1561.75H1559.25H1559V298C1558.75 298 1558.17 298 1557.25 298H1557V299H1555V300H1554V301H1552V302H1551V303H1549V304H1548V305H1547V306H1546V307H1545V308H1544V309H1543V310H1542V311H1541V312H1540V314H1539V315H1538V316H1537C1537 316.25 1537 316.833 1537 317.75V318H1536V320H1535V321H1534V323H1533V325H1532V325.25V327.75V328H1531V330H1530V330.25V332.75V333H1529V333.25V335.75V336H1528V336.25V338.75V339H1527V339.25V341.75V342H1526V342.25V346.75V347H1525V347.25V352.75V353H1524V353.25V358.75V359H1523V359.25V363.75V364H1522V364.25V369.75V370H1521V370.25V375.75V376H1520V376.25V380.75V381H1519V381.25V386.75V387H1518V387.25V392.75V393H1517V393.25V397.75V398H1516V398.25V403.75V404H1515V404.25V409.75V410H1514V410.25V414.75V415H1513V415.25V420.75V421H1512V421.25V425.75V426H1511V426.25V431.75V432H1510V432.25V437.75V438H1509V438.25V442.75V443H1508V443.25V448.75V449H1507V449.25V454.75V455H1506V455.25V457.75V458H1505.75H1446.25H1446V457.75V453.25V453H1447V452.75V448.25V448H1448V447.75V442.25V442H1449V441.75V436.25V436H1450V435.75V431.25V431H1451V430.75V425.25V425H1452V424.75V419.25V419H1453V418.75V414.25V414H1454V413.75V408.25V408H1455V407.75V402.25V402H1456V401.75V397.25V397H1457V396.75V391.25V391H1458V390.75V385.25V385H1459V384.75V380.25V380H1460V379.75V374.25V374H1461V373.75V368.25V368H1462V367.75V363.25V363H1463V362.75V357.25V357H1464V356.75V351.25V351H1465V350.75V346.25V346H1466V345.75V340.25V340H1467V339.75V334.25V334H1468V333.75V329.25V329H1469V328.75V323.25V323H1470V322.75V317.25V317H1471V316.75V312.25V312H1472V311.75V306.25V306H1473V305.75V300.25V300H1474V299.75V295.25V295H1475V294.75V289.25V289H1476V288.75V283.25V283H1477V282.75V278.25V278H1478V277.75V272.25V272H1479V271.75V266.25V266H1480V265.75V261.25V261H1481V260.75V255.25V255H1482V254.75V249.25V249H1483V248.75V244.25V244H1484V243H1484.25H1540.75H1541V243.25V252.75V253H1540V253.25V263.75V264H1539V264.25V273.75V274H1538V275H1537V277H1538V276H1539V275H1540V273H1541V272H1542V271H1543V270H1544V269H1545V268H1546V267H1547V266H1548V265H1549V264H1550V263H1551V262H1552V261H1553V260H1554V259H1555V258H1557V257H1558V256H1559V255H1560V254H1562V253H1563V252H1565V251H1566V250H1568V249H1569V248H1571V247H1573V246H1575V245H1577V244H1577.25H1579.75H1580V243H1582V242H1582.25H1584.75H1585V241H1585.25H1588.75H1589V240H1589.25H1592.75H1593V239H1593.25H1598.75H1599V238H1599.25H1610.75H1611V237ZM1536 277V278H1537V277H1536ZM1535 279V280H1536V279H1535Z" fill="#FDFDFD"/>
<path d="M1537 277V275H1538V274H1539V273.75V264.25V264H1540V263.75V253.25V253H1541V252.75V243.25V243H1540.75H1484.25H1484V244H1483V244.25V248.75V249H1482V249.25V254.75V255H1481V255.25V260.75V261H1480V261.25V265.75V266H1479V266.25V271.75V272H1478V272.25V277.75V278H1477V278.25V282.75V283H1476V283.25V288.75V289H1475V289.25V294.75V295H1474V295.25V299.75V300H1473V300.25V305.75V306H1472V306.25V311.75V312H1471V312.25V316.75V317H1470V317.25V322.75V323H1469V323.25V328.75V329H1468V329.25V333.75V334H1467V334.25V339.75V340H1466V340.25V345.75V346H1465V346.25V350.75V351H1464V351.25V356.75V357H1463V357.25V362.75V363H1462V363.25V367.75V368H1461V368.25V373.75V374H1460V374.25V379.75V380H1459V380.25V384.75V385H1458V385.25V390.75V391H1457V391.25V396.75V397H1456V397.25V401.75V402H1455V402.25V407.75V408H1454V408.25V413.75V414H1453V414.25V418.75V419H1452V419.25V424.75V425H1451V425.25V430.75V431H1450V431.25V435.75V436H1449V436.25V441.75V442H1448V442.25V447.75V448H1447V448.25V452.75V453H1446V453.25V457.75V458H1446.25H1505.75H1506V457.75V455.25V455H1507V454.75V449.25V449H1508V448.75V443.25V443H1509V442.75V438.25V438H1510V437.75V432.25V432H1511V431.75V426.25V426H1512V425.75V421.25V421H1513V420.75V415.25V415H1514V414.75V410.25V410H1515V409.75V404.25V404H1516V403.75V398.25V398H1517V397.75V393.25V393H1518V392.75V387.25V387H1519V386.75V381.25V381H1520V380.75V376.25V376H1521V375.75V370.25V370H1522V369.75V364.25V364H1523V363.75V359.25V359H1524V358.75V353.25V353H1525V352.75V347.25V347H1526V346.75V342.25V342H1527V341.75V339.25V339H1528V338.75V336.25V336H1529V335.75V333.25V333H1530V332.75V330.25V330H1531V328H1532V327.75V325.25V325H1533V323H1534V321H1535V320H1536V318H1537V317.75C1537 316.833 1537 316.25 1537 316H1538V315H1539V314H1540V312H1541V311H1542V310H1543V309H1544V308H1545V307H1546V306H1547V305H1548V304H1549V303H1551V302H1552V301H1554V300H1555V299H1557V298H1557.25C1558.17 298 1558.75 298 1559 298V297H1559.25H1561.75H1562V296H1564V295H1564.25H1566.75H1567V294H1567.25H1570.75H1571V293H1571.25H1576.75H1577V292H1577.25H1595.75H1596V293H1596.25H1600.75H1601V294H1601.25H1604.75H1605V295H1605.25H1607.75H1608V296H1610V297H1612V298H1614V299H1615V300H1616V301H1618V302H1619V303H1620V304H1621V306H1622V307H1623V309H1624V309.25C1624 310.167 1624 310.75 1624 311H1625V313H1626V313.25V315.75V316H1627V316.25V319.75V320H1628V320.25V340.75V341H1627V341.25V346.75V347H1626V347.25V352.75V353H1625V353.25V357.75V358H1624V358.25V363.75V364H1623V364.25V368.75V369H1622V369.25V374.75V375H1621V375.25V379.75V380H1620V380.25V385.75V386H1619V386.25V390.75V391H1618V391.25V396.75V397H1617V397.25V402.75V403H1616V403.25V407.75V408H1615V408.25V413.75V414H1614V414.25V418.75V419H1613V419.25V424.75V425H1612V425.25V429.75V430H1611V430.25V435.75V436H1610V436.25V440.75V441H1609V441.25V446.75V447H1608V447.25V452.75V453H1607V453.25V457.75V458H1607.25H1666.75H1667V457.75V454.25V454H1668V453.75V448.25V448H1669V447.75V443.25V443H1670V442.75V437.25V437H1671V436.75V431.25V431H1672V430.75V426.25V426H1673V425.75V420.25V420H1674V419.75V414.25V414H1675V413.75V409.25V409H1676V408.75V403.25V403H1677V402.75V397.25V397H1678V396.75V392.25V392H1679V391.75V386.25V386H1680V385.75V380.25V380H1681V379.75V375.25V375H1682V374.75V369.25V369H1683V368.75V363.25V363H1684V362.75V358.25V358H1685V357.75V352.25V352H1686V351.75V346.25V346H1687V345.75V342.25V342H1688V341.75V338.25V338H1689V337.75V335.25V335H1690V334.75V332.25V332H1691V330H1692V328H1693V327.75V325.25V325H1694V323H1695V322H1696V320H1697V318H1698V317H1699V315H1700V314H1701V312H1702V311H1703V310H1704V309H1705V308H1706V307H1707V306H1708V305H1709V304H1711V303H1712V302H1713V301H1715V300H1715.25C1716.17 300 1716.75 300 1717 300V299H1719V298H1721V297H1723V296H1723.25H1725.75H1726V295H1726.25H1728.75H1729V294H1729.25H1732.75H1733V293H1733.25H1738.75H1739V292H1739.25H1757.75H1758V293H1758.25H1762.75H1763V294H1763.25H1766.75H1767V295H1767.25H1769.75H1770V296H1772V297H1774V298H1776V299H1777V300H1778V301H1780V302H1781V304H1782V305H1783V306H1784V308H1785V308.25C1785 309.167 1785 309.75 1785 310H1786V312H1787V312.25V314.75V315H1788V315.25V318.75V319H1789V319.25V327.75V328H1790V330H1789V330.25V341.75V342H1788V342.25V346.75V347H1787V347.25V352.75V353H1786V353.25V358.75V359H1785V359.25V363.75V364H1784V364.25V369.75V370H1783V370.25V374.75V375H1782V375.25V380.75V381H1781V381.25V385.75V386H1780V386.25V391.75V392H1779V392.25V396.75V397H1778V397.25V402.75V403H1777V403.25V408.75V409H1776V409.25V413.75V414H1775V414.25V419.75V420H1774V420.25V424.75V425H1773V425.25V430.75V431H1772V431.25V435.75V436H1771V436.25V441.75V442H1770V442.25V446.75V447H1769V447.25V452.75V453H1768V453.25V457.75V458H1768.25H1827.75H1828V457.75V454.25V454H1829V453.75V449.25V449H1830V448.75V443.25V443H1831V442.75V438.25V438H1832V437.75V432.25V432H1833V431.75V426.25V426H1834V425.75V421.25V421H1835V420.75V415.25V415H1836V414.75V409.25V409H1837V408.75V404.25V404H1838V403.75V398.25V398H1839V397.75V392.25V392H1840V391.75V387.25V387H1841V386.75V381.25V381H1842V380.75V376.25V376H1843V375.75V370.25V370H1844V369.75V364.25V364H1845V363.75V359.25V359H1846V358.75V353.25V353H1847V352.75V347.25V347H1848V346.75V342.25V342H1849V341.75V336.25V336H1850V335.75V329.25V329H1851V328.75V315.25V315H1852V314.75V307.25V307H1851V306.75V295.25V295H1850V294.75V290.25V290H1849V289.75V285.25V285H1848V284.75V282.25V282H1847V281.75V279.25V279H1846V278.75V276.25V276H1845V274H1844V272H1843V270H1842V268H1841V266H1840V265H1839V263H1838V262H1837V261H1836V259H1835V258H1834V257H1833V256H1832V255H1831V254H1830V253H1828V252H1827V251H1826V250H1824V249H1823V248H1821V247H1820.75C1819.83 247 1819.25 247 1819 247V246H1817V245H1815V244H1813V243H1812.75H1810.25H1810V242H1809.75H1807.25H1807V241H1806.75H1803.25H1803V240H1802.75H1799.25H1799V239H1798.75H1793.25H1793V238H1792.75H1781.25H1781V237H1780.75H1770.25H1770V238H1769.75H1758.25H1758V239H1757.75H1752.25H1752V240H1751.75H1747.25H1747V241H1746.75H1743.25H1743V242H1742.75H1740.25H1740V243H1739.75H1737.25H1737V244H1736.75H1734.25H1734V245H1732V246H1730V247H1728V248H1726V249H1724V250H1722V251H1720V252H1719V253H1717V254H1716V255H1714V256H1713V257H1712V258H1710V259H1709V260H1708V261H1707V262H1706V263H1705V264H1704V265H1703V266H1702V267H1701V268H1700V269H1699V270H1698V271H1697V272H1696V273H1695V275H1694V276H1693V277H1692V279H1691V280H1690V282H1689V283H1688V285H1687V284.75V282.25V282H1686V281.75V279.25V279H1685V277H1684V276.75V274.25V274H1683V272H1682V270H1681V268H1680V267H1679V265H1678V264H1677V262H1676V261H1675V260H1674V258H1673V257H1672V256H1671V255H1670V254H1668V253H1667V252H1666V251H1665V250H1663V249H1662V248H1660V247H1659.75C1658.83 247 1658.25 247 1658 247V246H1656V245H1654V244H1652V243H1651.75H1649.25H1649V242H1647V241H1646.75H1643.25H1643V240H1642.75H1639.25H1639V239H1638.75H1633.25H1633V238H1632.75H1622.25H1622V237H1621.75H1611.25H1611V238H1610.75H1599.25H1599V239H1598.75H1593.25H1593V240H1592.75H1589.25H1589V241H1588.75H1585.25H1585V242H1584.75H1582.25H1582V243H1580V244H1579.75H1577.25H1577V245H1575V246H1573V247H1571V248H1569V249H1568V250H1566V251H1565V252H1563V253H1562V254H1560V255H1559V256H1558V257H1557V258H1555V259H1554V260H1553V261H1552V262H1551V263H1550V264H1549V265H1548V266H1547V267H1546V268H1545V269H1544V270H1543V271H1542V272H1541V273H1540V275H1539V276H1538V277H1537ZM1537 277V278H1536V277H1537ZM1535 279V280H1536V279H1535Z" stroke="#FDFDFD"/>
</g>
<path opacity="0.988235" d="M2001 237H2001.25H2011.75H2012V238H2012.25H2022.75H2023V239H2023.25H2027.75H2028V240H2028.25H2032.75H2033V241H2033.25H2035.75H2036V242H2036.25H2038.75H2039V243H2039.25H2041.75H2042V244H2044V245H2046V246H2048V247H2050V248H2052V249H2054V250H2055V251H2057V252H2058V253H2059V254H2061V255H2062V256H2063V257H2064V258H2065V259H2066V260H2067V261H2068V262H2069V263H2070V264H2071V265H2072V266H2073V268H2074V269H2075V270H2076V272H2077V273H2078C2078 273.25 2078 273.833 2078 274.75V275H2079V277H2080V278H2081V276H2080V275.75V273.25V273H2079V272.75V270.25V270H2078V269.75V265.25V265H2079V264.75V260.25V260H2080V259.75V255.25V255H2081V254.75V250.25V250H2082V249.75V245.25V245H2083C2083 244.75 2083 244.167 2083 243.25C2082.92 243 2083 242.917 2083.25 243H2141.75H2142V243.25V247.75V248H2141V248.25V253.75V254H2140V254.25V259.75V260H2139V260.25V264.75V265H2138V265.25V270.75V271H2137V271.25V275.75V276H2136V276.25V281.75V282H2135V282.25V287.75V288H2134V288.25V292.75V293H2133V293.25V298.75V299H2132V299.25V304.75V305H2131V305.25V309.75V310H2130V310.25V315.75V316H2129V316.25V321.75V322H2128V322.25V326.75V327H2127V327.25V332.75V333H2126V333.25V337.75V338H2125V338.25V343.75V344H2124V344.25V349.75V350H2123V350.25V354.75V355H2122V355.25V360.75V361H2121V361.25V366.75V367H2120V367.25V371.75V372H2119V372.25V377.75V378H2118V378.25V383.75V384H2117V384.25V388.75V389H2116V389.25V394.75V395H2115V395.25V399.75V400H2114V400.25V405.75V406H2113V406.25V411.75V412H2112V412.25V416.75V417H2111V417.25V422.75V423H2110V423.25V428.75V429H2109V429.25V433.75V434H2108V434.25V439.75V440H2107V440.25V445.75V446H2106V446.25V450.75V451H2105V451.25V456.75V457H2104V458H2103.75H2047.25H2047V457.75V454.25V454H2048V453.75V446.25V446H2049V445.75V437.25V437H2050V436.75V432.25V432H2049V433H2048V434H2047V435H2046V436H2045V437H2044V438H2043V439H2042V440H2041V441H2040V442H2038V443H2037V444H2036V445H2034V446H2033V447H2032V448H2030V449H2029V450H2027V451C2026.75 451 2026.17 451 2025.25 451H2025V452H2023V453H2022V454H2021.75H2019.25H2019V455H2017V456H2015V457H2014.75H2012.25H2012V458H2010V459H2009.75H2007.25H2007V460H2006.75H2003.25H2003V461H2002.75H1999.25H1999V462H1998.75H1994.25H1994V463H1993.75H1986.25H1986V464H1985.75H1962.25H1962V463H1961.75H1954.25H1954V462H1953.75H1949.25H1949V461H1948.75H1945.25H1945V460H1944.75H1942.25H1942V459H1941.75H1939.25H1939V458H1938.75H1936.25H1936V457H1934V456H1933.75H1931.25H1931V455H1929V454C1928.75 454 1928.17 454 1927.25 454H1927V453H1925V452H1924V451H1922V450H1921V449H1919V448H1918V447H1917V446H1915V445H1914V444H1913V443H1912V442H1911V441H1910V440H1909V439H1908V438H1907V437H1906V436H1905V435H1904V434H1903V433H1902V431H1901V430H1900V428H1899V427H1898V426H1897V424H1896C1896 423.75 1896 423.167 1896 422.25V422H1895V420H1894V419H1893V417H1892V416.75V414.25V414H1891V412H1890V410H1889V409.75V407.25V407H1888V406.75V404.25V404H1887V403.75V400.25V400H1886V399.75V396.25V396H1885V395.75V391.25V391H1884V390.75V384.25V384H1883V383.75V353.25V353H1884V352.75V345.25V345H1885V344.75V339.25V339H1886V338.75V335.25V335H1887V334.75V331.25V331H1888V330.75V327.25V327H1889V326.75V324.25V324H1890V323.75V321.25V321H1891V319H1892V318.75V316.25V316H1893V314H1894V312H1895V311.75V309.25V309H1896C1896 308.75 1896 308.167 1896 307.25V307H1897V305H1898V304H1899V302H1900C1900 301.75 1900 301.167 1900 300.25V300H1901V298H1902V297H1903V295H1904V294H1905V292H1906V291H1907V289H1908V288H1909V287H1910V285H1911V284H1912V283H1913V282H1914V281H1915V279H1916V278H1917V277H1918V276H1919V275H1920V274H1921V273H1922V272H1923V271H1924V270H1925V269H1926V268H1927V267H1928V266H1929V265H1931V264H1932V263H1933V262H1934V261H1936V260H1937V259H1938V258H1940V257H1941V256H1943V255H1944V254C1944.25 254 1944.83 254 1945.75 254H1946V253H1948V252H1949V251H1951V250H1953V249H1955V248H1957V247H1957.25H1959.75H1960V246H1962V245H1962.25H1964.75H1965V244H1967V243H1967.25H1970.75H1971V242H1971.25H1973.75H1974V241H1974.25H1977.75H1978V240H1978.25H1982.75H1983V239H1983.25H1988.75H1989V238H1989.25H2000.75H2001V237ZM2081 279V280H2082V279H2081ZM2003 290V291H1997.5H1997V292H1993.5H1993V293H1990.5H1990V294H1987.5H1987V295H1984.5H1984V296H1982V297H1980V298H1978V299H1977V300H1975V301C1974 301 1973.33 301 1973 301V302H1972V303H1971V304H1969V305H1968V306H1967V307H1966V308H1965V309H1964V310H1963V311H1962V312H1961V313H1960V314H1959V315H1958V317H1957V318H1956V319H1955V321H1954V322H1953V324H1952V324.5C1952 325.167 1952 325.667 1952 326H1951V328H1950V330H1949V332H1948V334H1947V334.5V337H1946V337.5V340H1945V340.5V344H1944V344.5V349H1943V349.5V360H1942V360.5V363H1943V363.5V373H1944V373.5V378H1945V378.5V381H1946V381.5V384H1947V386H1948V388H1949V390H1950V391H1951V393H1952V394H1953V395H1954V397H1955V398H1956V399H1957V400H1959V401H1960V402H1961V403H1963V404H1964V405H1966V406H1966.5C1967.17 406 1967.67 406 1968 406V407H1968.5H1971V408H1971.5H1974V409H1974.5H1977V410H1977.5H1982V411H1982.5H2005V410H2005.5H2010V409H2010.5H2015V408H2015.5H2018V407H2018.5H2021V406H2023V405H2025V404H2027V403H2029V402H2031V401H2033V400H2034V399H2036V398H2037V397H2038V396H2039V395H2041V394H2042V393H2043V392H2044V391H2045V390H2046V389H2047V388H2048V386H2049V385H2050V384H2051V383H2052V381H2053V380H2054V378H2055V377H2056V375H2057C2057 374 2057 373.333 2057 373H2058V371H2059V369H2060V366.5V366H2061V363.5V363H2062V360.5V360H2063V356.5V356H2064V351.5V351H2065V330.5V330H2064V325.5V325H2063V321.5V321H2062V318.5V318H2061V316H2060V314H2059V312H2058V310H2057V309H2056V308H2055V306H2054V305H2053V304H2052V303H2051V302H2050V301H2049V300H2047V299H2046V298H2044V297H2043V296H2041V295C2040 295 2039.33 295 2039 295V294H2036.5H2036V293H2033.5H2033V292H2030.5H2030V291H2024.5H2024V290H2003.5H2003Z" fill="#FDFDFD" stroke="#FDFDFD"/>
<path opacity="0.988235" d="M2804 237H2804.25H2830.75H2831V238H2831.25H2838.75H2839V239H2839.25H2844.75H2845V240H2845.25H2848.75H2849V241H2849.25H2852.75H2853V242H2853.25H2855.75H2856V243H2856.25H2858.75H2859V244H2859.25H2861.75H2862V245H2862.25H2864.75H2865V246H2867V247H2869V248C2869.25 248 2869.83 248 2870.75 248H2871V249H2873V250H2874V251H2876V252H2878V253H2879V254H2881V255H2882V256H2883V257H2884V258H2886V259H2887V260H2888V261H2889V262H2890V263H2891V264H2892V265H2893V266H2894V268H2895V269H2896V270H2897V271H2898V273H2899V274H2900V275H2901V277H2902V279H2903V280H2904V282H2905V284H2906V286H2907V288H2908V290H2909V290.25V292.75V293H2910V295H2911V295.25V297.75V298H2912V298.25V301.75V302H2913V302.25V305.75V306H2914V306.25V309.75V310H2915V310.25V316.75V317H2916V317.25V328.75V329H2917V329.25V337.75V338H2916V338.25V350.75V351H2915V351.25V357.75V358H2914V358.25V362.75V363H2913V363.25V366.75V367H2912V367.25V370.75V371H2911V371.25V373.75V374H2910V374.25V376.75V377H2909V377.25V379.75V380H2908V380.25V382.75V383H2907V385H2906V387H2905V389H2904V391H2903V393H2902V395H2901C2901 395.25 2901 395.833 2901 396.75V397H2900V399H2899V400H2898V402H2897V403H2896V405H2895V406H2894V408H2893V409H2892V411H2891V412H2890V413H2889V414H2888V416H2887V417H2886V418H2885V419H2884V420H2883V421H2882V422H2881V423H2880V424H2879V425H2878V426H2877V427H2876V428H2875V429H2874V430H2873V431H2872V432H2871V433H2870V434H2869V435H2867V436H2866V437H2865V438H2863V439H2862V440H2861V441H2859V442H2858V443H2856V444H2855V445C2854.75 445 2854.17 445 2853.25 445H2853V446H2851V447H2850V448H2848V449H2846V450H2844V451H2842V452H2840V453H2839.75H2837.25H2837V454H2835V455H2834.75H2832.25H2832V456H2830V457H2829.75H2827.25H2827V458H2826.75H2823.25H2823V459H2822.75H2820.25H2820V460H2819.75H2816.25H2816V461H2815.75H2811.25H2811V462H2810.75H2805.25H2805V463H2804.75H2796.25H2796V464H2795.75H2769.25H2769V463H2768.75H2760.25H2760V462H2759.75H2755.25H2755V461H2754.75H2750.25H2750V460H2749.75H2746.25H2746V459H2745.75H2743.25H2743V458H2742.75H2740.25H2740V457H2738V456H2737.75H2735.25H2735V455H2733V454H2731V453H2729V452C2728.75 452 2728.17 452 2727.25 452H2727V451H2725V450H2724V449H2722V448H2721V447H2719V446H2718V445H2717V444H2716V443H2714V442H2713V441H2712V440H2711V439H2710V438H2709V437H2708V436H2707V435H2706V434H2705V432H2704V431H2703V430H2702V429H2701V427H2700V426H2699V424H2698V423H2697V421H2696V419H2695V417H2694V415H2693V413H2692V411H2691V410.75V408.25V408H2690V406H2689V405.75V403.25V403H2688V402.75V399.25V399H2687V398.75V395.25V395H2686V394.75V391.25V391H2685V390.75V384.25V384H2684V383.75V370.25V370H2683V369.75V364.25V364H2684V363.75V350.25V350H2685V349.75V343.25V343H2686V342.75V338.25V338H2687V337.75V334.25V334H2688V333.75V330.25V330H2689V329.75V327.25V327H2690V326.75V324.25V324H2691V323.75V321.25V321H2692V320.75V318.25V318H2693V316H2694V314H2695V313.75V311.25V311H2696C2696 310.75 2696 310.167 2696 309.25V309H2697V307H2698V306H2699V304H2700C2700 303.75 2700 303.167 2700 302.25V302H2701V300H2702V299H2703V297H2704V296H2705V294H2706V293H2707V291H2708V290H2709V289H2710V288H2711V286H2712V285H2713V284H2714V283H2715V282H2716V280H2717V279H2718V278H2719V277H2720V276H2721V275H2722V274H2723V273H2724V272H2725V271H2726V270H2728V269H2729V268H2730V267H2731V266H2732V265H2734V264H2735V263H2736V262H2738V261H2739V260H2740V259H2742V258H2743V257C2743.25 257 2743.83 257 2744.75 257H2745V256H2747V255H2748V254H2750V253H2752V252H2754V251H2756V250H2758V249H2760V248H2762V247H2762.25H2764.75H2765V246H2767V245H2767.25H2769.75H2770V244H2770.25H2772.75H2773V243H2773.25H2775.75H2776V242H2776.25H2779.75H2780V241H2780.25H2783.75H2784V240H2784.25H2788.75H2789V239H2789.25H2794.75H2795V238H2795.25H2803.75H2804V237ZM2804 270V271H2796.5H2796V272H2791.5H2791V273H2787.5H2787V274H2783.5H2783V275H2780.5H2780V276H2778V277H2775.5H2775V278H2773V279H2771V280H2769V281H2767V282H2765V283H2764V284H2762V285H2761V286H2759V287H2758V288H2756V289H2755V290H2754V291H2753V292H2752V293H2751V294H2749V295H2748V296H2747V297H2746V299H2745V300H2744V301H2743V302H2742V303H2741V304H2740V306H2739V307H2738V308H2737V310H2736V311H2735V313H2734V314H2733V316H2732V316.5C2732 317.167 2732 317.667 2732 318H2731V320H2730V322H2729V324H2728V326H2727V328H2726V328.5V331H2725V331.5V334H2724V334.5V337H2723V337.5V341H2722V341.5V346H2721V346.5V353H2720V353.5V377H2721V377.5V383H2722V383.5V387H2723V387.5V391H2724V393H2725V393.5V396H2726V398H2727V400H2728V402H2729V404H2730V405H2731V407H2732V408H2733V409H2734V411H2735V412H2736V413H2737V414H2738V415H2739V416H2740V417H2742V418H2743V419H2744V420H2746V421H2747V422H2749V423H2749.5C2750.17 423 2750.67 423 2751 423V424H2753V425H2755V426H2755.5H2758V427H2758.5H2761V428H2761.5H2764V429H2764.5H2769V430H2769.5H2776V431H2776.5H2796V430H2796.5H2804V429H2804.5H2809V428H2809.5H2813V427H2813.5H2817V426H2817.5H2820V425H2822V424H2822.5H2825V423H2827V422H2829V421H2831V420H2833V419H2835V418H2836V417H2838V416H2839V415H2841V414H2842V413H2843V412H2845V411H2846V410H2847V409H2848V408H2849V407H2850V406H2851V405H2852V404H2853V403H2854V402H2855V401H2856V400H2857V399H2858V398H2859V397H2860V395H2861V394H2862V393H2863V391H2864V390H2865V388H2866V387H2867V385H2868C2868 384 2868 383.333 2868 383H2869V381H2870V379H2871V377H2872V375H2873V373H2874V370.5V370H2875V367.5V367H2876V364.5V364H2877V360.5V360H2878V355.5V355H2879V349.5V349H2880V324.5V324H2879V318.5V318H2878V314.5V314H2877V310.5V310H2876V308H2875V305.5V305H2874V303H2873V301H2872V299H2871V297H2870V296H2869V294H2868V293H2867V292H2866V290H2865V289H2864V288H2863V287H2862V286H2861V285H2860V284H2858V283H2857V282H2856V281H2854V280H2853V279H2851V278C2850 278 2849.33 278 2849 278V277H2847V276H2845V275H2842.5H2842V274H2839.5H2839V273H2835.5H2835V272H2831.5H2831V271H2823.5H2823V270H2804.5H2804Z" fill="#FDFDFD" stroke="#FDFDFD"/>
<path opacity="0.988235" d="M3073 237H3073.25H3098.75H3099V238H3099.25H3107.75H3108V239H3108.25H3112.75H3113V240H3113.25H3117.75H3118V241H3118.25H3121.75H3122V242H3122.25H3124.75H3125V243H3125.25H3127.75H3128V244H3128.25H3130.75H3131V245H3133V246H3135V247H3137V248H3139V249H3141V250C3141.25 250 3141.83 250 3142.75 250H3143V251H3145V252H3146V253H3148V254H3149V255H3150V256H3152V257H3153V258H3154V259H3155V260H3156V261H3157V262H3158V263H3159V264H3160V265H3161V266H3162V267H3163V268H3164V269H3165V270H3166V272H3167V273H3168V275H3169V276H3170V278H3171V279H3172V281H3173V283H3174V285H3175V287H3176V289H3177V291H3178V291.25V293.75V294H3179V294.25V296.75V297H3180V297.25V299.75V300H3181V300.25V302.75V303H3182V303.25V306.75V307H3183V307.25V312.75V313H3184V313.25V319.75V320H3185V320.25V347.75V348H3184V348.25V355.75V356H3183V356.25V360.75V361H3182V361.25V365.75V366H3181V366.25V369.75V370H3180V370.25V372.75V373H3179V373.25V375.75V376H3178V376.25V378.75V379H3177V379.25V381.75V382H3176V384H3175V386H3174V388H3173V388.25V390.75V391H3172V393H3171V394H3170V396H3169C3169 396.25 3169 396.833 3169 397.75V398H3168V400H3167V401H3166V403H3165V404H3164V406H3163V407H3162V409H3161V410H3160V411H3159V413H3158V414H3157V415H3156V416H3155V418H3154V419H3153V420H3152V421H3151V422H3150V423H3149V424H3148V425H3147V426H3146V427H3145V428H3144V429H3143V430H3142V431H3141V432H3140V433H3138V434H3137V435H3136V436H3135V437H3133V438H3132V439H3131V440H3129V441H3128V442H3126V443H3125V444H3123V445H3122V446H3120V447C3119.75 447 3119.17 447 3118.25 447H3118V448H3116V449H3115V450H3113V451H3112.75H3110.25H3110V452H3108V453H3106V454H3104V455H3103.75H3101.25H3101V456H3100.75H3098.25H3098V457H3097.75H3095.25H3095V458H3094.75H3092.25H3092V459H3091.75H3088.25H3088V460H3087.75H3084.25H3084V461H3083.75H3079.25H3079V462H3078.75H3073.25H3073V463H3072.75H3065.25H3065V464H3064.75H3037.25H3037V463H3036.75H3029.25H3029V462H3028.75H3023.25H3023V461H3022.75H3019.25H3019V460H3018.75H3015.25H3015V459H3014.75H3012.25H3012V458H3011.75H3009.25H3009V457H3008.75H3006.25H3006V456H3004V455H3002V454H3001.75H2999.25H2999V453H2998V452H2996V451C2995.75 451 2995.17 451 2994.25 451H2994V450H2992V449H2991V448H2989V447H2988V446H2987V445H2985V444H2984V443H2983V442H2982V441H2981V440H2980V439H2979V438H2978V437H2977V436H2976V435H2975V434H2974V433H2973V432H2972V430H2971V429H2970V428H2969V426H2968V425H2967V423H2966V422H2965V420H2964V418H2963V416H2962V414H2961V412H2960V411.75V409.25V409H2959V407H2958V406.75V404.25V404H2957V403.75V401.25V401H2956V400.75V397.25V397H2955V396.75V393.25V393H2954V392.75V387.25V387H2953V386.75V379.25V379H2952V378.75V356.25V356H2953V355.75V347.25V347H2954V346.75V341.25V341H2955V340.75V336.25V336H2956V335.75V332.25V332H2957V331.75V329.25V329H2958V328.75V325.25V325H2959V323H2960V322.75V320.25V320H2961V319.75V317.25V317H2962V315H2963V313H2964V311H2965V309H2966V307H2967V305H2968C2968 304.75 2968 304.167 2968 303.25V303H2969V301H2970V300H2971V298H2972V297H2973V295H2974V294H2975V292H2976V291H2977V290H2978V288H2979V287H2980V286H2981V285H2982V283H2983V282H2984V281H2985V280H2986V279H2987V278H2988V277H2989V276H2990V275H2991V274H2992V273H2993V272H2994V271H2995V270H2996V269H2997V268H2999V267H3000V266H3001V265H3002V264H3003V263H3005V262H3006V261H3008V260H3009V259H3010V258C3010.25 258 3010.83 258 3011.75 258H3012V257H3014V256H3015V255H3017V254C3017.25 254 3017.83 254 3018.75 254H3019V253H3021V252H3022V251H3024V250H3026V249H3026.25H3028.75H3029V248H3031V247H3033V246H3033.25H3035.75H3036V245H3036.25H3038.75H3039V244H3039.25H3041.75H3042V243H3042.25H3044.75H3045V242H3045.25H3048.75H3049V241H3049.25H3052.75H3053V240H3053.25H3057.75H3058V239H3058.25H3063.75H3064V238H3064.25H3072.75H3073V237ZM3073 270V271H3065.5H3065V272H3060.5H3060V273H3056.5H3056V274H3052.5H3052V275H3049.5H3049V276H3046.5H3046V277H3044V278H3042V279H3039.5H3039V280H3037V281H3036V282H3034V283C3033 283 3032.33 283 3032 283V284H3031V285H3029V286H3028V287H3026V288H3025V289H3024V290H3023V291H3021V292H3020V293H3019V294H3018V295H3017V296H3016V297H3015V298H3014V299H3013V300H3012V301H3011V303H3010V304H3009V305H3008V306H3007V308H3006V309H3005V311H3004V312H3003V314H3002V315H3001V317H3000V317.5C3000 318.167 3000 318.667 3000 319H2999V321H2998V323H2997V325H2996V327H2995V327.5V330H2994V330.5V333H2993V333.5V336H2992V336.5V340H2991V340.5V344H2990V344.5V350H2989V350.5V360H2988V360.5V370H2989V370.5V380H2990V380.5V385H2991V385.5V389H2992V389.5V392H2993V394H2994V394.5V397H2995V399H2996V401H2997V403H2998V404H2999V406H3000V407H3001V409H3002V410H3003V411H3004V412H3005V413H3006V414H3007V415H3008V416H3009V417H3010V418H3011V419H3013V420H3014V421H3016V422H3018V423H3019V424H3021V425H3021.5H3024V426H3026V427H3026.5H3029V428H3029.5H3033V429H3033.5H3038V430H3038.5H3045V431H3045.5H3065V430H3065.5H3072V429H3072.5H3078V428H3078.5H3082V427H3082.5H3085V426H3085.5H3088V425H3088.5H3091V424H3093V423H3093.5H3096V422H3098V421H3100V420H3101V419H3103V418H3103.5C3104.17 418 3104.67 418 3105 418V417H3106V416H3108V415H3109V414H3111V413H3112V412H3113V411H3115V410H3116V409H3117V408H3118V407H3119V406H3120V405H3121V404H3122V403H3123V402H3124V401H3125V400H3126V399H3127V397H3128V396H3129V395H3130V393H3131V392H3132V391H3133V389H3134V388H3135V386H3136C3136 385 3136 384.333 3136 384H3137V382H3138V381H3139V379H3140V376.5V376H3141V374H3142V372H3143V369.5V369H3144V366.5V366H3145V362.5V362H3146V358.5V358H3147V353.5V353H3148V345.5V345H3149V328.5V328H3148V320.5V320H3147V315.5V315H3146V312.5V312H3145V309.5V309H3144V306.5V306H3143V304H3142V302H3141V300H3140V298H3139V296H3138V295H3137V293H3136V292H3135V291H3134V290H3133V289H3132V288H3131V287H3130V286H3129V285H3128V284H3127V283H3126V282H3124V281H3123V280H3121V279H3120V278H3118V277C3117 277 3116.33 277 3116 277V276H3113.5H3113V275H3111V274H3108.5H3108V273H3104.5H3104V272H3099.5H3099V271H3092.5H3092V270H3073.5H3073Z" fill="#FDFDFD" stroke="#FDFDFD"/>
<path opacity="0.988235" d="M2188 243H2188.25H2248.75H2249V244H2248V244.25V249.75V250H2247V250.25V255.75V256H2246V256.25V260.75V261H2245V261.25V266.75V267H2244V267.25V272.75V273H2243V273.25V277.75V278H2242V278.25V283.75V284H2241V284.25V289.75V290H2240V290.25V294.75V295H2239V295.25V300.75V301H2238V301.25V306.75V307H2237V307.25V311.75V312H2236V312.25V317.75V318H2235V318.25V323.75V324H2234V324.25V328.75V329H2233V329.25V334.75V335H2232V335.25V340.75V341H2231V341.25V345.75V346H2230V346.25V351.75V352H2229V352.25V357.75V358H2228V358.25V362.75V363H2227V363.25V368.75V369H2226V369.25V374.75V375H2225V375.25V379.75V380H2224V380.25V385.75V386H2223V386.25V391.75V392H2222V392.25V396.75V397H2221V397.25V402.75V403H2220V403.25V408.75V409H2219V409.25V413.75V414H2218V414.25V419.75V420H2217V420.25V425.75V426H2216V426.25V430.75V431H2215V431.25V436.75V437H2214V437.25V442.75V443H2213V443.25V447.75V448H2212V448.25V453.75V454H2211V454.25V457.75V458H2210.75H2151.25H2151V457.75V453.25V453H2152V452.75V447.25V447H2153V446.75V441.25V441H2154V440.75V436.25V436H2155V435.75V430.25V430H2156V429.75V424.25V424H2157V423.75V419.25V419H2158V418.75V413.25V413H2159V412.75V407.25V407H2160V406.75V402.25V402H2161V401.75V396.25V396H2162V395.75V390.25V390H2163V389.75V385.25V385H2164V384.75V379.25V379H2165V378.75V373.25V373H2166V372.75V368.25V368H2167V367.75V362.25V362H2168V361.75V356.25V356H2169V355.75V351.25V351H2170V350.75V345.25V345H2171V344.75V339.25V339H2172V338.75V334.25V334H2173V333.75V328.25V328H2174V327.75V322.25V322H2175V321.75V317.25V317H2176V316.75V311.25V311H2177V310.75V305.25V305H2178V304.75V300.25V300H2179V299.75V294.25V294H2180V293.75V288.25V288H2181V287.75V283.25V283H2182V282.75V277.25V277H2183V276.75V271.25V271H2184V270.75V266.25V266H2185V265.75V260.25V260H2186V259.75V254.25V254H2187V253.75V249.25V249H2188V248.75V243.25V243Z" fill="#FDFDFD" stroke="#FDFDFD"/>
</g>
<defs>
<clipPath id="clip0_442_5740">
<rect width="3840" height="640" fill="white"/>
</clipPath>
</defs>
</svg>
