<svg width="3390" height="619" viewBox="0 0 3390 619" fill="none" xmlns="http://www.w3.org/2000/svg">
<path opacity="0.976471" d="M1855.53 0.5H1855.78H1861.28H1861.53V1.5H1861.78H1881.28H1881.53V2.5H1881.78H1891.28H1891.53V3.5H1891.78H1898.28H1898.53V4.5H1898.78H1905.28H1905.53V5.5H1905.78H1910.28H1910.53V6.5H1910.78H1916.28H1916.53V7.5H1916.78H1921.28H1921.53V8.5H1921.78H1926.28H1926.53V9.5H1926.78H1929.28H1929.53V10.5H1929.78H1936.28H1936.53V11.5H1936.78H1941.28H1941.53V12.5H1941.78H1946.28H1946.53V13.5H1948.53V14.5H1948.78H1952.28H1952.53V15.5H1952.78H1955.28H1955.53V16.5H1957.53V17.5H1957.78H1960.28H1960.53V18.5H1962.53V19.5H1962.78H1965.28H1965.53V20.5H1967.53V21.5H1967.78H1971.28H1971.53V22.5H1971.78H1974.28H1974.53V23.5H1976.53V24.5H1978.53V25.5H1980.53V26.5H1982.53V27.5H1984.53V28.5H1986.53V29.5H1988.53V30.5H1990.53V31.5H1990.78H1994.28H1994.53V32.5H1996.53V33.5H1998.53V34.5H1999.53V35.5H2001.53V36.5H2003.53V37.5C2003.78 37.5 2004.36 37.5 2005.28 37.5H2005.53V38.5H2007.53V39.5H2008.53V40.5H2009.53V41.5H2009.78H2013.28H2013.53V42.5H2015.53V43.5H2016.53V44.5H2018.53V45.5H2019.53V46.5H2021.53V47.5H2022.53V48.5C2022.78 48.5 2023.36 48.5 2024.28 48.5H2024.53V49.5H2026.53V50.5H2027.53V51.5H2029.53V52.5C2029.78 52.5 2030.36 52.5 2031.28 52.5H2031.53V53.5H2033.53V54.5H2034.53V55.5H2036.53V56.5H2037.53V56.75V60.25V60.5H2036.53V61.5H2035.53V63.5H2034.53V64.5H2033.53C2033.53 64.75 2033.53 65.3333 2033.53 66.25V66.5H2032.53V68.5H2031.53V69.5H2030.53V71.5H2029.53V73.5H2028.53V75.5H2027.53C2027.53 75.75 2027.53 76.3333 2027.53 77.25V77.5H2026.53V79.5H2025.53V80.5H2024.53V81.5H2023.53V83.5H2022.53V85.5H2021.53V86.5H2020.53C2020.53 86.75 2020.53 87.3333 2020.53 88.25V88.5H2019.53V90.5H2018.53V91.5H2017.53V92.5H2016.53V91.5C2016.28 91.5 2015.7 91.5 2014.78 91.5H2014.53V90.5H2012.53V89.5H2011.53V88.5H2009.53V87.5H2008.53V86.5H2007.53V85.5H2006.53V84.5H2004.53V83.5H2003.53V82.5H2001.53V81.5H1999.53V80.5C1999.28 80.5 1998.7 80.5 1997.78 80.5H1997.53V79.5H1995.53V78.5H1994.53V77.5H1992.53V76.5C1992.28 76.5 1991.7 76.5 1990.78 76.5H1990.53V75.5H1988.53V74.5H1987.53V73.5H1985.53V72.5H1983.53V71.5H1983.28H1979.78H1979.53V70.5H1978.53V69.5H1976.53V68.5H1976.28H1973.78H1973.53V67.5H1971.53V66.5H1971.28H1968.78H1968.53V65.5H1967.53V64.5H1967.28H1964.78H1964.53V63.5H1962.53V62.5H1962.28H1959.78H1959.53V61.5H1959.28H1955.78H1955.53V60.5H1955.28H1952.78H1952.53V59.5H1952.28H1949.78H1949.53V58.5H1949.28H1946.78H1946.53V57.5H1946.28H1943.78H1943.53V56.5H1943.28H1940.78H1940.53V55.5H1940.28H1937.78H1937.53V54.5H1937.28H1934.78H1934.53V53.5H1934.28H1930.78H1930.53V52.5H1930.28H1927.78H1927.53V51.5H1927.28H1920.78H1920.53V50.5H1920.28H1917.78H1917.53V49.5H1917.28H1912.78H1912.53V48.5H1912.28H1908.78H1908.53V47.5H1908.28H1904.78H1904.53V46.5H1904.28H1898.78H1898.53V45.5H1898.28H1893.78H1893.53V44.5H1893.28H1887.78H1887.53V43.5H1887.28H1878.78H1878.53V42.5H1878.28H1865.78H1865.53V41.5H1865.28H1846.78H1846.53V42.5H1846.28H1835.78H1835.53V43.5H1835.28H1828.78H1828.53V44.5H1828.28H1824.78H1824.53V45.5H1824.28H1820.78H1820.53V46.5H1820.28H1816.78H1816.53V47.5H1814.53V48.5H1814.28H1811.78H1811.53V49.5H1809.53V50.5H1809.28H1806.78H1806.53V51.5H1806.28H1803.78H1803.53V52.5H1801.53V53.5H1799.53V54.5C1799.28 54.5 1798.7 54.5 1797.78 54.5H1797.53V55.5H1795.53V56.5H1794.53V57.5H1792.53V58.5C1792.28 58.5 1791.7 58.5 1790.78 58.5H1790.53V59.5H1788.53V60.5H1787.53V61.5H1787.28H1784.78H1784.53V62.5H1783.53V63.5H1781.53V64.5H1780.53V65.5H1779.53V66.5H1777.53V67.5H1776.53V68.5H1775.53V69.5H1774.53V70.5H1773.53V71.5H1771.53V72.5H1770.53V73.5H1769.53V74.5H1768.53V75.5H1767.53V76.5H1766.53C1766.53 76.75 1766.53 77.3333 1766.53 78.25V78.5H1765.53V80.5H1764.53V81.5H1763.53V82.5H1762.53V84.5H1761.53V85.5H1760.53V87.5H1759.53C1759.53 87.75 1759.53 88.3333 1759.53 89.25V89.5H1758.53V91.5H1757.53V92.5H1756.53V94.5H1755.53V94.75V98.25V98.5H1754.53V98.75V101.25V101.5H1753.53V103.5H1752.53V103.75V106.25V106.5H1751.53V106.75V110.25V110.5H1750.53V110.75V113.25V113.5H1749.53V113.75V119.25V119.5H1748.53V119.75V139.25V139.5H1749.53V139.75V144.25V144.5H1750.53V144.75V148.25V148.5H1751.53V148.75V151.25V151.5H1752.53V153.5H1753.53V155.5H1754.53V155.75V158.25V158.5H1755.53V158.75V162.25V162.5H1756.53V163.5H1757.53V164.5H1758.53V166.5H1759.53V167.5H1760.53V168.5H1761.53V170.5H1762.53V171.5H1763.53V172.5H1764.53V173.5H1765.53V175.5H1766.53V176.5H1767.53V177.5H1768.53V178.5H1769.53V179.5H1770.53V180.5H1771.53V181.5H1772.53V183.5H1774.53V184.5H1775.53V186.5H1776.53V187.5H1777.53V188.5H1778.53V189.5H1779.53V190.5H1780.53V191.5H1782.53V192.5H1783.53V193.5H1784.53V194.5H1785.53V195.5H1786.53V196.5H1787.53V197.5H1789.53V198.5H1790.53V199.5H1791.53V200.5H1792.53V201.5H1794.53V202.5H1795.53V203.5H1797.53V204.5H1798.53V205.5H1800.53V206.5H1801.53V207.5H1802.53V208.5H1804.53V209.5H1805.53V210.5H1806.53V211.5H1808.53V212.5H1809.53V213.5H1809.78H1813.28H1813.53V214.5H1814.53V215.5H1815.53V216.5H1817.53V217.5H1819.53V218.5H1820.53V219.5H1822.53V220.5C1822.78 220.5 1823.36 220.5 1824.28 220.5H1824.53V221.5H1826.53V223.5H1826.78H1830.28H1830.53V224.5H1832.53V225.5C1832.78 225.5 1833.36 225.5 1834.28 225.5H1834.53V226.5H1836.53V228.5H1838.53V229.5H1840.53V230.5H1842.53V231.5H1844.53V232.5H1846.53V233.5H1848.53V234.5H1850.53V235.5H1852.53V236.5C1852.78 236.5 1853.36 236.5 1854.28 236.5H1854.53V237.5H1856.53V238.5H1857.53V239.5H1859.53V240.5H1861.53V241.5C1861.78 241.5 1862.36 241.5 1863.28 241.5H1863.53V242.5H1865.53V243.5H1866.53V244.5H1866.78H1870.28H1870.53V245.5H1872.53V246.5C1872.78 246.5 1873.36 246.5 1874.28 246.5H1874.53V247.5H1876.53V248.5H1877.53V249.5H1879.53V250.5H1879.78H1882.28H1882.53V251.5C1882.78 251.5 1883.36 251.5 1884.28 251.5H1884.53V252.5H1886.53V253.5H1887.53V254.5H1887.78H1891.28H1891.53V255.5H1891.78H1894.28H1894.53V256.5H1896.53V257.5H1897.53V258.5H1899.53V259.5H1899.78H1902.28H1902.53V260.5C1902.78 260.5 1903.36 260.5 1904.28 260.5H1904.53V261.5H1906.53V262.5H1907.53V263.5H1909.53V264.5H1909.78H1913.28H1913.53V265.5H1915.53V266.5H1917.53V267.5H1918.53V268.5H1920.53V269.5H1922.53V270.5C1922.78 270.5 1923.36 270.5 1924.28 270.5H1924.53V271.5H1926.53V272.5H1927.53V273.5H1928.53V274.5H1928.78H1932.28H1932.53V275.5H1934.53V276.5H1936.53V277.5H1937.53V278.5H1938.53V279.5H1940.53V280.5H1941.53V281.5C1941.78 281.5 1942.36 281.5 1943.28 281.5H1943.53V282.5H1945.53V283.5H1946.53V284.5H1946.78H1949.28H1949.53V285.5H1950.53V286.5C1950.78 286.5 1951.36 286.5 1952.28 286.5H1952.53V287.5H1954.53V288.5H1955.53V289.5H1957.53V290.5H1958.53V291.5H1959.53V292.5H1960.53V293.5H1962.53V294.5C1962.78 294.5 1963.36 294.5 1964.28 294.5H1964.53V295.5H1966.53V296.5H1967.53V297.5H1968.53V298.5H1970.53V299.5H1971.53V300.5H1972.53V301.5H1974.53V302.5H1975.53V303.5H1977.53V304.5H1978.53V305.5H1980.53V306.5H1981.53V307.5H1982.53V308.5H1984.53V309.5H1985.53V310.5H1986.53V311.5H1988.53V313.5H1989.53V314.5H1990.53V315.5H1990.78H1993.28H1993.53V316.5H1994.53V317.5H1995.53V318.5H1997.53V319.5H1998.53V321.5H1999.53V322.5H2000.53V323.5H2001.53V324.5C2001.78 324.5 2002.36 324.5 2003.28 324.5H2003.53V325.5H2005.53V326.5H2006.53V327.5H2007.53V328.5H2008.53V330.5H2009.53V331.5H2010.53V332.5H2011.53V333.5H2012.53V334.5H2013.53V335.5H2015.53V336.5H2016.53V337.5H2017.53V338.5H2018.53V340.5H2019.53V341.5H2020.53V342.5H2021.53V343.5H2022.53V344.5H2023.53V345.5H2024.53V346.5H2025.53V347.5H2026.53V348.5H2027.53V350.5H2028.53V351.5H2029.53V351.75V354.25V354.5H2030.53V355.5H2031.53V356.5H2032.53V357.5H2033.53V359.5H2034.53V360.5H2035.53V362.5H2036.53C2036.53 362.75 2036.53 363.333 2036.53 364.25V364.5H2037.53V366.5H2038.53V367.5H2039.53V367.75V370.25V370.5H2040.53C2040.53 370.75 2040.53 371.333 2040.53 372.25V372.5H2041.53V374.5H2042.53V375.5H2043.53V377.5H2044.53V379.5H2045.53V379.75V382.25V382.5H2046.53V384.5H2047.53V386.5H2048.53V388.5H2049.53V388.75V395.25V395.5H2050.53V397.5H2051.53V397.75V401.25V401.5H2052.53V401.75V405.25V405.5H2053.53V405.75V409.25V409.5H2054.53V409.75V415.25V415.5H2055.53V415.75V422.25V422.5H2056.53V422.75V433.25V433.5H2057.53V433.75V448.25V448.5H2056.53V448.75V457.25V457.5H2055.53V457.75V464.25V464.5H2054.53V464.75V469.25V469.5H2053.53V469.75V474.25V474.5H2052.53V474.75V478.25V478.5H2051.53V478.75V482.25V482.5H2050.53V482.75V486.25V486.5H2049.53V486.75V492.25V492.5H2048.53V492.75V496.25V496.5H2047.53V498.5H2046.53V500.5H2045.53V500.75V503.25V503.5H2044.53V503.75V506.25V506.5H2043.53V507.5H2042.53V507.75V510.25V510.5H2041.53V512.5H2040.53V514.5H2039.53V514.75V518.25V518.5H2038.53V520.5H2037.53V522.5H2036.53C2036.53 522.75 2036.53 523.333 2036.53 524.25V524.5H2035.53V526.5H2034.53V527.5H2033.53V528.5H2032.53V530.5H2031.53V532.5H2030.53C2030.53 532.75 2030.53 533.333 2030.53 534.25V534.5H2029.53V536.5H2028.53V537.5H2027.53V539.5H2026.53V540.5H2025.53V541.5H2024.53V543.5H2023.53V544.5H2022.53V545.5H2021.53V546.5H2020.53V547.5H2019.53V548.5H2018.53V550.5H2017.53V551.5H2016.53V552.5H2015.53V553.5H2014.53V554.5H2013.53V555.5H2012.53V556.5H2011.53V557.5H2010.53V558.5H2008.53V560.5H2007.53V561.5H2006.53V562.5H2005.53V563.5H2004.53V564.5H2003.53V565.5H2001.53V566.5H2000.53V567.5H1999.53V568.5H1998.53V569.5H1996.53V570.5H1995.53V571.5H1994.53V572.5H1993.53V573.5H1991.53V574.5H1990.53V575.5H1989.53V576.5H1988.53V577.5H1987.53V578.5H1987.28H1984.78H1984.53V579.5H1982.53V580.5H1981.53V581.5H1979.53V582.5H1978.53V583.5H1977.53V584.5H1975.53V585.5H1974.53V586.5H1972.53V587.5H1970.53V588.5H1968.53V589.5H1966.53V590.5H1964.53V591.5H1962.53V592.5C1962.28 592.5 1961.7 592.5 1960.78 592.5H1960.53V593.5H1958.53V594.5H1957.53V595.5H1957.28H1954.78H1954.53V596.5H1952.53V597.5H1950.53V598.5H1950.28H1946.78H1946.53V599.5H1944.53V600.5H1944.28H1941.78H1941.53V601.5H1941.28H1938.78H1938.53V602.5H1937.53V603.5H1937.28H1934.78H1934.53V604.5H1934.28H1931.78H1931.53V605.5H1931.28H1927.78H1927.53V606.5H1925.53V607.5H1925.28H1922.78H1922.53V608.5H1922.28H1917.78H1917.53V609.5H1917.28H1911.78H1911.53V610.5H1911.28H1907.78H1907.53V611.5H1907.28H1903.78H1903.53V612.5H1903.28H1897.78H1897.53V613.5H1897.28H1892.78H1892.53V614.5H1892.28H1886.78H1886.53V615.5H1886.28H1878.78H1878.53V616.5H1878.28H1869.78H1869.53V617.5H1869.28H1855.78H1855.53V618.5H1855.28H1820.78H1820.53V617.5H1820.28H1807.78H1807.53V616.5H1807.28H1799.78H1799.53V615.5H1799.28H1793.78H1793.53V614.5H1793.28H1786.78H1786.53V613.5H1786.28H1782.78H1782.53V612.5H1782.28H1777.78H1777.53V611.5H1777.28H1773.78H1773.53V610.5H1773.28H1769.78H1769.53V609.5H1769.28H1764.78H1764.53V608.5H1764.28H1758.78H1758.53V607.5H1758.28H1755.78H1755.53V606.5H1755.28H1752.78H1752.53V605.5H1752.28H1749.78H1749.53V604.5H1749.28H1746.78H1746.53V603.5H1744.53V602.5H1742.53V601.5H1742.28H1739.78H1739.53V600.5H1739.28H1736.78H1736.53V599.5H1735.53V598.5H1735.28H1729.78H1729.53V597.5H1729.28H1726.78H1726.53V596.5H1724.53V595.5H1724.28H1721.78H1721.53V594.5H1721.28H1718.78H1718.53V593.5H1716.53V592.5H1714.53V591.5H1714.28H1711.78H1711.53V590.5H1709.53V589.5H1709.28H1706.78H1706.53V588.5H1706.28H1702.78H1702.53V587.5H1700.53V586.5H1700.28H1697.78H1697.53V585.5H1695.53V584.5H1694.53V583.5H1692.53V582.5H1692.28H1689.78H1689.53V581.5C1689.28 581.5 1688.7 581.5 1687.78 581.5H1687.53V580.5H1685.53V579.5H1684.53V578.5H1684.28H1680.78H1680.53V577.5H1678.53V576.5C1678.28 576.5 1677.7 576.5 1676.78 576.5H1676.53V575.5H1674.53V574.5H1673.53V573.5H1671.53V572.5H1670.53V571.5H1668.53V570.5H1666.53V569.5H1664.53V568.5H1662.53V567.5C1662.28 567.5 1661.7 567.5 1660.78 567.5H1660.53V566.5H1658.53V565.5H1657.53V564.5H1655.53V563.5H1654.53V562.5H1653.53V561.5H1651.53V560.5H1650.53V559.5H1648.53V558.5H1648.28H1645.78H1645.53V557.5H1644.53V556.5H1643.53V555.5H1642.53V554.5H1640.53V553.5H1639.53V552.5H1637.53V551.5H1636.53V550.5H1634.53V549.5H1633.53V548.5H1632.53V546.5H1633.53V546.25V543.75V543.5H1634.53C1634.53 543.25 1634.53 542.667 1634.53 541.75V541.5H1635.53V539.5H1636.53V538.5H1637.53V537.5H1638.53C1638.53 537.25 1638.53 536.667 1638.53 535.75V535.5H1639.53V533.5H1640.53V532.5H1641.53V530.5H1642.53V528.5H1643.53V526.5H1644.53C1644.53 526.25 1644.53 525.667 1644.53 524.75V524.5H1645.53V522.5H1646.53V521.5H1647.53C1647.53 521.25 1647.53 520.667 1647.53 519.75V519.5H1648.53V517.5H1650.53C1650.53 517.25 1650.53 516.667 1650.53 515.75V515.5H1651.53V513.5H1651.78H1654.28H1654.53V514.5H1656.53V515.5H1657.53V516.5H1659.53V517.5H1659.78H1662.28H1662.53V518.5H1663.53V519.5H1665.53V520.5H1666.53V521.5H1668.53V522.5C1668.78 522.5 1669.36 522.5 1670.28 522.5H1670.53V523.5H1672.53V524.5H1673.53V525.5H1674.53V526.5H1676.53V527.5H1678.53V528.5H1678.78H1681.28H1681.53V529.5H1683.53V530.5H1684.53V531.5H1685.53V532.5H1687.53V533.5H1689.53V534.5C1689.78 534.5 1690.36 534.5 1691.28 534.5H1691.53V535.5H1693.53V536.5H1694.53V537.5H1695.53V538.5H1695.78H1699.28H1699.53V539.5C1699.78 539.5 1700.36 539.5 1701.28 539.5H1701.53V540.5H1703.53V541.5H1704.53V542.5H1706.53V543.5H1708.53V544.5H1708.78H1711.28H1711.53V545.5H1713.53V546.5H1714.53V547.5H1716.53V548.5H1716.78H1721.28H1721.53V549.5H1723.53V550.5H1724.53V551.5H1724.78H1727.28H1727.53V552.5H1729.53V553.5H1729.78H1732.28H1732.53V554.5H1734.53V555.5H1736.53V556.5H1736.78H1739.28H1739.53V557.5H1739.78H1742.28H1742.53V558.5H1742.78H1747.28H1747.53V559.5H1747.78H1750.28H1750.53V560.5H1750.78H1753.28H1753.53V561.5H1753.78H1756.28H1756.53V562.5H1756.78H1759.28H1759.53V563.5H1759.78H1763.28H1763.53V564.5H1763.78H1766.28H1766.53V565.5H1766.78H1770.28H1770.53V566.5H1770.78H1774.28H1774.53V567.5H1774.78H1777.28H1777.53V568.5H1777.78H1786.28H1786.53V569.5H1786.78H1792.28H1792.53V570.5H1792.78H1797.28H1797.53V571.5H1797.78H1804.28H1804.53V572.5H1804.78H1812.28H1812.53V573.5H1812.78H1825.28H1825.53V574.5H1825.78H1849.28H1849.53V573.5H1849.78H1858.28H1858.53V572.5H1858.78H1865.28H1865.53V571.5H1865.78H1870.28H1870.53V570.5H1870.78H1875.28H1875.53V569.5H1875.78H1878.28H1878.53V568.5H1878.78H1885.28H1885.53V567.5H1885.78H1888.28H1888.53V566.5H1888.78H1891.28H1891.53V565.5H1891.78H1894.28H1894.53V564.5H1896.53V563.5H1898.53V562.5H1898.78H1901.28H1901.53V561.5H1903.53V560.5H1905.53V559.5H1905.78H1908.28H1908.53V558.5H1908.78H1911.28H1911.53V557.5H1913.53V556.5C1913.78 556.5 1914.36 556.5 1915.28 556.5H1915.53V555.5H1917.53V553.5C1917.78 553.5 1918.36 553.5 1919.28 553.5H1919.53V552.5H1921.53V551.5H1922.53V550.5H1924.53V549.5H1925.53V548.5H1927.53V547.5H1928.53V546.5H1929.53V545.5H1931.53V544.5H1932.53V543.5H1933.53V542.5H1934.53V541.5H1935.53V540.5H1936.53V539.5H1937.53V538.5H1938.53V537.5H1939.53V536.5H1940.53V535.5H1941.53V534.5H1942.53V533.5H1943.53V531.5H1944.53V530.5H1945.53V529.5H1946.53V528.5H1947.53C1947.53 528.25 1947.53 527.667 1947.53 526.75V526.5H1948.53V524.5H1949.53V523.5H1950.53C1950.53 523.25 1950.53 522.667 1950.53 521.75V521.5H1951.53V519.5H1952.53V518.5H1953.53V517.5H1954.53V515.5H1955.53V513.5H1956.53V511.5H1957.53V509.5H1958.53V509.25V506.75V506.5H1959.53V506.25V503.75V503.5H1960.53V501.5H1961.53V501.25V498.75V498.5H1962.53V498.25V495.75V495.5H1963.53V495.25V492.75V492.5H1964.53V492.25V487.75V487.5H1965.53V487.25V480.75V480.5H1966.53V480.25V464.75V464.5H1965.53V464.25V457.75V457.5H1964.53V457.25V453.75V453.5H1963.53V453.25V450.75V450.5H1962.53V450.25V447.75V447.5H1961.53V445.5H1960.53V445.25V442.75V442.5H1959.53V440.5H1958.53V440.25V436.75V436.5H1957.53V435.5H1956.53V433.5H1955.53V431.5H1954.53V430.5H1953.53C1953.53 430.25 1953.53 429.667 1953.53 428.75V428.5H1952.53V426.5H1950.53V424.5H1949.53V423.5H1948.53C1948.53 423.25 1948.53 422.667 1948.53 421.75V421.5H1947.53V419.5H1946.53V418.5H1945.53V417.5H1944.53V416.5H1943.53V415.5H1942.53V414.5H1941.53V413.5H1940.53V412.5H1939.53V411.5H1938.53C1938.53 411.25 1938.53 410.667 1938.53 409.75V409.5H1937.53V407.5H1936.53V406.5H1934.53V405.5H1933.53V404.5H1932.53V403.5H1931.53V402.5H1930.53V401.5H1929.53V400.5H1928.53V399.5H1927.53V397.5C1927.28 397.5 1926.7 397.5 1925.78 397.5H1925.53V396.5H1923.53V395.5H1922.53V394.5H1921.53V393.5H1919.53V392.5H1918.53V391.5H1917.53V390.5H1916.53V389.5H1915.53V388.5H1913.53V387.5H1912.53V386.5H1910.53V385.5H1910.28H1907.78H1907.53V384.5H1906.53V383.5C1906.28 383.5 1905.7 383.5 1904.78 383.5H1904.53V382.5H1902.53V381.5H1901.53V380.5H1899.53V379.5H1898.53V378.5H1897.53V377.5H1896.53V376.5H1894.53V375.5H1894.28H1891.78H1891.53V374.5H1890.53V373.5H1888.53V372.5H1887.53V371.5H1886.53V370.5C1886.28 370.5 1885.7 370.5 1884.78 370.5H1884.53V369.5H1882.53V368.5H1881.53V367.5H1879.53V366.5H1877.53V365.5H1877.28H1874.78H1874.53V364.5H1873.53V363.5H1871.53V362.5C1871.28 362.5 1870.7 362.5 1869.78 362.5H1869.53V361.5H1867.53V360.5H1866.53V359.5H1864.53V358.5H1862.53V357.5H1860.53V356.5H1858.53V355.5H1858.28H1855.78H1855.53V354.5H1853.53V353.5H1851.53V352.5C1851.28 352.5 1850.7 352.5 1849.78 352.5H1849.53V351.5H1847.53V350.5H1846.53V349.5H1844.53V348.5H1842.53V347.5H1840.53V346.5H1838.53V345.5H1838.28H1835.78H1835.53V344.5H1835.28H1832.78H1832.53V343.5H1830.53V342.5C1830.28 342.5 1829.7 342.5 1828.78 342.5H1828.53V341.5H1826.53V340.5H1825.53V339.5H1823.53V338.5H1823.28H1820.78H1820.53V337.5H1818.53V336.5H1816.53V335.5H1816.28H1813.78H1813.53V334.5H1811.53V333.5C1811.28 333.5 1810.7 333.5 1809.78 333.5H1809.53V332.5H1807.53V331.5H1806.53V330.5H1804.53V329.5H1802.53V328.5H1800.53V327.5H1798.53V326.5H1796.53V325.5H1796.28H1793.78H1793.53V324.5H1791.53V323.5H1789.53V322.5C1789.28 322.5 1788.7 322.5 1787.78 322.5H1787.53V321.5H1785.53V320.5H1784.53V319.5C1784.28 319.5 1783.7 319.5 1782.78 319.5H1782.53V318.5H1780.53V317.5H1779.53V316.5H1777.53V315.5H1775.53V314.5H1775.28H1772.78H1772.53V313.5H1771.53V312.5H1769.53V311.5C1769.28 311.5 1768.7 311.5 1767.78 311.5H1767.53V310.5H1765.53V308.5C1765.28 308.5 1764.7 308.5 1763.78 308.5H1763.53V307.5H1761.53V306.5H1760.53V305.5H1758.53V304.5H1758.28H1755.78H1755.53V303.5H1754.53V302.5H1753.53V301.5H1751.53V300.5H1750.53V299.5C1750.28 299.5 1749.7 299.5 1748.78 299.5H1748.53V298.5H1746.53V297.5H1745.53V295.5H1743.53V294.5H1743.28H1740.78H1740.53V293.5H1739.53V292.5H1737.53V291.5H1736.53V290.5H1735.53V289.5H1734.53V288.5H1733.53V287.5H1731.53V286.5H1730.53V285.5C1730.28 285.5 1729.7 285.5 1728.78 285.5H1728.53V284.5H1726.53V283.5H1725.53V282.5H1724.53V281.5H1722.53V280.5H1721.53V279.5H1720.53V278.5H1718.53V277.5H1717.53V276.5H1716.53V275.5H1714.53V274.5H1713.53V273.5H1712.53V272.5H1710.53V271.5H1709.53V270.5H1708.53V269.5H1707.53V268.5H1706.53V267.5H1705.53V266.5H1704.53V265.5H1703.53V264.5H1701.53V263.5H1700.53V262.5H1699.53V261.5H1698.53V260.5H1697.53V259.5H1696.53V258.5H1695.53V257.5H1694.53V255.5H1693.53V254.5H1691.53V253.5H1690.53V251.5H1689.53V250.5H1688.53V249.5H1687.53V248.5H1686.53V247.5H1685.53V245.5H1684.53V244.5H1683.53V243.5H1682.53V241.5H1681.53V240.5H1680.53V238.5H1679.53V237.5H1678.53V235.5H1677.53V234.5H1676.53V233.5H1675.53V232.5H1674.53V232.25V229.75V229.5H1673.53V228.5H1672.53C1672.53 228.25 1672.53 227.667 1672.53 226.75V226.5H1671.53V224.5H1670.53V223.5H1669.53V222.5H1668.53V220.5H1667.53V218.5H1666.53V216.5H1665.53V214.5H1664.53V214.25V210.75V210.5H1663.53V210.25V207.75V207.5H1662.53V205.5H1661.53V203.5H1660.53V203.25V199.75V199.5H1659.53V199.25V196.75V196.5H1658.53V196.25V192.75V192.5H1657.53V192.25V187.75V187.5H1656.53V187.25V182.75V182.5H1655.53V182.25V173.75V173.5H1654.53V173.25V139.75V139.5H1655.53V139.25V132.75V132.5H1656.53V132.25V126.75V126.5H1657.53V126.25V122.75V122.5H1658.53V122.25V117.75V117.5H1659.53V117.25V114.75V114.5H1660.53V114.25V111.75V111.5H1661.53V111.25V108.75V108.5H1662.53V108.25V105.75V105.5H1663.53V103.5H1664.53V103.25V99.75V99.5H1665.53V99.25V96.75V96.5H1666.53C1666.53 96.25 1666.53 95.6667 1666.53 94.75V94.5H1667.53V92.5H1668.53V91.5H1669.53V89.5H1670.53C1670.53 89.25 1670.53 88.6667 1670.53 87.75V87.5H1671.53V85.5H1672.53V84.5H1673.53V82.5H1674.53C1674.53 82.25 1674.53 81.6667 1674.53 80.75V80.5H1675.53V78.5H1676.53V77.5H1677.53V76.5H1678.53V74.5H1679.53V73.5H1680.53V72.5H1681.53V71.5H1682.53V70.5H1683.53V69.5H1684.53V69.25V66.75V66.5H1685.53V65.5H1686.53V64.5H1687.53V63.5H1688.53V62.5H1689.53V61.5H1691.53V60.5H1692.53V58.5H1693.53V57.5H1694.53V56.5H1695.53V55.5H1696.53V54.5H1697.53V53.5H1698.53V52.5H1699.53V51.5H1701.53V50.5H1702.53V49.5H1703.53V48.5H1704.53V47.5H1705.53V46.5H1706.53V45.5H1707.53V44.5H1709.53V43.5H1710.53V42.5H1711.53V41.5H1711.78H1714.28H1714.53V40.5H1715.53V39.5H1716.53V38.5H1718.53V37.5H1719.53V36.5H1721.53V35.5H1722.53V34.5H1724.53V33.5H1725.53V32.5H1726.53V31.5H1726.78H1730.28H1730.53V30.5C1730.78 30.5 1731.36 30.5 1732.28 30.5H1732.53V29.5H1734.53V28.5H1735.53V27.5H1737.53V26.5H1739.53V25.5H1741.53V24.5H1741.78H1744.28H1744.53V23.5H1745.53V22.5H1747.53V21.5H1747.78H1753.28H1753.53V20.5H1755.53V19.5H1757.53V18.5H1757.78H1760.28H1760.53V17.5H1760.78H1763.28H1763.53V16.5H1763.78H1766.28H1766.53V15.5H1766.78H1769.28H1769.53V14.5H1769.78H1772.28H1772.53V13.5H1772.78H1775.28H1775.53V12.5H1775.78H1778.28H1778.53V11.5H1778.78H1784.28H1784.53V10.5H1784.78H1789.28H1789.53V9.5H1789.78H1793.28H1793.53V8.5H1793.78H1797.28H1797.53V7.5H1797.78H1802.28H1802.53V6.5H1802.78H1806.28H1806.53V5.5H1806.78H1812.28H1812.53V4.5H1812.78H1818.28H1818.53V3.5H1818.78H1826.28H1826.53V2.5H1826.78H1835.28H1835.53V1.5H1835.78H1855.28H1855.53V0.5Z" fill="#F6F7F5" stroke="#F6F7F5"/>
<path opacity="0.976471" d="M0.53125 12.5H0.78125H479.281C479.531 12.4167 479.615 12.5 479.531 12.75V52.25V52.5H479.281H294.781H294.531V52.75V606.25C294.615 606.5 294.531 606.583 294.281 606.5H189.781H189.531V606.25V52.75C189.615 52.5 189.531 52.4167 189.281 52.5H0.78125C0.53125 52.5833 0.447917 52.5 0.53125 52.25V12.75V12.5Z" fill="#F6F7F5" stroke="#F6F7F5"/>
<path opacity="0.976471" d="M1139.53 12.5H1139.78H1360.28H1360.53V13.5H1360.78H1372.28H1372.53V14.5H1372.78H1380.28H1380.53V15.5H1380.78H1388.28H1388.53V16.5H1388.78H1394.28H1394.53V17.5H1394.78H1400.28H1400.53V18.5H1400.78H1404.28H1404.53V19.5H1404.78H1409.28H1409.53V20.5H1409.78H1413.28H1413.53V21.5H1413.78H1420.28H1420.53V22.5H1420.78H1424.28H1424.53V23.5H1424.78H1428.28H1428.53V24.5H1430.53V25.5H1430.78H1434.28H1434.53V26.5H1434.78H1437.28H1437.53V27.5H1437.78H1440.28H1440.53V28.5H1442.53V29.5H1442.78H1445.28H1445.53V30.5H1445.78H1448.28H1448.53V31.5H1448.78H1452.28H1452.53V32.5H1454.53V33.5H1454.78H1457.28H1457.53V34.5H1459.53V35.5H1461.53V36.5H1463.53V37.5H1465.53V38.5H1467.53V39.5H1467.78H1470.28H1470.53V40.5H1471.53V41.5H1471.78H1475.28H1475.53V42.5H1477.53V43.5H1478.53V44.5H1480.53V45.5H1481.53V46.5C1481.78 46.5 1482.36 46.5 1483.28 46.5H1483.53V47.5H1485.53V48.5H1486.53V49.5H1488.53V50.5C1488.78 50.5 1489.36 50.5 1490.28 50.5H1490.53V51.5H1492.53V52.5H1493.53V53.5H1495.53V54.5H1496.53V55.5H1498.53V56.5H1499.53V57.5H1500.53V58.5H1501.53V59.5H1502.53V60.5H1503.53V61.5H1503.78H1506.28H1506.53V62.5H1507.53V63.5H1508.53V64.5H1510.53V65.5H1511.53V67.5H1512.53V68.5H1513.53V69.5H1514.53V70.5C1514.78 70.5 1515.36 70.5 1516.28 70.5H1516.53V71.5H1518.53V72.5H1519.53V73.5H1520.53V74.5H1521.53V76.5H1522.53V77.5H1523.53V78.5H1524.53V79.5H1525.53V80.5H1526.53V81.5H1527.53V82.5H1528.53V83.5H1529.53V84.5H1530.53V85.5H1531.53V86.5H1532.53C1532.53 86.75 1532.53 87.3333 1532.53 88.25V88.5H1533.53V90.5H1534.53V91.5H1535.53V92.5H1537.53C1537.53 92.75 1537.53 93.3333 1537.53 94.25V94.5H1538.53V96.5H1539.53V97.5H1540.53V99.5H1541.53V101.5H1542.53V103.5H1543.53V105.5H1544.53V107.5H1545.53C1545.53 107.75 1545.53 108.333 1545.53 109.25V109.5H1546.53V111.5H1547.53V112.5H1548.53V114.5H1549.53V114.75V117.25V117.5H1550.53V119.5H1551.53V119.75V122.25V122.5H1552.53V122.75V126.25V126.5H1553.53V126.75V130.25V130.5H1554.53V132.5H1555.53V132.75V135.25V135.5H1556.53V135.75V139.25V139.5H1557.53V139.75V143.25V143.5H1558.53V143.75V147.25V147.5H1559.53V147.75V153.25V153.5H1560.53V153.75V159.25V159.5H1561.53V159.75V169.25V169.5H1562.53V169.75V195.25V195.5H1561.53V195.75V204.25V204.5H1560.53V204.75V211.25V211.5H1559.53V211.75V216.25V216.5H1558.53V216.75V220.25V220.5H1557.53V220.75V224.25V224.5H1556.53V224.75V227.25V227.5H1555.53V227.75V231.25V231.5H1554.53V233.5H1553.53V233.75V236.25V236.5H1552.53V236.75V242.25V242.5H1551.53V243.5H1550.53V243.75V246.25V246.5H1549.53V248.5H1548.53V250.5H1547.53V250.75V253.25V253.5H1546.53V254.5H1545.53V256.5H1544.53V258.5H1543.53V260.5H1542.53V260.75V263.25V263.5H1541.53V264.5H1540.53V265.5H1539.53C1539.53 265.75 1539.53 266.333 1539.53 267.25V267.5H1538.53V269.5H1537.53V270.5H1536.53V271.5H1535.53V273.5H1534.53V274.5H1533.53V275.5H1532.53V277.5H1531.53V278.5H1530.53V280.5H1529.53V281.5H1528.53V282.5H1527.53V283.5H1526.53V284.5H1524.53V285.5H1523.53V286.5H1522.53V288.5H1521.53V289.5H1520.53V290.5H1519.53V291.5H1518.53V292.5H1517.53V293.5H1516.53V294.5C1516.28 294.5 1515.7 294.5 1514.78 294.5H1514.53V295.5H1512.53V296.5H1511.53V298.5H1510.53V299.5H1509.53V300.5H1507.53V301.5H1506.53V302.5H1505.53V303.5C1505.28 303.5 1504.7 303.5 1503.78 303.5H1503.53V304.5H1501.53V305.5H1500.53V306.5H1499.53V307.5H1498.53V308.5H1496.53V309.5H1495.53V310.5H1493.53V311.5H1492.53V312.5H1491.53V313.5H1489.53V314.5H1487.53V315.5H1487.28H1484.78H1484.53V316.5H1483.53V317.5H1481.53V318.5H1480.53V319.5H1478.53V320.5H1476.53V321.5H1474.53V322.5H1472.53V323.5H1470.53V324.5H1468.53V325.5H1468.28H1464.78H1464.53V326.5H1462.53V327.5H1461.53V328.5H1461.28H1458.78H1458.53V329.5H1456.53V330.5H1456.28H1453.78H1453.53V331.5H1451.53V332.5H1449.53V333.5H1449.28H1446.78H1446.53V334.5H1446.28H1443.78H1443.53V335.5H1443.28H1437.78H1437.53V336.5H1437.28H1434.78H1434.53V337.5H1434.28H1430.78H1430.53V338.5H1428.53V339.5H1428.28H1423.78H1423.53V340.5H1423.28H1420.78H1420.53V341.5H1420.28H1415.78H1415.53V342.5H1415.28H1412.78H1412.53V343.5H1413.53V344.5H1414.53V345.5H1415.53V346.5H1416.53V348.5H1417.53V349.5H1418.53V351.5H1419.53V352.5H1420.53V352.75V355.25V355.5H1421.53V356.5H1422.53V357.5H1423.53V359.5H1424.53V360.5H1425.53V362.5H1426.53V363.5H1427.53V365.5H1428.53V366.5H1429.53V367.5H1430.53V367.75V370.25V370.5H1431.53V371.5H1432.53V373.5H1433.53V374.5H1434.53V375.5H1435.53V376.5H1436.53V377.5H1437.53V379.5H1438.53V380.5H1439.53V382.5H1440.53C1440.53 382.75 1440.53 383.333 1440.53 384.25V384.5H1441.53V386.5H1442.53V387.5H1443.53V388.5H1444.53V390.5H1445.53V391.5H1446.53V393.5H1447.53V394.5H1448.53V396.5H1450.53V398.5H1451.53V398.75V401.25V401.5H1452.53V402.5H1453.53V404.5H1454.53V405.5H1455.53V406.5H1456.53V407.5H1457.53V409.5H1458.53V410.5H1459.53V412.5H1460.53V413.5H1461.53V413.75V416.25V416.5H1462.53V417.5H1463.53V418.5H1464.53V419.5H1465.53V421.5H1466.53V422.5H1467.53V424.5H1468.53V425.5H1469.53V426.5H1470.53V428.5H1471.53C1471.53 428.75 1471.53 429.333 1471.53 430.25V430.5H1472.53V432.5H1473.53V433.5H1474.53V435.5H1475.53V436.5H1476.53V437.5H1477.53V438.5H1478.53V440.5H1479.53V441.5H1480.53V443.5H1481.53V443.75V446.25V446.5H1483.53V448.5H1484.53V449.5H1485.53V451.5H1486.53V452.5H1487.53V454.5H1488.53V455.5H1489.53V457.5H1490.53V458.5H1491.53V460.5H1492.53V461.5H1493.53V463.5H1494.53V464.5H1495.53V466.5H1496.53V467.5H1497.53V468.5H1498.53V469.5H1499.53V471.5H1500.53V472.5H1501.53V472.75V475.25V475.5H1502.53V477.5H1504.53V479.5H1505.53V480.5H1506.53V482.5H1507.53V483.5H1508.53V485.5H1509.53V486.5H1510.53V487.5H1511.53V487.75V490.25V490.5H1512.53V491.5H1513.53V493.5H1514.53V494.5H1515.53V496.5H1516.53V497.5H1517.53V498.5H1518.53V499.5H1519.53V501.5H1520.53V502.5H1521.53V503.5H1522.53V503.75V506.25V506.5H1523.53V507.5H1524.53V508.5H1525.53V510.5H1526.53V511.5H1527.53V513.5H1528.53V514.5H1529.53V516.5H1530.53V517.5H1531.53C1531.53 517.75 1531.53 518.333 1531.53 519.25V519.5H1532.53V521.5H1533.53V522.5H1534.53V524.5H1535.53V525.5H1536.53V527.5H1537.53V528.5H1538.53V529.5H1539.53V530.5H1540.53V532.5H1541.53V533.5H1542.53V533.75V536.25V536.5H1543.53V538.5H1545.53V540.5H1546.53V541.5H1547.53V542.5H1548.53V544.5H1549.53V545.5H1550.53V547.5H1551.53V548.5H1552.53C1552.53 548.75 1552.53 549.333 1552.53 550.25V550.5H1553.53V552.5H1554.53V553.5H1555.53V555.5H1556.53V556.5H1557.53V558.5H1559.53V560.5H1560.53V561.5H1561.53V563.5H1562.53V563.75V566.25V566.5H1563.53V567.5H1564.53V568.5H1565.53V569.5H1566.53V571.5H1567.53V572.5H1568.53V574.5H1569.53V575.5H1570.53V577.5H1571.53V578.5H1572.53C1572.53 578.75 1572.53 579.333 1572.53 580.25V580.5H1573.53V582.5H1574.53V583.5H1575.53V584.5H1576.53V586.5H1577.53V587.5H1578.53V588.5H1579.53V589.5H1580.53V591.5H1581.53V592.5H1582.53V592.75V595.25V595.5H1583.53V597.5H1584.53V598.5H1585.53V599.5H1586.53V600.5H1587.53V602.5H1588.53V603.5H1589.53V603.75V606.25V606.5H1589.28H1467.78H1467.53C1467.53 606.25 1467.53 605.667 1467.53 604.75V604.5H1466.53V602.5H1465.53V601.5H1464.53V599.5H1463.53V598.5H1462.53V596.5H1461.53V596.25V593.75V593.5H1460.53C1460.53 593.25 1460.53 592.667 1460.53 591.75V591.5H1459.53V589.5H1458.53V588.5H1457.53V587.5H1456.53V585.5H1455.53V584.5H1454.53V582.5H1453.53V580.5H1452.53V578.5H1451.53V576.5H1450.53C1450.53 576.25 1450.53 575.667 1450.53 574.75V574.5H1449.53V572.5H1448.53V571.5H1447.53V569.5H1446.53V568.5H1445.53V567.5H1444.53V565.5H1443.53V563.5H1442.53V561.5H1441.53V561.25V558.75V558.5H1440.53V557.5H1439.53V556.5H1438.53V554.5H1437.53C1437.53 554.25 1437.53 553.667 1437.53 552.75V552.5H1436.53V550.5H1435.53V549.5H1434.53V547.5H1433.53V546.5H1432.53V544.5H1431.53V542.5H1430.53V542.25V539.75V539.5H1429.53V538.5H1428.53V537.5H1427.53C1427.53 537.25 1427.53 536.667 1427.53 535.75V535.5H1426.53V533.5H1425.53V532.5H1424.53C1424.53 532.25 1424.53 531.667 1424.53 530.75V530.5H1423.53V528.5H1422.53V527.5H1421.53V525.5H1420.53V525.25V522.75V522.5H1419.53V521.5H1418.53C1418.53 521.25 1418.53 520.667 1418.53 519.75V519.5H1417.53V517.5H1416.53V516.5H1415.53V515.5H1414.53C1414.53 515.25 1414.53 514.667 1414.53 513.75V513.5H1413.53V511.5H1412.53V510.5H1411.53V508.5H1410.53V508.25V505.75V505.5H1409.53V504.5H1408.53C1408.53 504.25 1408.53 503.667 1408.53 502.75V502.5H1407.53V500.5H1406.53V499.5H1405.53V497.5H1404.53V496.5H1403.53V494.5H1402.53V493.5H1401.53V491.5H1400.53V491.25V487.75V487.5H1398.53V485.5H1397.53V483.5H1396.53V482.5H1395.53C1395.53 482.25 1395.53 481.667 1395.53 480.75V480.5H1394.53V478.5H1393.53V477.5H1392.53V476.5H1391.53V474.5H1390.53V474.25V471.75V471.5H1389.53C1389.53 471.25 1389.53 470.667 1389.53 469.75V469.5H1388.53V467.5H1387.53V466.5H1386.53V465.5H1385.53V463.5H1384.53C1384.53 463.25 1384.53 462.667 1384.53 461.75V461.5H1383.53V459.5H1382.53V458.5H1381.53V456.5H1380.53V454.5H1379.53V452.5H1378.53C1378.53 452.25 1378.53 451.667 1378.53 450.75V450.5H1377.53V448.5H1376.53V447.5H1375.53V446.5H1374.53V444.5H1373.53V443.5H1372.53V441.5H1371.53V439.5H1370.53V439.25V436.75V436.5H1369.53V435.5H1368.53V433.5H1367.53V431.5H1366.53V430.5H1365.53C1365.53 430.25 1365.53 429.667 1365.53 428.75V428.5H1364.53V426.5H1362.53V424.5H1361.53V422.5H1360.53V420.5H1359.53V420.25V417.75V417.5H1358.53V416.5H1357.53V415.5H1356.53V413.5H1355.53C1355.53 413.25 1355.53 412.667 1355.53 411.75V411.5H1354.53V409.5H1353.53V408.5H1352.53V406.5H1351.53V405.5H1350.53V403.5H1349.53V403.25V400.75V400.5H1348.53V398.5H1347.53V397.5H1346.53V396.5H1345.53C1345.53 396.25 1345.53 395.667 1345.53 394.75V394.5H1344.53V392.5H1343.53V391.5H1342.53C1342.53 391.25 1342.53 390.667 1342.53 389.75V389.5H1341.53V387.5H1340.53V386.5H1339.53V386.25V383.75V383.5H1338.53V381.5H1337.53V380.5H1336.53C1336.53 380.25 1336.53 379.667 1336.53 378.75V378.5H1335.53V376.5H1334.53V375.5H1333.53V374.5H1332.53C1332.53 374.25 1332.53 373.667 1332.53 372.75V372.5H1331.53V370.5H1330.53V369.5H1329.53V369.25V365.75V365.5H1328.53V364.5H1327.53V363.5H1326.53C1326.53 363.25 1326.53 362.667 1326.53 361.75V361.5H1325.53V359.5H1324.53V358.5H1323.53V356.5H1322.53V355.5H1321.53V353.5H1320.53V352.5H1319.53V352.25V348.75V348.5H1318.53V347.5H1318.28H1270.78H1270.53V347.25V342.75V342.5H1269.53V342.25V332.75V332.5H1268.53V332.25V315.75V315.5H1268.78H1338.28H1338.53V314.5H1338.78H1345.28H1345.53V313.5H1345.78H1350.28H1350.53V312.5H1350.78H1355.28H1355.53V311.5H1355.78H1359.28H1359.53V310.5H1359.78H1362.28H1362.53V309.5H1362.78H1366.28H1366.53V308.5H1366.78H1369.28H1369.53V307.5H1371.53V306.5H1371.78H1374.28H1374.53V305.5H1374.78H1377.28H1377.53V304.5H1377.78H1380.28H1380.53V303.5H1382.53V302.5H1382.78H1385.28H1385.53V301.5H1387.53V300.5H1388.53V299.5H1390.53V298.5H1391.53V297.5H1393.53V296.5H1394.53V295.5H1396.53V294.5H1396.78H1399.28H1399.53V293.5H1400.53V292.5H1401.53V291.5H1402.53V290.5H1403.53V289.5H1405.53V288.5H1406.53V287.5H1407.53V286.5H1408.53V285.5H1410.53V284.5H1411.53V283.5H1412.53V282.5H1413.53V281.5H1414.53V280.5H1415.53V279.5H1416.53V278.5H1417.53V277.5H1418.53V276.5H1419.53V275.5H1420.53V274.5H1421.53V273.5H1422.53V272.5H1423.53V271.5H1424.53V270.5H1425.53V268.5H1426.53V267.5H1427.53V266.5H1428.53V265.5H1429.53V264.5H1430.53V264.25V261.75V261.5H1431.53V260.5H1432.53V259.5H1433.53C1433.53 259.25 1433.53 258.667 1433.53 257.75V257.5H1434.53V255.5H1435.53V254.5H1436.53V253.5H1437.53V251.5H1438.53V250.5H1439.53V248.5H1440.53V246.5H1441.53V246.25V243.75V243.5H1442.53V243.25V240.75V240.5H1443.53V238.5H1444.53V236.5H1445.53V234.5H1446.53V234.25V231.75V231.5H1447.53V231.25V228.75V228.5H1448.53V228.25V225.75V225.5H1449.53V225.25V222.75V222.5H1450.53V222.25V218.75V218.5H1451.53V218.25V209.75V209.5H1452.53V209.25V203.75V203.5H1453.53V203.25V192.75V192.5H1454.53V192.25V174.75V174.5H1453.53V174.25V164.75V164.5H1452.53V164.25V157.75V157.5H1451.53V157.25V148.75V148.5H1450.53V148.25V144.75V144.5H1449.53V144.25V141.75V141.5H1448.53V141.25V138.75V138.5H1447.53V138.25V135.75V135.5H1446.53V135.25V132.75V132.5H1445.53V130.5H1444.53V130.25V127.75V127.5H1443.53V125.5H1442.53V123.5H1441.53V123.25V120.75V120.5H1440.53V118.5H1439.53V116.5H1438.53C1438.53 116.25 1438.53 115.667 1438.53 114.75V114.5H1437.53V112.5H1436.53V111.5H1435.53V110.5H1434.53V108.5H1433.53V107.5H1432.53C1432.53 107.25 1432.53 106.667 1432.53 105.75V105.5H1431.53V103.5H1430.53V102.5H1429.53V100.5H1428.53V99.5H1427.53V97.5H1426.53V96.5H1425.53V95.5H1424.53V94.5H1423.53V92.5H1422.53V91.5H1421.53V90.5H1420.53V89.5H1419.53V88.5H1418.53V87.5H1417.53V86.5H1416.53V85.5H1415.53V84.5H1414.53V83.5H1413.53V82.5H1412.53V81.5H1410.53V79.5H1408.53V78.5H1407.53V77.5H1406.53V76.5H1404.53V75.5H1403.53V74.5H1402.53V73.5H1400.53V72.5H1399.53V71.5H1399.28H1396.78H1396.53V70.5H1394.53V69.5H1393.53V68.5H1391.53V67.5H1390.53V66.5H1388.53V65.5H1388.28H1385.78H1385.53V64.5H1383.53V63.5H1381.53V62.5H1379.53V61.5H1379.28H1374.78H1374.53V60.5H1374.28H1371.78H1371.53V59.5H1369.53V58.5H1369.28H1366.78H1366.53V57.5H1366.28H1363.78H1363.53V56.5H1363.28H1360.78H1360.53V55.5H1360.28H1356.78H1356.53V54.5H1356.28H1351.78H1351.53V53.5H1351.28H1347.78H1347.53V52.5H1347.28H1340.78H1340.53V51.5H1340.28H1316.78H1316.53V50.5H1316.28H1244.78H1244.53V50.75V606.25C1244.61 606.5 1244.53 606.583 1244.28 606.5H1139.78H1139.53V606.25V12.75V12.5Z" fill="#F6F7F5" stroke="#F6F7F5"/>
<path opacity="0.976471" d="M2144.53 12.5H2144.78H2249.28C2249.53 12.4167 2249.61 12.5 2249.53 12.75V606.25V606.5H2249.28H2144.78C2144.53 606.583 2144.45 606.5 2144.53 606.25V12.75V12.5Z" fill="#F6F7F5" stroke="#F6F7F5"/>
<path opacity="0.976471" d="M2552.53 12.5H2552.78H2627.28H2627.53V12.75V15.25V15.5H2628.53V15.75V18.25V18.5H2629.53V20.5H2630.53V22.5H2631.53V24.5H2632.53V24.75V27.25V27.5H2633.53V27.75V30.25V30.5H2634.53V31.5H2635.53V31.75V34.25V34.5H2636.53V36.5H2637.53V36.75V41.25V41.5H2638.53V43.5H2639.53V43.75V46.25V46.5H2640.53V48.5H2641.53V48.75V51.25V51.5H2642.53V53.5H2643.53V55.5H2644.53V55.75V58.25V58.5H2645.53V60.5H2646.53V60.75V63.25V63.5H2647.53V63.75V67.25V67.5H2648.53V67.75V70.25V70.5H2649.53V71.5H2650.53V71.75V74.25V74.5H2651.53V74.75V77.25V77.5H2652.53V79.5H2653.53V79.75V82.25V82.5H2654.53V83.5H2655.53V83.75V86.25V86.5H2656.53V86.75V89.25V89.5H2657.53V89.75V93.25V93.5H2658.53V95.5H2659.53V95.75V98.25V98.5H2660.53V98.75V101.25V101.5H2661.53V102.5H2662.53V102.75V105.25V105.5H2663.53V107.5H2664.53V107.75V110.25V110.5H2665.53V112.5H2666.53V114.5H2667.53V114.75V119.25V119.5H2668.53V119.75V122.25V122.5H2669.53V124.5H2670.53V126.5H2671.53V126.75V129.25V129.5H2672.53V131.5H2673.53V133.5H2674.53V133.75V136.25V136.5H2675.53V138.5H2676.53V138.75V141.25V141.5H2677.53V141.75V145.25V145.5H2678.53V145.75V148.25V148.5H2679.53V150.5H2680.53V152.5H2681.53V154.5H2682.53V154.75V157.25V157.5H2683.53V157.75V160.25V160.5H2684.53V162.5H2685.53V164.5H2686.53V166.5H2687.53V166.75V169.25V169.5H2688.53V169.75V173.25V173.5H2689.53V173.75V176.25V176.5H2690.53V178.5H2691.53V178.75V181.25V181.5H2692.53V183.5H2693.53V185.5H2694.53V185.75V188.25V188.5H2695.53V190.5H2696.53V190.75V193.25V193.5H2697.53V195.5H2698.53V195.75V200.25V200.5H2699.53V202.5H2700.53V204.5H2701.53V206.5H2702.53V206.75V209.25V209.5H2703.53V209.75V212.25V212.5H2704.53V213.5H2705.53V213.75V216.25V216.5H2706.53V218.5H2707.53V218.75V221.25V221.5H2708.53V221.75V225.25V225.5H2709.53V225.75V228.25V228.5H2710.53V230.5H2711.53V230.75V233.25V233.5H2712.53V235.5H2713.53V237.5H2714.53V237.75V240.25V240.5H2715.53V242.5H2716.53V244.5H2717.53V244.75V247.25V247.5H2718.53V247.75V252.25V252.5H2719.53V254.5H2720.53V256.5H2721.53V256.75V259.25V259.5H2722.53V261.5H2723.53V261.75V264.25V264.5H2724.53V265.5H2725.53V265.75V268.25V268.5H2726.53V268.75V271.25V271.5H2727.53V273.5H2728.53V273.75V277.25V277.5H2729.53V277.75V280.25V280.5H2730.53V280.75V283.25V283.5H2731.53V284.5H2732.53V284.75V287.25V287.5H2733.53V289.5H2734.53V289.75V292.25V292.5H2735.53V294.5H2736.53V296.5H2737.53V296.75V299.25V299.5H2738.53V299.75V304.25V304.5H2739.53V306.5H2740.53V308.5H2741.53V308.75V311.25V311.5H2742.53V313.5H2743.53V315.5H2744.53V315.75V318.25V318.5H2745.53V320.5H2746.53V320.75V323.25V323.5H2747.53V325.5H2748.53V325.75V330.25V330.5H2749.53V332.5H2750.53V332.75V335.25V335.5H2751.53V336.5H2752.53V336.75V339.25V339.5H2753.53V339.75V342.25V342.5H2754.53V344.5H2755.53V346.5H2756.53V348.5H2757.53V348.75V351.25V351.5H2758.53V351.75V355.25V355.5H2759.53V355.75V358.25V358.5H2760.53V360.5H2761.53V360.75V363.25V363.5H2762.53V365.5H2763.53V367.5H2764.53V367.75V370.25V370.5H2765.53V372.5H2766.53V372.75V375.25V375.5H2767.53V377.5H2768.53V379.5H2769.53V379.75V384.25V384.5H2770.53V386.5H2771.53V386.75V389.25V389.5H2772.53V391.5H2773.53V391.75V394.25V394.5H2774.53V396.5H2775.53V398.5H2776.53V400.5H2777.53V400.75V403.25V403.5H2778.53V403.75V406.25V406.5H2779.53V406.75V410.25V410.5H2780.53V412.5H2781.53V412.75V415.25V415.5H2782.53V417.5H2783.53V419.5H2784.53V419.75V422.25V422.5H2785.53V424.5H2786.53V426.5H2787.53V426.75V429.25V429.5H2788.53V431.5H2789.53V431.75V436.25V436.5H2790.53V438.5H2791.53V438.75V441.25V441.5H2792.53V443.5H2793.53V443.75V446.25V446.5H2794.53V447.5H2795.53V447.75V450.25V450.5H2796.53V450.75V453.25V453.5H2797.53V455.5H2798.53V457.5H2799.53V457.75V462.25V462.5H2800.53V462.75V465.25V465.5H2801.53V467.5H2802.53V469.5H2803.53V471.5H2804.53V471.75V474.25V474.5H2805.53V474.75V477.25V477.5H2806.53V478.5H2807.53V478.75V481.25V481.5H2808.53V483.5H2809.53V483.75V488.25V488.5H2810.53V490.5H2811.53V490.75V493.25V493.5H2812.53V495.5H2813.53V497.5H2814.53V497.75V500.25V500.5H2815.53V502.5H2816.53V502.75V505.25V505.5H2817.53V507.5H2818.53V509.5H2819.53V509.75V514.25V514.5H2820.53V514.75V517.25V517.5H2821.53V518.5H2822.53V518.75V521.25V521.5H2823.53V521.75V524.25V524.5H2824.53V526.5H2825.53V528.5H2826.53V530.5H2827.53V530.75V533.25V533.5H2828.53V533.75V536.25V536.5H2829.53V536.75V539.25V539.5H2830.53V539.75V542.25V542.5H2831.53V542.75V545.25V545.5H2832.53V545.75V548.25V548.5H2833.53V549.5H2834.53V549.75V552.25V552.5H2835.53V554.5H2836.53V554.75V557.25V557.5H2837.53V559.5H2838.53V561.5H2839.53V561.75V564.25V564.5H2840.53V564.75V568.25V568.5H2841.53V568.75V571.25V571.5H2842.53V573.5H2843.53V573.75V576.25V576.5H2844.53V578.5H2845.53V580.5H2846.53V580.75V583.25V583.5H2847.53V585.5H2848.53V585.75V588.25V588.5H2849.53V590.5H2850.53V590.75V595.25V595.5H2851.53V597.5H2852.53V599.5H2853.53V601.5H2854.53V601.75V604.25V604.5H2855.53V606.5H2855.28H2744.78H2744.53V604.5H2743.53V604.25V601.75V601.5H2742.53V601.25V598.75V598.5H2741.53V596.5H2740.53V594.5H2739.53V594.25V591.75V591.5H2738.53V591.25V586.75V586.5H2737.53V584.5H2736.53V584.25V581.75V581.5H2735.53V581.25V578.75V578.5H2734.53V577.5H2733.53V577.25V574.75V574.5H2732.53V574.25V571.75V571.5H2731.53V571.25V568.75V568.5H2730.53V567.5H2729.53V567.25V564.75V564.5H2728.53V564.25V558.75V558.5H2727.53V557.5H2726.53V557.25V554.75V554.5H2725.53V554.25V551.75V551.5H2724.53V551.25V548.75V548.5H2723.53V547.5H2722.53V547.25V544.75V544.5H2721.53V544.25V541.75V541.5H2720.53V539.5H2719.53V539.25V536.75V536.5H2718.53V536.25V531.75V531.5H2717.53V529.5H2716.53V527.5H2715.53V527.25V524.75V524.5H2714.53V524.25V521.75V521.5H2713.53V519.5H2712.53V517.5H2711.53V517.25V514.75V514.5H2710.53V512.5H2709.53V512.25V509.75V509.5H2708.53V509.25V504.75V504.5H2707.53V502.5H2706.53V502.25V499.75V499.5H2705.53V497.5H2704.53V497.25V494.75V494.5H2703.53V492.5H2702.53V492.25V489.75V489.5H2701.53V487.5H2700.53V487.25V484.75V484.5H2699.53V482.5H2698.53V482.25V477.75V477.5H2697.53V475.5H2696.53V475.25V472.75V472.5H2695.53V472.25V469.75V469.5H2694.53V467.5H2693.53V465.5H2692.53V465.25V462.75V462.5H2691.53V462.25V459.75V459.5H2690.53V459.25V456.75V456.5H2689.53V455.5H2688.53V455.25V449.75V449.5H2687.53V449.25V446.75V446.5H2686.53V445.5H2685.53V445.25V442.75V442.5H2684.53V442.25V439.75V439.5H2683.53V437.5H2682.53V435.5H2681.53V435.25V432.75V432.5H2680.53V431.5H2680.28H2437.78H2437.53V433.5H2436.53V433.75V436.25V436.5H2435.53V438.5H2434.53V438.75V443.25V443.5H2433.53V443.75V446.25V446.5H2432.53V448.5H2431.53V450.5H2430.53V450.75V453.25V453.5H2429.53V453.75V456.25V456.5H2428.53V458.5H2427.53V460.5H2426.53V460.75V463.25V463.5H2425.53V463.75V466.25V466.5H2424.53V466.75V470.25V470.5H2423.53V470.75V473.25V473.5H2422.53V473.75V476.25V476.5H2421.53V478.5H2420.53V480.5H2419.53V480.75V483.25V483.5H2418.53V483.75V486.25V486.5H2417.53V487.5H2416.53V487.75V490.25V490.5H2415.53V490.75V493.25V493.5H2414.53V493.75V497.25V497.5H2413.53V497.75V500.25V500.5H2412.53V500.75V503.25V503.5H2411.53V503.75V506.25V506.5H2410.53V507.5H2409.53V507.75V510.25V510.5H2408.53V510.75V513.25V513.5H2407.53V513.75V516.25V516.5H2406.53V517.5H2405.53V517.75V520.25V520.5H2404.53V520.75V525.25V525.5H2403.53V527.5H2402.53V527.75V530.25V530.5H2401.53V530.75V533.25V533.5H2400.53V533.75V536.25V536.5H2399.53V538.5H2398.53V540.5H2397.53V540.75V543.25V543.5H2396.53V543.75V546.25V546.5H2395.53V548.5H2394.53V548.75V552.25V552.5H2393.53V552.75V555.25V555.5H2392.53V555.75V558.25V558.5H2391.53V560.5H2390.53V560.75V563.25V563.5H2389.53V565.5H2388.53V565.75V568.25V568.5H2387.53V570.5H2386.53V570.75V573.25V573.5H2385.53V575.5H2384.53V575.75V578.25V578.5H2383.53V578.75V583.25V583.5H2382.53V585.5H2381.53V585.75V588.25V588.5H2380.53V590.5H2379.53V590.75V593.25V593.5H2378.53V595.5H2377.53V595.75V598.25V598.5H2376.53V600.5H2375.53V600.75V603.25V603.5H2374.53V605.5H2373.53V606.5H2373.28H2327.78H2327.53V606.25V603.75V603.5H2328.53V601.5H2329.53V599.5H2330.53V599.25V596.75V596.5H2331.53V594.5H2332.53V594.25V591.75V591.5H2333.53V591.25V587.75V587.5H2334.53V587.25V584.75V584.5H2335.53V582.5H2336.53V582.25V579.75V579.5H2337.53V577.5H2338.53V575.5H2339.53V575.25V572.75V572.5H2340.53V570.5H2341.53V568.5H2342.53V568.25V565.75V565.5H2343.53V565.25V560.75V560.5H2344.53V558.5H2345.53V556.5H2346.53V556.25V553.75V553.5H2347.53V551.5H2348.53V551.25V548.75V548.5H2349.53V546.5H2350.53V544.5H2351.53V544.25V541.75V541.5H2352.53V541.25V538.75V538.5H2353.53V538.25V534.75V534.5H2354.53V534.25V531.75V531.5H2355.53V529.5H2356.53V527.5H2357.53V525.5H2358.53V525.25V522.75V522.5H2359.53V522.25V519.75V519.5H2360.53V517.5H2361.53V515.5H2362.53V515.25V512.75V512.5H2363.53V512.25V508.75V508.5H2364.53V506.5H2365.53V506.25V503.75V503.5H2366.53V503.25V500.75V500.5H2367.53V498.5H2368.53V496.5H2369.53V496.25V493.75V493.5H2370.53V491.5H2371.53V491.25V488.75V488.5H2372.53V487.5H2373.53V487.25V481.75V481.5H2374.53V479.5H2375.53V477.5H2376.53V477.25V474.75V474.5H2377.53V472.5H2378.53V472.25V469.75V469.5H2379.53V467.5H2380.53V465.5H2381.53V465.25V462.75V462.5H2382.53V460.5H2383.53V460.25V456.75V456.5H2384.53V456.25V453.75V453.5H2385.53V453.25V450.75V450.5H2386.53V450.25V447.75V447.5H2387.53V446.5H2388.53V446.25V443.75V443.5H2389.53V441.5H2390.53V441.25V438.75V438.5H2391.53V436.5H2392.53V434.5H2393.53V434.25V431.75V431.5H2394.53V431.25V426.75V426.5H2395.53V424.5H2396.53V422.5H2397.53V422.25V419.75V419.5H2398.53V419.25V416.75V416.5H2399.53V415.5H2400.53V415.25V412.75V412.5H2401.53V412.25V409.75V409.5H2402.53V407.5H2403.53V405.5H2404.53V405.25V400.75V400.5H2405.53V400.25V397.75V397.5H2406.53V396.5H2407.53V396.25V393.75V393.5H2408.53V393.25V390.75V390.5H2409.53V388.5H2410.53V386.5H2411.53V386.25V383.75V383.5H2412.53V381.5H2413.53V381.25V378.75V378.5H2414.53V378.25V374.75V374.5H2415.53V374.25V371.75V371.5H2416.53V369.5H2417.53V369.25V366.75V366.5H2418.53V364.5H2419.53V362.5H2420.53V362.25V359.75V359.5H2421.53V357.5H2422.53V355.5H2423.53V355.25V352.75V352.5H2424.53V352.25V347.75V347.5H2425.53V345.5H2426.53V343.5H2427.53V343.25V340.75V340.5H2428.53V338.5H2429.53V338.25V335.75V335.5H2430.53V333.5H2431.53V331.5H2432.53V331.25V328.75V328.5H2433.53V328.25V325.75V325.5H2434.53V325.25V321.75V321.5H2435.53V321.25V318.75V318.5H2436.53V316.5H2437.53V314.5H2438.53V312.5H2439.53V312.25V309.75V309.5H2440.53V309.25V306.75V306.5H2441.53V304.5H2442.53V302.5H2443.53V302.25V299.75V299.5H2444.53V299.25V295.75V295.5H2445.53V293.5H2446.53V293.25V290.75V290.5H2447.53V290.25V287.75V287.5H2448.53V285.5H2449.53V283.5H2450.53V283.25V280.75V280.5H2451.53V278.5H2452.53V278.25V275.75V275.5H2453.53V274.5H2454.53V274.25V269.75V269.5H2455.53V269.25V266.75V266.5H2456.53V264.5H2457.53V264.25V261.75V261.5H2458.53V259.5H2459.53V259.25V256.75V256.5H2460.53V254.5H2461.53V252.5H2462.53V252.25V249.75V249.5H2463.53V247.5H2464.53V247.25V244.75V244.5H2465.53V244.25V240.75V240.5H2466.53V240.25V237.75V237.5H2467.53V237.25V234.75V234.5H2468.53V233.5H2469.53V233.25V230.75V230.5H2470.53V228.5H2471.53V228.25V225.75V225.5H2472.53V223.5H2473.53V221.5H2474.53V221.25V218.75V218.5H2475.53V218.25V214.75V214.5H2476.53V214.25V211.75V211.5H2477.53V209.5H2478.53V209.25V206.75V206.5H2479.53V206.25V203.75V203.5H2480.53V202.5H2481.53V202.25V199.75V199.5H2482.53V199.25V196.75V196.5H2483.53V194.5H2484.53V192.5H2485.53V192.25V187.75V187.5H2486.53V187.25V184.75V184.5H2487.53V183.5H2488.53V183.25V180.75V180.5H2489.53V180.25V177.75V177.5H2490.53V175.5H2491.53V173.5H2492.53V173.25V170.75V170.5H2493.53V168.5H2494.53V168.25V165.75V165.5H2495.53V165.25V161.75V161.5H2496.53V161.25V158.75V158.5H2497.53V156.5H2498.53V156.25V153.75V153.5H2499.53V151.5H2500.53V149.5H2501.53V149.25V146.75V146.5H2502.53V144.5H2503.53V142.5H2504.53V142.25V139.75V139.5H2505.53V139.25V134.75V134.5H2506.53V132.5H2507.53V130.5H2508.53V130.25V127.75V127.5H2509.53V125.5H2510.53V125.25V122.75V122.5H2511.53V120.5H2512.53V118.5H2513.53V118.25V115.75V115.5H2514.53V115.25V112.75V112.5H2515.53V112.25V108.75V108.5H2516.53V108.25V105.75V105.5H2517.53V103.5H2518.53V101.5H2519.53V99.5H2520.53V99.25V96.75V96.5H2521.53V96.25V93.75V93.5H2522.53V92.5H2523.53V92.25V89.75V89.5H2524.53V89.25V86.75V86.5H2525.53V86.25V82.75V82.5H2526.53V80.5H2527.53V80.25V77.75V77.5H2528.53V77.25V74.75V74.5H2529.53V72.5H2530.53V70.5H2531.53V70.25V67.75V67.5H2532.53V65.5H2533.53V65.25V62.75V62.5H2534.53V61.5H2535.53V61.25V58.75V58.5H2536.53V58.25V53.75V53.5H2537.53V51.5H2538.53V51.25V48.75V48.5H2539.53V46.5H2540.53V46.25V43.75V43.5H2541.53V41.5H2542.53V39.5H2543.53V39.25V36.75V36.5H2544.53V34.5H2545.53V34.25V31.75V31.5H2546.53V31.25V27.75V27.5H2547.53V27.25V24.75V24.5H2548.53V24.25V21.75V21.5H2549.53V20.5H2550.53V20.25V17.75V17.5H2551.53V15.5H2552.53V15.25V12.75V12.5ZM2558.53 106.5V108.5H2557.53V109V111.5H2556.53V112V115.5H2555.53V116V118.5H2554.53V119V121.5H2553.53V122.5H2552.53V123V125.5H2551.53V126V128.5H2550.53V130.5H2549.53V131C2549.53 131.667 2549.53 132.167 2549.53 132.5H2548.53V133V135.5H2547.53V137.5H2546.53V138V142.5H2545.53V144.5H2544.53V145V147.5H2543.53V149.5H2542.53V150V152.5H2541.53V154.5H2540.53V156.5H2539.53V157V159.5H2538.53V160V162.5H2537.53V163.5H2536.53V164V166.5H2535.53V167V171.5H2534.53V173.5H2533.53V174V176.5H2532.53V178.5H2531.53V179V181.5H2530.53V183.5H2529.53V185.5H2528.53V186V188.5H2527.53V189V191.5H2526.53V193.5H2525.53V194V198.5H2524.53V200.5H2523.53V201V203.5H2522.53V204.5H2521.53V205V207.5H2520.53V208V210.5H2519.53V212.5H2518.53V214.5H2517.53V215V217.5H2516.53V219.5H2515.53V220V224.5H2514.53V226.5H2513.53V227V229.5H2512.53V230V232.5H2511.53V233.5H2510.53V234V236.5H2509.53V237V239.5H2508.53V241.5H2507.53V242V244.5H2506.53V246.5H2505.53V247V251.5H2504.53V253.5H2503.53V255.5H2502.53V256V258.5H2501.53V260.5H2500.53V261V263.5H2499.53V265.5H2498.53V267.5H2497.53V268V270.5H2496.53V271V273.5H2495.53V274V277.5H2494.53V278V280.5H2493.53V282.5H2492.53V284.5H2491.53V285V287.5H2490.53V289.5H2489.53V290V292.5H2488.53V294.5H2487.53V296.5H2486.53V297V299.5H2485.53V300V303.5H2484.53V304V306.5H2483.53V308.5H2482.53V309V311.5H2481.53V312V314.5H2480.53V315.5H2479.53V316V318.5H2478.53V319V321.5H2477.53V323.5H2476.53V325.5H2475.53V326V330.5H2474.53V331V333.5H2473.53V335.5H2472.53V336C2472.53 336.667 2472.53 337.167 2472.53 337.5H2471.53V338V340.5H2470.53V341V343.5H2469.53V345.5H2468.53V347.5H2467.53V348V350.5H2466.53V352.5H2465.53V353V355.5H2464.53V356V359.5H2463.53V360V362.5H2462.53V364.5H2461.53V366.5H2460.53V367V369.5H2459.53V371.5H2458.53V372V374.5H2457.53V376.5H2456.53V378.5H2455.53V379V381.5H2454.53V382V385.5H2453.53V386V388.5H2452.53V389V391.5H2451.53V393.5H2450.53V395.5H2449.53V396.5H2450.03H2666.53V395.5H2665.53V393V392.5H2664.53V390V389.5H2663.53V387V386.5H2662.53V385.5H2661.53V383V382.5H2660.53V380V379.5H2659.53V377.5H2658.53V375V374.5H2657.53V370V369.5H2656.53V367.5H2655.53V365.5H2654.53V363V362.5H2653.53V360.5H2652.53V358V357.5H2651.53V355.5H2650.53V353V352.5H2649.53V350.5H2648.53V348V347.5H2647.53V344V343.5H2646.53V341V340.5H2645.53V338V337.5H2644.53V335.5H2643.53V333.5H2642.53V331V330.5H2641.53V328V327.5H2640.53V325.5H2639.53V323.5H2638.53V321V320.5H2637.53V316V315.5H2636.53V313.5H2635.53V311V310.5H2634.53V308V307.5H2633.53V305.5H2632.53V303.5H2631.53V301V300.5H2630.53V298.5H2629.53V296V295.5H2628.53V293.5H2627.53V289V288.5H2626.53V286V285.5H2625.53V283.5H2624.53V281.5H2623.53V279V278.5H2622.53V276V275.5H2621.53V273.5H2620.53V271.5H2619.53V269V268.5H2618.53V266V265.5H2617.53V262V261.5H2616.53V259V258.5H2615.53V256V255.5H2614.53V254.5H2613.53V252V251.5H2612.53V249V248.5H2611.53V246.5H2610.53V244V243.5H2609.53V241.5H2608.53V239V238.5H2607.53V235V234.5H2606.53V232V231.5H2605.53V229.5H2604.53V227V226.5H2603.53V224V223.5H2602.53V221.5H2601.53V219.5H2600.53V217V216.5H2599.53V214V213.5H2598.53V211.5H2597.53V209V208.5H2596.53V204V203.5H2595.53V202.5H2594.53V200V199.5H2593.53V197V196.5H2592.53V194V193.5H2591.53V192.5H2590.53V190V189.5H2589.53V187V186.5H2588.53V184.5H2587.53V182V181.5H2586.53V177V176.5H2585.53V174.5H2584.53V172.5H2583.53V170V169.5H2582.53V167.5H2581.53V165V164.5H2580.53V162.5H2579.53V160V159.5H2578.53V157.5H2577.53V155V154.5H2576.53V151V150.5H2575.53V148V147.5H2574.53V145V144.5H2573.53V142.5H2572.53V140.5H2571.53V138V137.5H2570.53V135V134.5H2569.53V132.5H2568.53V130.5H2567.53V128V127.5H2566.53V123V122.5H2565.53V120.5H2564.53V118V117.5H2563.53V115V114.5H2562.53V112.5H2561.53V110.5H2560.53V108V107.5H2559.53V106.5H2558.53Z" fill="#F6F7F5" stroke="#F6F7F5"/>
<path opacity="0.976471" d="M2931.53 12.5H2931.78H3016.28H3016.53V13.5H3017.53V14.5H3018.53V15.5H3019.53V17.5H3020.53V18.5H3021.53V20.5H3022.53V21.5H3023.53V23.5H3024.53V24.5H3025.53V26.5H3026.53V27.5H3027.53V28.5H3028.53V30.5H3029.53V31.5H3030.53V32.5H3031.53V33.5H3032.53V33.75V36.25V36.5H3033.53V37.5H3034.53V39.5H3035.53V40.5H3036.53V41.5H3037.53V42.5H3038.53V43.5H3039.53V45.5H3040.53V46.5H3041.53C3041.53 46.75 3041.53 47.3333 3041.53 48.25V48.5H3042.53V50.5H3043.53V51.5H3044.53V52.5H3045.53V54.5H3046.53V55.5H3047.53V56.5H3048.53V58.5H3049.53V59.5H3050.53V61.5H3051.53V62.5H3052.53V64.5H3053.53V65.5H3054.53V67.5H3055.53V68.5H3056.53V70.5H3057.53V71.5H3059.53V73.5H3060.53V74.5H3061.53V76.5H3062.53V77.5H3063.53V77.75V80.25V80.5H3064.53V81.5H3065.53V82.5H3066.53V83.5H3067.53V84.5H3068.53V86.5H3069.53V87.5H3070.53V89.5H3071.53V90.5H3072.53V91.5H3073.53C3073.53 91.75 3073.53 92.3333 3073.53 93.25V93.5H3074.53V95.5H3075.53V96.5H3076.53V98.5H3077.53V99.5H3078.53V100.5H3079.53V102.5H3081.53V104.5H3082.53V105.5H3083.53V105.75V108.25V108.5H3084.53V109.5H3085.53V111.5H3086.53V112.5H3088.53V114.5H3089.53V115.5H3090.53V117.5H3091.53V118.5H3092.53V119.5H3093.53V119.75V122.25V122.5H3094.53V123.5H3095.53V124.5H3096.53V126.5H3097.53V127.5H3098.53V128.5H3099.53V130.5H3100.53V131.5H3101.53V132.5H3102.53V133.5H3103.53V133.75V136.25V136.5H3104.53V137.5H3105.53V139.5H3106.53V140.5H3107.53V141.5H3108.53V142.5H3109.53V143.5H3110.53V145.5H3111.53V146.5H3112.53V147.5H3113.53V147.75V150.25V150.5H3114.53V152.5H3116.53V154.5H3117.53V155.5H3118.53V156.5H3119.53V158.5H3120.53V159.5H3121.53V161.5H3122.53V162.5H3123.53V164.5H3124.53V165.5H3125.53V167.5H3126.53V168.5H3127.53V169.5H3128.53V171.5H3129.53V172.5H3130.53V173.5H3131.53V174.5H3132.53V175.5H3133.53V177.5H3134.53V177.75V180.25V180.5H3135.53V181.5H3136.53V182.5H3137.53V183.5H3138.53V184.5H3139.53V186.5H3140.53V187.5H3141.53V189.5H3142.53V190.5H3143.53V191.5H3144.53C3144.53 191.75 3144.53 192.333 3144.53 193.25V193.5H3145.53V195.5H3146.53V196.5H3147.53V197.5H3148.53V199.5H3149.53V200.5H3150.53V202.5H3151.53V203.5H3152.53V204.5H3153.53V205.5H3154.53V205.75V208.25V208.5H3155.53V209.5H3156.53V210.5H3157.53V212.5H3158.53V213.5H3159.53V214.5H3160.53V215.5H3161.53V217.5H3162.53V218.5H3163.53V219.5H3164.53V219.75V222.25V222.5H3165.53V223.5H3166.53V224.5H3167.53V225.5H3168.53V227.5H3169.53V228.5H3170.53V230.5H3171.53V231.5H3172.53V232.5H3173.53C3173.53 232.75 3173.53 233.333 3173.53 234.25V234.5H3174.53V236.5H3175.53V237.5H3176.53V238.5H3177.53V240.5H3178.53V241.5H3179.53V243.5H3180.53V244.5H3181.53V245.5H3182.53V246.5H3183.53V247.5H3184.53V247.75V250.25V250.5H3185.53V252.5H3186.53V253.5H3187.53V254.5H3188.53V255.5H3189.53V256.5H3190.53V258.5H3191.53V259.5H3192.53V260.5H3193.53C3193.53 260.75 3193.53 261.333 3193.53 262.25V262.5H3194.53V264.5H3195.53V265.5H3196.53V266.5H3197.53V268.5H3198.53V269.5H3199.53V271.5H3200.53V272.5H3201.53V273.5H3202.53V274.5H3203.53V275.5H3204.53V277.5H3205.53V277.75V280.25V280.5H3206.53V281.5H3207.53V282.5H3208.53V284.5H3210.53V286.5H3211.53V287.5H3212.53V288.5H3213.53V290.5H3214.53V291.5H3215.53V291.75V294.25V294.5H3217.53V296.5H3218.53V297.5H3219.53V299.5H3220.53V300.5H3221.53V301.5H3222.53V303.5H3223.53V304.5H3224.53V305.5H3225.53V305.75V308.25V308.5H3226.53V309.5H3227.53V310.5H3228.53V312.5H3229.53V313.5H3230.53V315.5H3232.53V316.5H3233.53V318.5H3234.53V319.5H3235.53V319.75V322.25V322.5H3236.53V323.5H3237.53V325.5H3239.53V327.5H3240.53V328.5H3241.53V329.5H3242.53V331.5H3243.53V332.5H3244.53C3244.53 332.75 3244.53 333.333 3244.53 334.25V334.5H3245.53V336.5H3246.53V337.5H3247.53V338.5H3248.53V340.5H3249.53V341.5H3250.53V343.5H3251.53V344.5H3252.53V345.5H3253.53V346.5H3254.53V347.5H3255.53V347.75V350.25V350.5H3256.53V351.5H3257.53V353.5H3258.53V354.5H3259.53V355.5H3260.53V356.5H3261.53V357.5H3262.53V359.5H3263.53V360.5H3264.53C3264.53 360.75 3264.53 361.333 3264.53 362.25V362.5H3265.53V364.5H3266.53V365.5H3267.53V366.5H3268.53V368.5H3269.53V369.5H3270.53V371.5H3271.53V372.5H3272.53V373.5H3273.53V375.5H3274.53V376.5H3275.53V378.5H3276.53V379.5H3277.53V381.5H3278.53V382.5H3279.53V384.5H3280.53V385.5H3281.53V386.5H3282.53V387.5H3283.53V388.5H3284.53V390.5H3285.53V391.5H3286.53V391.75V394.25V394.5H3287.53V395.5H3288.53V396.5H3289.53V397.5H3290.53V399.5H3291.53V400.5H3292.53V401.5H3293.53V403.5H3294.53V404.5H3295.53V406.5H3296.53V407.5H3297.53V409.5H3298.53V410.5H3299.53V412.5H3300.53V413.5H3301.53V414.5H3302.53V416.5H3304.53V418.5H3305.53V419.5H3306.53V419.75V422.25V422.5H3307.53V423.5H3308.53V425.5H3309.53V426.5H3310.53V427.5H3311.53V428.5H3312.53V429.5H3313.53V431.5H3314.53V432.5H3315.53C3315.53 432.75 3315.53 433.333 3315.53 434.25V434.5H3316.53V436.5H3317.53V437.5H3318.53V438.5H3319.53V440.5H3320.53V441.5H3321.53V442.5H3322.53V444.5H3323.53V445.5H3324.53V446.5H3325.53V447.5H3326.53V447.75V450.25V450.5H3327.53V451.5H3328.53V453.5H3329.53V454.5H3330.53V455.5H3331.53V457.5H3333.53V459.5H3334.53V460.5H3335.53V462.5H3336.53C3336.53 462.75 3336.53 463.333 3336.53 464.25V464.5H3337.53V466.5H3338.53V467.5H3339.53V468.5H3340.53V469.5H3341.53V470.5H3342.53V472.5H3343.53V473.5H3344.53V475.5H3345.53V476.5H3346.53V477.5H3347.53V477.25V444.75V444.5H3346.53V444.25V12.75V12.5H3346.78H3386.28C3386.53 12.4167 3386.61 12.5 3386.53 12.75V604.25C3386.45 604.5 3386.53 604.583 3386.78 604.5C3387.7 604.5 3388.28 604.5 3388.53 604.5V604.75V607.25V607.5H3388.28H3367.78H3367.53V608.5H3367.28H3336.78H3336.53V609.5H3336.28H3320.78H3320.53V608.5H3318.53V606.5H3317.53V605.5H3316.53V605.25V602.75V602.5H3315.53V601.5H3314.53V599.5H3313.53V598.5H3312.53V597.5H3311.53V596.5H3310.53V595.5H3309.53V593.5H3308.53V592.5H3307.53C3307.53 592.25 3307.53 591.667 3307.53 590.75V590.5H3306.53V588.5H3305.53V587.5H3304.53V586.5H3303.53V584.5H3302.53V583.5H3301.53V582.5H3300.53V580.5H3299.53V579.5H3298.53V578.5H3297.53V577.5H3296.53V577.25V574.75V574.5H3295.53V573.5H3294.53V571.5H3293.53V570.5H3292.53V569.5H3291.53V568.5H3290.53V567.5H3289.53V565.5H3288.53V564.5H3287.53V563.5H3286.53V563.25V560.75V560.5H3285.53V558.5H3283.53V557.5H3282.53V555.5H3281.53V554.5H3280.53V552.5H3279.53V551.5H3278.53V550.5H3277.53C3277.53 550.25 3277.53 549.667 3277.53 548.75V548.5H3276.53V546.5H3275.53V545.5H3274.53V544.5H3273.53V542.5H3272.53V541.5H3271.53V539.5H3270.53V538.5H3269.53V537.5H3268.53V536.5H3267.53V535.5H3266.53V535.25V532.75V532.5H3265.53V531.5H3264.53V529.5H3263.53V528.5H3262.53V527.5H3261.53V526.5H3260.53V525.5H3259.53V523.5H3258.53V522.5H3257.53V520.5H3256.53V519.5H3255.53V517.5H3254.53V516.5H3253.53V514.5H3252.53V513.5H3251.53V512.5H3250.53V510.5H3249.53V509.5H3248.53V507.5H3246.53V505.5H3245.53C3245.53 505.25 3245.53 504.667 3245.53 503.75V503.5H3244.53V501.5H3243.53V500.5H3242.53V499.5H3241.53V497.5H3239.53V495.5H3238.53V494.5H3237.53V492.5H3236.53V491.5H3235.53V491.25V488.75V488.5H3234.53V487.5H3233.53V486.5H3232.53V485.5H3231.53V484.5H3230.53V482.5H3229.53V481.5H3228.53V479.5H3227.53V478.5H3226.53V477.5H3225.53C3225.53 477.25 3225.53 476.667 3225.53 475.75V475.5H3224.53V473.5H3223.53V472.5H3222.53V471.5H3221.53V469.5H3220.53V468.5H3219.53V467.5H3218.53V466.5H3217.53V465.5H3216.53V463.5H3215.53V463.25V460.75V460.5H3214.53V459.5H3213.53V458.5H3212.53V456.5H3210.53V454.5H3209.53V453.5H3208.53V452.5H3207.53V450.5H3206.53V449.5H3205.53V449.25V446.75V446.5H3203.53V444.5H3202.53V443.5H3201.53V441.5H3200.53V440.5H3199.53V439.5H3198.53V437.5H3197.53V436.5H3196.53V435.5H3195.53V433.5H3194.53V431.5H3193.53V430.5H3192.53V428.5H3191.53V427.5H3190.53V426.5H3189.53V425.5H3188.53V424.5H3187.53V422.5H3186.53V421.5H3185.53C3185.53 421.25 3185.53 420.667 3185.53 419.75V419.5H3184.53V417.5H3183.53V416.5H3182.53V415.5H3181.53V414.5H3180.53V412.5H3179.53V411.5H3178.53V409.5H3177.53V408.5H3176.53V407.5H3175.53C3175.53 407.25 3175.53 406.667 3175.53 405.75V405.5H3174.53V403.5H3173.53V402.5H3172.53V401.5H3171.53V399.5H3170.53V398.5H3169.53V396.5H3168.53V395.5H3166.53V393.5H3165.53V392.5H3164.53V392.25V389.75V389.5H3163.53V388.5H3162.53V386.5H3161.53V385.5H3160.53V384.5H3159.53V383.5H3158.53V382.5H3157.53V380.5H3156.53V379.5H3155.53C3155.53 379.25 3155.53 378.667 3155.53 377.75V377.5H3154.53V375.5H3153.53V374.5H3152.53V373.5H3151.53V371.5H3150.53V370.5H3149.53V369.5H3148.53V367.5H3147.53V366.5H3146.53V365.5H3145.53V364.5H3144.53V364.25V361.75V361.5H3143.53V360.5H3142.53V358.5H3141.53V357.5H3140.53V355.5H3138.53V354.5H3137.53V352.5H3136.53V351.5H3135.53V349.5H3134.53C3134.53 349.25 3134.53 348.667 3134.53 347.75V347.5H3133.53V345.5H3131.53V343.5H3130.53V342.5H3129.53V341.5H3128.53V339.5H3127.53V338.5H3126.53V336.5H3125.53V335.5H3124.53V333.5H3123.53V332.5H3122.53V330.5H3121.53V329.5H3120.53V328.5H3119.53V326.5H3118.53V325.5H3117.53V324.5H3116.53V323.5H3115.53V322.5H3114.53V320.5H3113.53V320.25V317.75V317.5H3112.53V316.5H3111.53V315.5H3110.53V314.5H3109.53V313.5H3108.53V311.5H3107.53V310.5H3106.53V309.5H3105.53V307.5H3104.53V306.5H3103.53V304.5H3102.53V303.5H3101.53V301.5H3100.53V300.5H3099.53V298.5H3098.53V297.5H3097.53V296.5H3096.53V294.5H3094.53V292.5H3093.53C3093.53 292.25 3093.53 291.667 3093.53 290.75V290.5H3092.53V288.5H3091.53V287.5H3090.53V285.5H3089.53V284.5H3087.53V282.5H3086.53V281.5H3085.53V279.5H3084.53V278.5H3083.53V278.25V275.75V275.5H3082.53V274.5H3081.53V273.5H3080.53V272.5H3079.53V271.5H3078.53V269.5H3077.53V268.5H3076.53V266.5H3075.53V265.5H3074.53V264.5H3073.53C3073.53 264.25 3073.53 263.667 3073.53 262.75V262.5H3072.53V260.5H3071.53V259.5H3070.53V258.5H3069.53V256.5H3068.53V255.5H3067.53V254.5H3066.53V253.5H3065.53V252.5H3064.53V250.5H3063.53V250.25V247.75V247.5H3062.53V246.5H3061.53V245.5H3060.53V244.5H3059.53V243.5H3058.53V241.5H3057.53V240.5H3056.53V239.5H3055.53V237.5H3054.53V236.5H3053.53V236.25V233.75V233.5H3051.53V231.5H3050.53V230.5H3049.53V228.5H3048.53V227.5H3047.53V225.5H3046.53V224.5H3045.53V223.5H3044.53V222.5H3043.53V220.5H3042.53V218.5H3041.53V217.5H3040.53V215.5H3039.53V214.5H3038.53V213.5H3037.53V212.5H3036.53V211.5H3035.53V209.5H3034.53V208.5H3033.53C3033.53 208.25 3033.53 207.667 3033.53 206.75V206.5H3032.53V204.5H3031.53V203.5H3030.53V202.5H3029.53V200.5H3028.53V199.5H3027.53V198.5H3026.53V196.5H3025.53V195.5H3024.53V193.5H3023.53V192.5H3022.53V190.5H3021.53V189.5H3020.53V187.5H3019.53V186.5H3018.53V185.5H3017.53V183.5H3015.53V181.5H3014.53V180.5H3013.53V179.5H3012.53V179.25V176.75V176.5H3011.53V174.5H3010.53V173.5H3008.53V171.5H3007.53V170.5H3006.53V168.5H3005.53V167.5H3004.53V166.5H3003.53C3003.53 166.25 3003.53 165.667 3003.53 164.75V164.5H3002.53V162.5H3001.53V161.5H3000.53V160.5H2999.53V158.5H2998.53V157.5H2997.53V155.5H2996.53V154.5H2995.53V153.5H2994.53V152.5H2993.53V151.5H2992.53V151.25V148.75V148.5H2991.53V147.5H2990.53V145.5H2989.53V144.5H2988.53V142.5H2986.53V141.5H2985.53V139.5H2984.53V138.5H2983.53V136.5H2982.53C2982.53 136.25 2982.53 135.667 2982.53 134.75V134.5H2981.53V132.5H2979.53V130.5H2978.53V129.5H2977.53V128.5H2976.53V126.5H2975.53V125.5H2974.53V123.5H2973.53V122.5H2972.53V120.5H2971.53V119.5H2970.53V117.5H2969.53V117.75V125.25V125.5H2970.53V125.75V146.25V146.5H2971.53V146.75V606.25V606.5H2971.28H2931.78C2931.53 606.583 2931.45 606.5 2931.53 606.25V12.75V12.5Z" fill="#F6F7F5" stroke="#F6F7F5"/>
<path opacity="0.976471" d="M550.531 15.5H550.781H655.281C655.531 15.4167 655.615 15.5 655.531 15.75V429.25V429.5H656.531V429.75V439.25V439.5H657.531V439.75V447.25V447.5H658.531V447.75V453.25V453.5H659.531V453.75V458.25V458.5H660.531V458.75V465.25V465.5H661.531V465.75V468.25V468.5H662.531V468.75V472.25V472.5H663.531V472.75V475.25V475.5H664.531V477.5H665.531V479.5H666.531V479.75V482.25V482.5H667.531V484.5H668.531V484.75V487.25V487.5H669.531V488.5H670.531V488.75V492.25V492.5H671.531V494.5H672.531V496.5H673.531V497.5H674.531V499.5H675.531V501.5H676.531V503.5H677.531C677.531 503.75 677.531 504.333 677.531 505.25V505.5H678.531V507.5H679.531V508.5H680.531V508.75V511.25V511.5H681.531C681.531 511.75 681.531 512.333 681.531 513.25V513.5H682.531V515.5H683.531V516.5H684.531V517.5H685.531V518.5H686.531V519.5H687.531V521.5H688.531V522.5H689.531V523.5H690.531V523.75V526.25V526.5H691.531V527.5H692.531V528.5H694.531V529.5H695.531V530.5H696.531V532.5H697.531V533.5H698.531V534.5H699.531V535.5H700.531V536.5H701.531V537.5H702.531V538.5H704.531V539.5H705.531V540.5H706.531V541.5H707.531V542.5H709.531V543.5H710.531V544.5H711.531V545.5H712.531V546.5H713.531V547.5H715.531V548.5H715.781H718.281H718.531V549.5H719.531V550.5H720.531V551.5H722.531V552.5H723.531V553.5H725.531V554.5H727.531V555.5C727.781 555.5 728.365 555.5 729.281 555.5H729.531V556.5H731.531V558.5H731.781H735.281H735.531V559.5H737.531V560.5H739.531V561.5H741.531V562.5H743.531V563.5H745.531V564.5H745.781H748.281H748.531V565.5H748.781H751.281H751.531V566.5H753.531V567.5H753.781H756.281H756.531V568.5H756.781H762.281H762.531V569.5H762.781H767.281H767.531V570.5H767.781H771.281H771.531V571.5H771.781H777.281H777.531V572.5H777.781H784.281H784.531V573.5H784.781H796.281H796.531V574.5H796.781H820.281H820.531V573.5H820.781H830.281H830.531V572.5H830.781H836.281H836.531V571.5H836.781H842.281H842.531V570.5H842.781H846.281H846.531V569.5H846.781H850.281H850.531V568.5H850.781H856.281H856.531V567.5H856.781H860.281H860.531V566.5H860.781H863.281H863.531V565.5H865.531V564.5H865.781H868.281H868.531V563.5H870.531V562.5H870.781H873.281H873.531V561.5H874.531V560.5H874.781H877.281H877.531V559.5H879.531V558.5H879.781H883.281H883.531V557.5H884.531V556.5H886.531V555.5H888.531V554.5H889.531V553.5C889.781 553.5 890.365 553.5 891.281 553.5H891.531V552.5H893.531V550.5H895.531V549.5H897.531V548.5H897.781H900.281H900.531V547.5H902.531V546.5H903.531V545.5H904.531V544.5H905.531V543.5H906.531V542.5H908.531V541.5H909.531V540.5H911.531V539.5H912.531V538.5H913.531V537.5H915.531V536.5H916.531V535.5H917.531V534.5H918.531V533.5H919.531V532.5H920.531V531.5H921.531V530.5H922.531V529.5H923.531V528.5H924.531V527.5H925.531V526.5H926.531V525.5H927.531V524.5H928.531V523.5H929.531V522.5H930.531V521.5H931.531V520.5H932.531V519.5H933.531V517.5H934.531V516.5H935.531V514.5H936.531V513.5H937.531V512.5H938.531V510.5H939.531V509.5H940.531V508.5H941.531V507.5H942.531V506.5H943.531V504.5H944.531V504.25V501.75V501.5H945.531C945.531 501.25 945.531 500.667 945.531 499.75V499.5H946.531V497.5H948.531V495.5H949.531V493.5H950.531V491.5H951.531C951.531 491.25 951.531 490.667 951.531 489.75V489.5H952.531V487.5H953.531V486.5H954.531V486.25V482.75V482.5H955.531V480.5H956.531V480.25V477.75V477.5H957.531V476.5H958.531V476.25V473.75V473.5H959.531V473.25V470.75V470.5H960.531V470.25V467.75V467.5H961.531V465.5H962.531V465.25V462.75V462.5H963.531V462.25V458.75V458.5H964.531V458.25V450.75V450.5H965.531V450.25V447.75V447.5H966.531V447.25V441.75V441.5H967.531V441.25V435.75V435.5H968.531V435.25V427.75V427.5H969.531V427.25V417.75V417.5H970.531V417.25V15.75C970.448 15.5 970.531 15.4167 970.781 15.5H1011.28H1011.53V15.75V410.25V410.5H1010.53V410.75V424.25V424.5H1009.53V424.75V432.25V432.5H1008.53V432.75V439.25V439.5H1007.53V439.75V446.25V446.5H1006.53V446.75V450.25V450.5H1005.53V450.75V459.25V459.5H1004.53V459.75V464.25V464.5H1003.53V464.75V467.25V467.5H1002.53V467.75V470.25V470.5H1001.53V470.75V474.25V474.5H1000.53V474.75V477.25V477.5H999.531V477.75V480.25V480.5H998.531V480.75V483.25V483.5H997.531V483.75V486.25V486.5H996.531V488.5H995.531V490.5H994.531V490.75V496.25V496.5H993.531V497.5H992.531V499.5H991.531V499.75V502.25V502.5H990.531C990.531 502.75 990.531 503.333 990.531 504.25V504.5H989.531V506.5H988.531V507.5H987.531V509.5H986.531V511.5H985.531V513.5H984.531V513.75V517.25V517.5H983.531V518.5H982.531V520.5H981.531V522.5H980.531V523.5H979.531C979.531 523.75 979.531 524.333 979.531 525.25V525.5H978.531V527.5H976.531V529.5H975.531V530.5H974.531V530.75V533.25V533.5H973.531V535.5H972.531V536.5H971.531V537.5H970.531V538.5H969.531V539.5H968.531V541.5H967.531V542.5H966.531V543.5H965.531V544.5H964.531V546.5H963.531V547.5H962.531V548.5H961.531V549.5H960.531V550.5H959.531V551.5H958.531V553.5H957.531V554.5H956.531V555.5H955.531V556.5H954.531V557.5H953.531V558.5H952.531V559.5H951.531V560.5H950.531V561.5H949.531V562.5H948.531V563.5H947.531V564.5H945.531V565.5H944.531V567.5H943.531V568.5C943.281 568.5 942.698 568.5 941.781 568.5H941.531V569.5H939.531V570.5H938.531V571.5H937.531V572.5H936.531V573.5H934.531V575.5H933.531V576.5H931.531V577.5H930.531V578.5H930.281H927.781H927.531V579.5H926.531V580.5H924.531V581.5H923.531V583.5C923.281 583.5 922.698 583.5 921.781 583.5H921.531V584.5H919.531V585.5H918.531V586.5H916.531V587.5H915.531V588.5H915.281H912.781H912.531V589.5H911.531V590.5H909.531V591.5H909.281H906.781H906.531V592.5H904.531V593.5H903.531V594.5H901.531V595.5H899.531V596.5H899.281H896.781H896.531V597.5H894.531V598.5H894.281H890.781H890.531V599.5H890.281H887.781H887.531V600.5H887.281H884.781H884.531V601.5H883.531V602.5H883.281H880.781H880.531V603.5H880.281H877.781H877.531V604.5H877.281H874.781H874.531V605.5H874.281H871.781H871.531V606.5H871.281H868.781H868.531V607.5H868.281H864.781H864.531V608.5H864.281H860.781H860.531V609.5H860.281H854.781H854.531V610.5H854.281H850.781H850.531V611.5H850.281H845.781H845.531V612.5H845.281H841.781H841.531V613.5H841.281H836.781H836.531V614.5H836.281H830.781H830.531V615.5H830.281H822.781H822.531V616.5H822.281H814.781H814.531V617.5H814.281H801.781H801.531V618.5H801.281H767.781H767.531V617.5H767.281H752.781H752.531V616.5H752.281H743.781H743.531V615.5H743.281H736.781H736.531V614.5H736.281H730.781H730.531V613.5H730.281H724.781H724.531V612.5H724.281H720.781H720.531V611.5H720.281H715.781H715.531V610.5H715.281H711.781H711.531V609.5H711.281H705.781H705.531V608.5H705.281H700.781H700.531V607.5H700.281H696.781H696.531V606.5H696.281H693.781H693.531V605.5H693.281H690.781H690.531V604.5H690.281H687.781H687.531V603.5H687.281H684.781H684.531V602.5H684.281H681.781H681.531V601.5H679.531V600.5H677.531V599.5H677.281H674.781H674.531V598.5H674.281H670.781H670.531V597.5H670.281H667.781H667.531V596.5C667.281 596.5 666.698 596.5 665.781 596.5H665.531V595.5H663.531V594.5H663.281H660.781H660.531V593.5H659.531V592.5H657.531V591.5H655.531V590.5H653.531V589.5H651.531V588.5H651.281H648.781H648.531V587.5H646.531V586.5H645.531V585.5C645.281 585.5 644.698 585.5 643.781 585.5H643.531V584.5H641.531V583.5H640.531V582.5H639.531V581.5H637.531V580.5H636.531V579.5H634.531V578.5H634.281H631.781H631.531V577.5H630.531V576.5H629.531V575.5H628.531V574.5H627.531V573.5H625.531V572.5H624.531V571.5H623.531V570.5H622.531V569.5H620.531V568.5H619.531V567.5H618.531V566.5H616.531V565.5H615.531V564.5H614.531V563.5H613.531V562.5H612.531V561.5H611.531V560.5H610.531V559.5H609.531V558.5H608.531V557.5H607.531V556.5H606.531V555.5H605.531V554.5H604.531V553.5H603.531V552.5H602.531V551.5H601.531V550.5H600.531V549.5H599.531V548.5H598.531V547.5H597.531V545.5H596.531V544.5H595.531V543.5H594.531V542.5H593.531V541.5H592.531V539.5H591.531V538.5H590.531V537.5H589.531V535.5H588.531V534.5H587.531V532.5H586.531V531.5H585.531V530.5H584.531V528.5H583.531V527.5H582.531V526.5H581.531V525.5H580.531V523.5H579.531V523.25V520.75V520.5H578.531V519.5H577.531V517.5H576.531V516.5H575.531V515.5H574.531V513.5H573.531V511.5H572.531C572.531 511.25 572.531 510.667 572.531 509.75V509.5H571.531V507.5H570.531V506.5H569.531V506.25V502.75V502.5H568.531V500.5H567.531V498.5H566.531V496.5H565.531V494.5H564.531V494.25V491.75V491.5H563.531V491.25V488.75V488.5H562.531V486.5H561.531V486.25V483.75V483.5H560.531V483.25V480.75V480.5H559.531V480.25V476.75V476.5H558.531V476.25V470.75V470.5H557.531V470.25V467.75V467.5H556.531V467.25V462.75V462.5H555.531V462.25V457.75V457.5H554.531V457.25V453.75V453.5H553.531V453.25V446.75V446.5H552.531V446.25V438.75V438.5H551.531V438.25V428.75V428.5H550.531V428.25V15.75V15.5Z" fill="#F6F7F5" stroke="#F6F7F5"/>
</svg>
